<svg width="37" height="37" viewBox="0 0 37 37" fill="none" xmlns="http://www.w3.org/2000/svg">
<rect y="0.0410156" width="36.4583" height="36.4583" rx="18.2292" fill="#E8FCAF"/>
<path d="M16.8905 16.8674V18.263C16.8905 18.901 16.8259 19.446 16.6968 19.8979C16.5677 20.3499 16.3816 20.7202 16.1385 21.0088C15.8955 21.2936 15.6049 21.5044 15.2669 21.6411C14.9289 21.774 14.553 21.8405 14.139 21.8405C13.8086 21.8405 13.501 21.7987 13.2161 21.7152C12.9313 21.6278 12.675 21.4949 12.4471 21.3164C12.223 21.1341 12.0294 20.9025 11.866 20.6214C11.7065 20.3404 11.5831 20.0043 11.4958 19.6131C11.4122 19.222 11.3704 18.7719 11.3704 18.263V16.8674C11.3704 16.2293 11.435 15.6863 11.5641 15.2381C11.697 14.79 11.885 14.4235 12.1281 14.1387C12.3711 13.8538 12.6617 13.6469 12.9997 13.5177C13.3377 13.3848 13.7137 13.3184 14.1276 13.3184C14.4618 13.3184 14.7694 13.3601 15.0505 13.4437C15.3353 13.5272 15.5897 13.6583 15.8138 13.8368C16.0417 14.0114 16.2354 14.2393 16.3949 14.5203C16.5544 14.7976 16.6759 15.1318 16.7594 15.5229C16.8468 15.9103 16.8905 16.3585 16.8905 16.8674ZM15.3866 18.4681V16.6566C15.3866 16.3376 15.3676 16.0603 15.3296 15.8249C15.2954 15.5856 15.2441 15.3824 15.1758 15.2153C15.1074 15.0482 15.022 14.9134 14.9194 14.8109C14.8169 14.7045 14.6992 14.6267 14.5662 14.5773C14.4333 14.5279 14.2871 14.5033 14.1276 14.5033C13.9301 14.5033 13.7535 14.5431 13.5978 14.6229C13.4421 14.6988 13.3111 14.8204 13.2048 14.9875C13.0984 15.1546 13.0168 15.3767 12.9598 15.654C12.9066 15.9274 12.88 16.2616 12.88 16.6566V18.4681C12.88 18.7871 12.8971 19.0662 12.9313 19.3055C12.9693 19.5448 13.0225 19.7498 13.0908 19.9207C13.163 20.0916 13.2484 20.2322 13.3472 20.3423C13.4497 20.4486 13.5674 20.5284 13.7004 20.5815C13.8333 20.6309 13.9795 20.6556 14.139 20.6556C14.3403 20.6556 14.5169 20.6157 14.6688 20.536C14.8245 20.4562 14.9555 20.3309 15.0618 20.16C15.1682 19.9853 15.2479 19.7593 15.3011 19.4821C15.3581 19.2011 15.3866 18.8631 15.3866 18.4681ZM22.6668 13.4095V21.7266H21.1572V15.1698L19.1577 15.8306V14.6115L22.4959 13.4095H22.6668Z" fill="#172B24"/>
</svg>
