<svg width="37" height="38" viewBox="0 0 37 38" fill="none" xmlns="http://www.w3.org/2000/svg">
<rect y="0.958984" width="36.4583" height="36.4583" rx="18.2292" fill="#E8FCAF"/>
<path d="M16.8905 17.7775V19.1732C16.8905 19.8112 16.8259 20.3562 16.6968 20.8081C16.5677 21.26 16.3816 21.6303 16.1385 21.9189C15.8955 22.2038 15.6049 22.4146 15.2669 22.5513C14.9289 22.6842 14.553 22.7507 14.139 22.7507C13.8086 22.7507 13.501 22.7089 13.2161 22.6253C12.9313 22.538 12.675 22.4051 12.4471 22.2266C12.223 22.0443 12.0294 21.8126 11.866 21.5316C11.7065 21.2505 11.5831 20.9144 11.4958 20.5233C11.4122 20.1321 11.3704 19.6821 11.3704 19.1732V17.7775C11.3704 17.1395 11.435 16.5964 11.5641 16.1483C11.697 15.7001 11.885 15.3337 12.1281 15.0488C12.3711 14.764 12.6617 14.557 12.9997 14.4279C13.3377 14.295 13.7137 14.2285 14.1276 14.2285C14.4618 14.2285 14.7694 14.2703 15.0505 14.3538C15.3353 14.4374 15.5897 14.5684 15.8138 14.7469C16.0417 14.9216 16.2354 15.1495 16.3949 15.4305C16.5544 15.7077 16.6759 16.0419 16.7594 16.4331C16.8468 16.8205 16.8905 17.2686 16.8905 17.7775ZM15.3866 19.3783V17.5667C15.3866 17.2477 15.3676 16.9705 15.3296 16.735C15.2954 16.4958 15.2441 16.2926 15.1758 16.1255C15.1074 15.9584 15.022 15.8236 14.9194 15.721C14.8169 15.6147 14.6992 15.5368 14.5662 15.4875C14.4333 15.4381 14.2871 15.4134 14.1276 15.4134C13.9301 15.4134 13.7535 15.4533 13.5978 15.533C13.4421 15.609 13.3111 15.7305 13.2048 15.8976C13.0984 16.0647 13.0168 16.2869 12.9598 16.5641C12.9066 16.8376 12.88 17.1718 12.88 17.5667V19.3783C12.88 19.6973 12.8971 19.9764 12.9313 20.2157C12.9693 20.4549 13.0225 20.66 13.0908 20.8309C13.163 21.0018 13.2484 21.1423 13.3472 21.2524C13.4497 21.3588 13.5674 21.4385 13.7004 21.4917C13.8333 21.5411 13.9795 21.5658 14.139 21.5658C14.3403 21.5658 14.5169 21.5259 14.6688 21.4461C14.8245 21.3664 14.9555 21.241 15.0618 21.0701C15.1682 20.8955 15.2479 20.6695 15.3011 20.3923C15.3581 20.1112 15.3866 19.7732 15.3866 19.3783ZM24.41 21.4518V22.6367H18.7931V21.6227L21.4876 18.7118C21.7687 18.3927 21.9908 18.1155 22.1541 17.88C22.3174 17.6446 22.4333 17.4319 22.5016 17.242C22.5738 17.0483 22.6099 16.8641 22.6099 16.6895C22.6099 16.435 22.5643 16.2128 22.4731 16.0229C22.382 15.8293 22.2491 15.6793 22.0744 15.5729C21.9035 15.4666 21.6927 15.4134 21.4421 15.4134C21.1648 15.4134 20.9275 15.478 20.73 15.6071C20.5363 15.7324 20.3882 15.9071 20.2856 16.1312C20.1869 16.3553 20.1375 16.6116 20.1375 16.9002H18.6279C18.6279 16.4103 18.7419 15.9641 18.9697 15.5615C19.1976 15.1552 19.5242 14.8305 19.9495 14.5874C20.3749 14.3443 20.88 14.2228 21.4648 14.2228C22.0345 14.2228 22.5168 14.3178 22.9118 14.5076C23.3067 14.6937 23.6068 14.9596 23.8118 15.3052C24.0169 15.6508 24.1195 16.0628 24.1195 16.5413C24.1195 16.8072 24.0758 17.0692 23.9884 17.3275C23.9011 17.5857 23.7777 17.8421 23.6182 18.0965C23.4625 18.3472 23.2764 18.6016 23.0599 18.8599C22.8434 19.1181 22.6023 19.3821 22.3364 19.6517L20.7186 21.4518H24.41Z" fill="#172B24"/>
</svg>
