<svg width="37" height="38" viewBox="0 0 37 38" fill="none" xmlns="http://www.w3.org/2000/svg">
<rect y="0.876953" width="36.4583" height="36.4583" rx="18.2292" fill="#E8FCAF"/>
<path d="M16.8905 17.6935V19.0892C16.8905 19.7272 16.8259 20.2722 16.6968 20.7241C16.5677 21.1761 16.3816 21.5463 16.1385 21.835C15.8955 22.1198 15.6049 22.3306 15.2669 22.4673C14.9289 22.6002 14.553 22.6667 14.139 22.6667C13.8086 22.6667 13.501 22.6249 13.2161 22.5413C12.9313 22.454 12.675 22.3211 12.4471 22.1426C12.223 21.9603 12.0294 21.7286 11.866 21.4476C11.7065 21.1666 11.5831 20.8305 11.4958 20.4393C11.4122 20.0481 11.3704 19.5981 11.3704 19.0892V17.6935C11.3704 17.0555 11.435 16.5124 11.5641 16.0643C11.697 15.6162 11.885 15.2497 12.1281 14.9648C12.3711 14.68 12.6617 14.473 12.9997 14.3439C13.3377 14.211 13.7137 14.1445 14.1276 14.1445C14.4618 14.1445 14.7694 14.1863 15.0505 14.2699C15.3353 14.3534 15.5897 14.4844 15.8138 14.6629C16.0417 14.8376 16.2354 15.0655 16.3949 15.3465C16.5544 15.6238 16.6759 15.958 16.7594 16.3491C16.8468 16.7365 16.8905 17.1846 16.8905 17.6935ZM15.3866 19.2943V17.4827C15.3866 17.1637 15.3676 16.8865 15.3296 16.651C15.2954 16.4118 15.2441 16.2086 15.1758 16.0415C15.1074 15.8744 15.022 15.7396 14.9194 15.637C14.8169 15.5307 14.6992 15.4529 14.5662 15.4035C14.4333 15.3541 14.2871 15.3294 14.1276 15.3294C13.9301 15.3294 13.7535 15.3693 13.5978 15.4491C13.4421 15.525 13.3111 15.6465 13.2048 15.8136C13.0984 15.9807 13.0168 16.2029 12.9598 16.4801C12.9066 16.7536 12.88 17.0878 12.88 17.4827V19.2943C12.88 19.6133 12.8971 19.8924 12.9313 20.1317C12.9693 20.3709 13.0225 20.576 13.0908 20.7469C13.163 20.9178 13.2484 21.0583 13.3472 21.1685C13.4497 21.2748 13.5674 21.3545 13.7004 21.4077C13.8333 21.4571 13.9795 21.4818 14.139 21.4818C14.3403 21.4818 14.5169 21.4419 14.6688 21.3621C14.8245 21.2824 14.9555 21.1571 15.0618 20.9862C15.1682 20.8115 15.2479 20.5855 15.3011 20.3083C15.3581 20.0272 15.3866 19.6892 15.3866 19.2943ZM20.4395 17.7391H21.2882C21.5883 17.7391 21.8351 17.6878 22.0288 17.5853C22.2263 17.4789 22.3725 17.3346 22.4674 17.1523C22.5662 16.9663 22.6156 16.7517 22.6156 16.5086C22.6156 16.2694 22.5719 16.0624 22.4845 15.8877C22.3972 15.7092 22.2643 15.5725 22.0858 15.4775C21.9111 15.3788 21.687 15.3294 21.4136 15.3294C21.1933 15.3294 20.9901 15.3731 20.804 15.4604C20.6217 15.5478 20.4755 15.6731 20.3654 15.8364C20.2591 15.9959 20.2059 16.1877 20.2059 16.4118H18.6963C18.6963 15.9636 18.814 15.5706 19.0495 15.2326C19.2887 14.8908 19.6115 14.623 20.0179 14.4294C20.4243 14.2357 20.8781 14.1388 21.3794 14.1388C21.9263 14.1388 22.4048 14.23 22.8149 14.4123C23.2289 14.5908 23.5498 14.8547 23.7777 15.2041C24.0093 15.5535 24.1252 15.9864 24.1252 16.5029C24.1252 16.7498 24.0663 16.9966 23.9486 17.2435C23.8346 17.4865 23.6656 17.7068 23.4416 17.9043C23.2213 18.098 22.9498 18.2556 22.627 18.3771C22.3079 18.4948 21.9415 18.5537 21.5275 18.5537H20.4395V17.7391ZM20.4395 18.9012V18.098H21.5275C21.9946 18.098 22.3991 18.153 22.7409 18.2632C23.0865 18.3695 23.3713 18.5214 23.5954 18.7189C23.8194 18.9126 23.9846 19.1386 24.091 19.3968C24.2011 19.6551 24.2562 19.9323 24.2562 20.2285C24.2562 20.6159 24.184 20.9615 24.0397 21.2653C23.8954 21.5653 23.6922 21.8198 23.4302 22.0286C23.1719 22.2375 22.8681 22.397 22.5187 22.5072C22.1693 22.6135 21.7914 22.6667 21.3851 22.6667C21.0319 22.6667 20.6882 22.6192 20.354 22.5243C20.0236 22.4255 19.7255 22.2793 19.4596 22.0856C19.1938 21.8881 18.983 21.6413 18.8273 21.3451C18.6716 21.045 18.5937 20.6975 18.5937 20.3026H20.1034C20.1034 20.5304 20.1584 20.7336 20.2686 20.9121C20.3825 21.0906 20.5382 21.2311 20.7357 21.3337C20.937 21.4324 21.1629 21.4818 21.4136 21.4818C21.6908 21.4818 21.9282 21.4324 22.1257 21.3337C22.3269 21.2311 22.4807 21.0868 22.5871 20.9007C22.6934 20.7108 22.7466 20.4849 22.7466 20.2228C22.7466 19.9114 22.6877 19.6589 22.57 19.4652C22.4523 19.2715 22.2833 19.1291 22.063 19.0379C21.8465 18.9468 21.5883 18.9012 21.2882 18.9012H20.4395Z" fill="#172B24"/>
</svg>
