<svg width="201" height="201" viewBox="0 0 201 201" fill="none" xmlns="http://www.w3.org/2000/svg">
<rect x="3.05273" y="2.81934" width="195" height="195" stroke="black" stroke-width="5"/>
<path d="M182.131 12.3193H17.9748C14.9858 12.3193 12.5527 14.7524 12.5527 17.7414V181.897C12.5527 184.886 14.9858 187.319 17.9748 187.319H182.131C185.12 187.319 187.553 184.886 187.553 181.897V17.7414C187.553 14.7524 185.121 12.3193 182.131 12.3193ZM183.938 181.897C183.938 182.894 183.129 183.705 182.131 183.705H17.9748C16.9789 183.705 16.167 182.895 16.167 181.897L16.1683 17.7411C16.1683 16.7452 16.9801 15.9333 17.976 15.9333H182.132C183.129 15.9333 183.94 16.7451 183.94 17.7411L183.938 181.897Z" fill="black"/>
<path d="M90.8356 53.7375H78.5457V47.5932H90.8356V41.4489H84.69V35.3033H96.9799V23.0146H90.8356V29.1577H78.5457V23.0146H72.4014V35.3033H78.5457V41.4489H72.4014V66.0274H78.5457V59.8818H84.69V72.1717H90.8356V53.7375Z" fill="black"/>
<path d="M103.125 72.1717V47.5932H109.27V23.0146H103.125V35.3033H96.9817V72.1711L103.125 72.1717Z" fill="black"/>
<path d="M66.2583 23.0146H23.2458V66.0271H66.2583V23.0146ZM60.1127 59.8824H29.3898V29.1583H60.1127V59.8824Z" fill="black"/>
<path d="M121.559 47.5918H127.703V29.1562H115.415V35.3018H121.559V47.5918Z" fill="black"/>
<path d="M133.844 66.0271H176.86V23.0146H133.844V66.0271ZM139.991 29.1561H170.717L170.716 59.8802H139.991L139.991 29.1561Z" fill="black"/>
<path d="M35.5334 35.3018H53.9677V53.736H35.5334V35.3018Z" fill="black"/>
<path d="M146.137 35.3018H164.571V53.736H146.137V35.3018Z" fill="black"/>
<path d="M115.415 72.1693V84.458H133.847V78.3136H121.559V72.1693H127.704V53.7351H121.559V66.025H115.415V47.5908H109.269V72.1693H115.415Z" fill="black"/>
<path d="M66.2569 96.7497H60.1113V90.6041H66.2569V84.4585H47.8227V72.1699H41.6784V78.3142H23.2441V102.893H29.3884V90.6041H35.5328V84.4585H41.6784V90.6041H53.967V96.7497H41.6784V102.893H29.3884V109.04H35.5328V115.183H41.6784V121.327H53.967V115.183H66.2569V121.327H53.967V127.471H72.4012V109.04H53.967V102.893H72.4012V90.6041H66.2569V96.7497Z" fill="black"/>
<path d="M60.1121 72.1699H66.2564V78.3129H60.1121V72.1699Z" fill="black"/>
<path d="M84.69 84.4595V72.1709H78.5457V78.3152H72.4014V90.6051H78.5457V84.4595H84.69Z" fill="black"/>
<path d="M90.8362 84.4595H103.124V78.3152H96.9805V72.1709H90.8362V84.4595Z" fill="black"/>
<path d="M139.993 72.1699H158.428V78.3129H139.993V72.1699Z" fill="black"/>
<path d="M164.572 90.6041H170.718V102.893H176.861V84.4585H170.718V78.3142H176.861V72.1699H164.572V90.6041Z" fill="black"/>
<path d="M84.6907 84.459H90.835V90.6033H84.6907V84.459Z" fill="black"/>
<path d="M109.271 84.459H115.415V90.6033H109.271V84.459Z" fill="black"/>
<path d="M152.283 84.459H158.426V90.6033H152.283V84.459Z" fill="black"/>
<path d="M35.5334 90.6045H41.6778V96.7488H35.5334V90.6045Z" fill="black"/>
<path d="M78.5469 90.6045H84.6912V96.7488H78.5469V90.6045Z" fill="black"/>
<path d="M109.269 96.7481H103.124V90.6025H90.8362V102.891H109.269V96.7481Z" fill="black"/>
<path d="M72.4014 102.894H78.5457V109.038H72.4014V102.894Z" fill="black"/>
<path d="M96.9806 109.04H90.8363V102.894H84.6907V115.183H90.8363V121.328H103.124V115.183H96.9806V109.04Z" fill="black"/>
<path d="M115.415 102.894H127.703V109.038H115.415V102.894Z" fill="black"/>
<path d="M23.2458 109.041H29.3902V115.184H23.2458V109.041Z" fill="black"/>
<path d="M103.125 109.041H115.417V115.184H103.125V109.041Z" fill="black"/>
<path d="M170.716 121.326H164.57V127.471H176.859V109.039H170.716V121.326Z" fill="black"/>
<path d="M29.3902 121.327H23.2458V127.471H35.5345V115.183H29.3902V121.327Z" fill="black"/>
<path d="M115.415 115.183H121.559V121.327H115.415V115.183Z" fill="black"/>
<path d="M90.8368 127.471V121.327H84.6912V139.763H78.5469V152.05H84.6912V145.907H90.8368V133.616H96.9811V145.907H103.124V139.763H109.27V121.327H103.124V127.471H90.8368Z" fill="black"/>
<path d="M72.4014 127.472H78.5457V133.616H72.4014V127.472Z" fill="black"/>
<path d="M152.282 127.472V115.183H164.571L164.572 96.7505H158.428V109.039H146.139V102.895H152.283V90.6062H146.139V84.4619H139.995V96.7531H133.85V90.6088H121.559V96.7531H127.704V102.894H139.992V109.038H133.848V115.183H139.992V121.328H133.848V115.183H127.704V121.328H121.559V127.472H115.415V133.616H121.559V145.908H109.269V158.196H115.414V170.485H121.558V164.34L127.704 164.342V152.053H139.992V158.197H146.136V152.053H152.281V139.765L158.426 139.763V127.472H152.282ZM146.138 145.908H127.704V127.472H146.138V145.908Z" fill="black"/>
<path d="M133.844 133.616H139.989V139.761H133.844V133.616Z" fill="black"/>
<path d="M164.572 139.765H158.427V152.052H164.572V145.909H170.718V139.765H176.861V133.618H164.572V139.765Z" fill="black"/>
<path d="M23.2458 176.629H66.2583V133.616H23.2458V176.629ZM29.3902 139.764H60.113V170.487H29.3902V139.764Z" fill="black"/>
<path d="M35.5334 145.905H53.9677V164.337H35.5334V145.905Z" fill="black"/>
<path d="M90.8362 145.906H96.9805V152.049H90.8362V145.906Z" fill="black"/>
<path d="M72.4014 152.051H78.5457V158.195H72.4014V152.051Z" fill="black"/>
<path d="M84.6907 152.051H90.835V158.195H84.6907V152.051Z" fill="black"/>
<path d="M164.572 152.051H170.716V158.195H164.572V152.051Z" fill="black"/>
<path d="M78.5469 158.198H84.6912V170.487H78.5469V158.198Z" fill="black"/>
<path d="M109.269 164.339H103.124V158.196H96.9805V164.339H90.8362V170.485H96.9805V176.628H115.415V170.485H109.269V164.339Z" fill="black"/>
<path d="M139.993 164.339V158.196H133.846V170.485H121.559V176.628H139.993V170.485H146.137V176.628H152.281V170.485H158.426V158.196H146.137V164.339H139.993Z" fill="black"/>
<path d="M170.716 158.198H176.859V164.341H170.716V158.198Z" fill="black"/>
<path d="M164.572 170.484H176.861V176.627H164.572V170.484Z" fill="black"/>
</svg>
