<svg width="116" height="105" viewBox="0 0 116 105" fill="none" xmlns="http://www.w3.org/2000/svg">
<path d="M4.04725 89.3191C4.04725 89.3191 4.87944 82.904 8.60117 79.5119C12.2998 76.1197 35.5779 72.3122 35.5779 72.3122C40.3399 69.0124 47.5522 66.1279 51.089 64.7665C52.6378 64.1665 55.2962 63.7281 56.9605 63.7281C61.7225 63.7281 71.755 64.005 75.3842 64.005C80.4005 64.005 101.829 72.3122 103.609 73.3276C105.389 74.3429 111.307 74.689 111.307 74.689C113.179 75.0352 114.058 79.9503 114.058 79.9503C115.352 80.8041 115.838 92.5497 115.838 94.0727C115.838 95.5957 110.359 96.1495 110.359 96.1495H106.984C107.215 95.2496 107.331 94.3265 107.331 93.3804C107.331 87.2192 102.315 82.1887 96.1196 82.1887C89.9244 82.1887 84.9082 87.1961 84.9082 93.3804C84.9082 94.3265 85.0238 95.2496 85.2549 96.1495H33.7055C33.9367 95.2496 34.0522 94.3265 34.0522 93.3804C34.0522 87.2192 29.036 82.1887 22.8408 82.1887C16.6457 82.1887 11.6294 87.1961 11.6294 93.3804C11.6294 94.3035 11.745 95.2034 11.9762 96.1034C10.0806 96.0572 2.91455 95.7342 2.91455 92.8958C2.91455 88.996 4.02413 89.3191 4.02413 89.3191H4.04725Z" fill="#E0E0E0"/>
<path d="M114.035 79.9504C115.329 80.8042 115.815 92.5498 115.815 94.0728C115.815 94.3035 115.699 94.5112 115.468 94.6958C115.306 94.8573 115.121 86.7808 115.121 86.7808L114.335 81.5195L112.185 76.6967L111.191 75.4275L110.614 74.5968C111.053 74.6199 111.307 74.6429 111.307 74.6429C113.179 74.9891 114.058 79.9042 114.058 79.9042L114.035 79.9504Z" fill="#D3D3D3"/>
<path d="M111.307 74.6891C112.578 74.9198 105.921 78.7966 105.921 78.7966L95.1718 78.6812L85.2318 77.5043L41.4957 78.1274L15.6517 79.5811L6.40512 82.3041C6.98303 81.2888 7.69964 80.2965 8.57806 79.5119C12.2767 76.1198 35.5548 72.3123 35.5548 72.3123C35.7629 72.1738 35.9709 72.0354 36.179 71.8738C40.9409 68.7586 47.6909 66.0587 51.0659 64.7665C51.3433 64.6742 51.6438 64.5819 51.9674 64.4665C53.3082 64.1665 55.2037 63.7512 56.2902 63.7512C61.0521 63.7512 69.5358 63.4512 73.142 63.4512C83.1513 63.4512 101.806 72.3123 103.586 73.3276C105.366 74.3429 111.284 74.6891 111.284 74.6891H111.307Z" fill="#EAEAEA"/>
<path d="M41.4726 90.9344L43.2063 87.8654C43.2063 87.8654 54.7876 86.7808 68.3569 86.4347C75.3149 86.2501 80.8859 85.0501 80.5854 86.0193C79.7532 88.5115 82.1342 90.9114 82.1342 90.9114H41.4726V90.9344Z" fill="#D3D3D3"/>
<path d="M92.9758 75.4275C92.9758 75.4275 85.2549 65.3434 74.9219 65.3434C74.344 65.3434 73.6274 65.3434 72.8183 65.3434C71.7319 65.3434 70.4605 65.3434 69.0966 65.3434C63.0632 65.3434 54.7183 65.4357 52.0368 66.2433C48.3844 67.351 43.4606 71.1123 41.6575 72.7738L41.4726 72.9353L41.6113 73.1199C41.7038 73.2584 41.7731 73.4199 41.8193 73.6045C42.0043 74.1353 42.2354 74.8275 43.7611 75.1044C46.1421 75.5429 51.4589 75.7736 60.4973 75.7736C73.2807 75.7736 92.5828 75.8659 92.7677 75.889H93.3225L92.9989 75.4506L92.9758 75.4275Z" fill="black"/>
<path d="M12.4847 91.6267C12.4847 91.6267 6.9368 91.6036 5.98903 90.9806C5.98903 90.9806 5.61917 91.9497 5.98903 92.2728C6.35889 92.6189 12.4847 93.8189 12.4847 93.8189V91.6036V91.6267Z" fill="#D3D3D3"/>
<path d="M92.1898 75.3121C90.5717 73.443 83.7755 66.1972 74.9681 66.1972C73.9741 66.1972 72.5872 66.1972 70.969 66.151C68.773 66.128 66.0221 66.0818 63.3638 66.0818C57.3535 66.0818 53.678 66.3126 52.1754 66.7741C48.708 67.8125 44.0616 71.3431 42.1661 73.0276C42.2354 73.1661 42.2817 73.3045 42.3279 73.4199C42.4897 73.9276 42.6515 74.3429 43.8536 74.5737C46.2114 75.0121 51.5051 75.2198 60.4973 75.2198C72.0555 75.2198 88.8842 75.3121 92.1898 75.3121V75.3121Z" fill="#747B81"/>
<path d="M92.1898 75.3121C90.5717 73.443 83.7755 66.1972 74.9681 66.1972C73.9741 66.1972 72.5872 66.1972 70.969 66.151C68.773 66.128 66.0221 66.0818 63.3638 66.0818C57.3535 66.0818 53.678 66.3126 52.1754 66.7741C48.708 67.8125 44.0616 71.3431 42.1661 73.0276C42.2354 73.1661 42.2817 73.3045 42.3279 73.4199C42.4897 73.9276 42.6515 74.3429 43.8536 74.5737C46.2114 75.0121 51.5051 75.2198 60.4973 75.2198C72.0555 75.2198 88.8842 75.3121 92.1898 75.3121V75.3121Z" fill="#747B81"/>
<path d="M92.1898 75.3121C90.5717 73.443 83.7755 66.1972 74.9681 66.1972C73.9741 66.1972 72.5872 66.1972 70.969 66.151C68.773 66.128 66.0221 66.0818 63.3638 66.0818C57.3535 66.0818 53.678 66.3126 52.1754 66.7741C48.708 67.8125 44.0616 71.3431 42.1661 73.0276C42.2354 73.1661 42.2817 73.3045 42.3279 73.4199C42.4897 73.9276 42.6515 74.3429 43.8536 74.5737C46.2114 75.0121 51.5051 75.2198 60.4973 75.2198C72.0555 75.2198 88.8842 75.3121 92.1898 75.3121V75.3121Z" fill="#747B81"/>
<path d="M52.1755 66.751C53.678 66.2895 57.3535 66.0587 63.3638 66.0587C66.0221 66.0587 68.7499 66.1049 70.969 66.128C72.5872 66.151 73.9742 66.1741 74.9682 66.1741C83.7524 66.1741 90.5717 73.4199 92.1898 75.2891H90.7797C87.9133 72.4738 82.1805 67.8817 75.1762 67.8817C74.1822 67.8817 72.7952 67.8817 71.1771 67.8356C68.981 67.8125 66.2302 67.7663 63.5718 67.7663C57.5385 67.7663 53.8861 67.9971 52.3835 68.4355C49.2166 69.4047 45.0556 72.4277 42.9058 74.2276C42.536 73.9968 42.4204 73.6968 42.3048 73.3968C42.2586 73.2584 42.2123 73.1199 42.143 73.0045C44.0616 71.32 48.708 67.8125 52.1523 66.751H52.1755Z" fill="#7A8187"/>
<path d="M43.8536 73.6045C46.2114 74.0429 51.482 74.2506 60.4742 74.2506C71.2233 74.2506 86.5725 74.3198 91.3114 74.3429C91.6813 74.7352 91.9818 75.0813 92.1898 75.3121C88.8842 75.3121 72.0555 75.2198 60.4973 75.2198C51.5051 75.2198 46.2114 75.0121 43.8536 74.5737C42.6515 74.3429 42.4897 73.9275 42.3279 73.4199C42.2817 73.2814 42.2354 73.143 42.1661 73.0276C42.2585 72.9584 42.351 72.8891 42.4435 72.7968C42.6284 73.166 42.9058 73.443 43.8536 73.6276V73.6045Z" fill="#7A8187"/>
<path d="M70.9459 67.4894C72.5641 67.4894 73.951 67.4894 74.945 67.4894C77.6959 67.4894 83.3594 69.8201 84.3534 70.4662C77.5341 70.4662 68.4493 69.7278 60.4511 69.7278C54.0248 69.7278 52.4297 69.7508 49.494 69.6816C50.696 68.874 53.4237 68.0432 55.8972 67.7894C57.3997 67.6279 57.3304 67.4663 63.3406 67.4663C65.999 67.4663 68.7267 67.4663 70.9228 67.4663L70.9459 67.4894Z" fill="#9099A1"/>
<g style="mix-blend-mode:multiply">
<path d="M63.0401 93.9573H82.6428V93.7958C82.6428 88.4884 83.9835 85.65 87.7977 82.9502C92.6521 79.4657 93.623 77.4812 93.5768 76.4428C93.5537 75.7505 93.0914 75.4967 93.0682 75.4967L92.9064 75.7505L92.9758 75.6121L92.9064 75.7505C92.9064 75.7505 93.2301 75.9582 93.2532 76.4659C93.2532 77.2735 92.5828 79.1427 87.6128 82.6963C83.7986 85.4193 82.3423 88.3961 82.3192 93.6573H63.3638C63.41 92.2497 63.7567 82.1887 64.4502 78.7965C64.5889 78.1043 64.9819 76.9505 66.0915 75.589L65.8603 75.4044C64.7045 76.8351 64.2884 78.012 64.1497 78.7504C63.41 82.4194 63.0632 93.7266 63.0401 93.842V94.0035V93.9573Z" fill="#7B7B80"/>
</g>
<g style="mix-blend-mode:multiply">
<path d="M40.6173 93.9573H63.2019V93.6343H40.8484C39.1609 87.2884 36.6875 77.112 37.1961 76.4659C38.5599 75.289 42.2817 72.5892 43.2525 71.9661L43.0676 71.7123C42.0967 72.3584 38.3519 75.0583 36.988 76.2351C36.1558 76.9505 39.5308 89.896 40.571 93.842L40.6173 93.9573V93.9573Z" fill="#7B7B80"/>
</g>
<path d="M67.3398 66.0818L68.3569 75.2429H65.9759L66.0452 66.0818H67.3398Z" fill="#303032"/>
<path d="M65.9759 66.0818H64.8201L64.1497 75.2429H65.9759V66.0818Z" fill="#303032"/>
<path d="M66.4845 65.7818H65.4442V75.4505H66.4845V65.7818Z" fill="black"/>
<path d="M11.9993 96.1496C11.7681 95.2496 11.6525 94.3266 11.6525 93.3805C11.6525 87.2193 16.6688 82.1887 22.8639 82.1887C29.0591 82.1887 34.0754 87.1962 34.0754 93.3805C34.0754 94.3266 33.9598 95.2496 33.7286 96.1496L31.3014 95.7804H14.4265L12.0224 96.1496H11.9993Z" fill="black"/>
<path d="M22.8639 82.2118C23.0026 82.2118 23.1182 82.2118 23.2569 82.2118C17.2467 82.4195 12.4385 87.3577 12.4385 93.3805C12.4385 94.2804 12.5541 95.1804 12.7621 96.0573L11.9993 96.1726C11.7681 95.2727 11.6525 94.3497 11.6525 93.4035C11.6525 87.2423 16.6688 82.2118 22.8639 82.2118V82.2118Z" fill="#613E00"/>
<path d="M22.864 82.2118C22.7484 82.2118 22.6097 82.2118 22.471 82.2118C28.4812 82.4195 33.2894 87.3577 33.2894 93.3805C33.2894 94.2804 33.1738 95.1804 32.9658 96.0573L33.7286 96.1726C33.9598 95.2727 34.0754 94.3497 34.0754 93.4035C34.0754 87.2423 29.0591 82.2118 22.864 82.2118V82.2118Z" fill="#613E00"/>
<path d="M85.2318 96.1496C85.0007 95.2496 84.8851 94.3266 84.8851 93.3805C84.8851 87.2193 89.9013 82.1887 96.0965 82.1887C102.292 82.1887 107.308 87.1962 107.308 93.3805C107.308 94.3266 107.192 95.2496 106.961 96.1496L104.626 95.8035L87.5435 95.5958L85.2549 96.1727L85.2318 96.1496Z" fill="black"/>
<path d="M96.0965 82.2118C96.2121 82.2118 96.3508 82.2118 96.4895 82.2118C90.4792 82.4195 85.671 87.3577 85.671 93.3805C85.671 94.2804 85.7866 95.1804 85.9947 96.0573L85.2318 96.1726C85.0007 95.2727 84.8851 94.3497 84.8851 93.4035C84.8851 87.2423 89.9013 82.2118 96.0965 82.2118V82.2118Z" fill="#613E00"/>
<path d="M96.0965 82.2118C95.9578 82.2118 95.8422 82.2118 95.7035 82.2118C101.691 82.4195 106.522 87.3577 106.522 93.3805C106.522 94.2804 106.406 95.1804 106.198 96.0573L106.961 96.1726C107.192 95.2727 107.308 94.3497 107.308 93.4035C107.308 87.2423 102.292 82.2118 96.0965 82.2118V82.2118Z" fill="#613E00"/>
<path d="M13.8023 93.3805C13.8023 98.3648 17.8477 102.403 22.8408 102.403C27.834 102.403 31.8793 98.3648 31.8793 93.3805C31.8793 88.3961 27.834 84.3348 22.8408 84.3348C17.8477 84.3348 13.8023 88.3961 13.8023 93.3805V93.3805Z" fill="#383836"/>
<path d="M87.0349 93.3805C87.0349 98.3648 91.0802 102.403 96.0734 102.403C101.066 102.403 105.135 98.3648 105.135 93.3805C105.135 88.3961 101.09 84.3348 96.0734 84.3348C91.0571 84.3348 87.0349 88.3961 87.0349 93.3805V93.3805Z" fill="#383836"/>
<path d="M96.0965 100.811C100.188 100.811 103.54 97.4649 103.54 93.3805C103.54 89.2961 100.188 85.9501 96.0965 85.9501C92.0049 85.9501 88.653 89.273 88.653 93.3805C88.653 97.488 91.9818 100.811 96.0965 100.811Z" fill="black"/>
<path d="M88.9073 93.3805C88.9073 97.3264 92.1205 100.534 96.0733 100.534C100.026 100.534 103.239 97.3264 103.239 93.3805C103.239 89.4345 100.026 86.227 96.0733 86.227C92.1205 86.227 88.9073 89.4345 88.9073 93.3805Z" fill="#F4F4F4"/>
<path d="M22.8639 100.811C26.9787 100.811 30.3074 97.4649 30.3074 93.3805C30.3074 89.2961 26.9787 85.9501 22.8639 85.9501C18.7492 85.9501 15.4436 89.273 15.4436 93.3805C15.4436 97.488 18.7724 100.811 22.8639 100.811V100.811Z" fill="black"/>
<path d="M15.6979 93.3805C15.6979 97.3264 18.911 100.534 22.8639 100.534C26.8168 100.534 30.03 97.3264 30.03 93.3805C30.03 89.4345 26.8168 86.227 22.8639 86.227C18.911 86.227 15.6979 89.4345 15.6979 93.3805Z" fill="#F4F4F4"/>
<path d="M96.0965 94.165C96.5357 94.165 96.8824 93.8189 96.8824 93.3805C96.8824 92.942 96.5357 92.5959 96.0965 92.5959C95.6573 92.5959 95.3105 92.942 95.3105 93.3805C95.3105 93.8189 95.6573 94.165 96.0965 94.165Z" fill="black"/>
<path d="M98.2463 88.0961L96.4895 91.8344C96.2814 92.2728 95.9347 92.2728 95.7266 91.8344L93.9698 88.0961C93.7617 87.6577 93.9698 87.1269 94.4321 87.0115C95.5648 86.7115 96.7206 86.7346 97.784 87.0115C98.2463 87.1269 98.4544 87.6577 98.2463 88.0961V88.0961Z" fill="black"/>
<path d="M101.737 92.5958L97.6222 92.942C97.1367 92.9881 96.9749 92.6881 97.2523 92.2959L99.6102 88.9037C99.8876 88.5114 100.442 88.4191 100.789 88.7653C101.621 89.596 102.176 90.6113 102.477 91.6728C102.592 92.1343 102.245 92.5728 101.76 92.6189L101.737 92.5958Z" fill="black"/>
<path d="M99.6102 97.8802L97.2523 94.4881C96.9749 94.0958 97.1367 93.7958 97.6222 93.842L101.737 94.1881C102.222 94.2342 102.569 94.6496 102.453 95.1342C102.153 96.2649 101.552 97.2341 100.766 98.0187C100.419 98.3648 99.8645 98.2956 99.5871 97.8802H99.6102Z" fill="black"/>
<path d="M93.9467 98.6648L95.7035 94.9496C95.9116 94.488 96.2583 94.488 96.4663 94.9496L98.2232 98.6648C98.4312 99.1032 98.2232 99.6339 97.7609 99.7493C96.6282 100.049 95.4723 100.026 94.409 99.7493C93.9236 99.6339 93.7386 99.1032 93.9467 98.6648V98.6648Z" fill="black"/>
<path d="M90.433 94.165L94.5477 93.8189C95.0331 93.7727 95.2181 94.0727 94.9407 94.465L92.5828 97.8572C92.3054 98.2725 91.7506 98.3418 91.4039 97.9956C90.5717 97.1649 90.0169 96.1726 89.7164 95.1111C89.6008 94.6496 89.9475 94.1881 90.433 94.165V94.165Z" fill="black"/>
<path d="M92.5828 88.8807L94.9407 92.2728C95.2181 92.6651 95.0331 92.9651 94.5477 92.9189L90.433 92.5728C89.9475 92.5267 89.6008 92.1113 89.7164 91.6267C90.0169 90.496 90.6179 89.5037 91.4039 88.7192C91.7506 88.373 92.3054 88.4653 92.5828 88.8576V88.8807Z" fill="black"/>
<path d="M22.8639 94.165C23.3032 94.165 23.6499 93.8189 23.6499 93.3805C23.6499 92.942 23.3032 92.5959 22.8639 92.5959C22.4247 92.5959 22.078 92.942 22.078 93.3805C22.078 93.8189 22.4247 94.165 22.8639 94.165Z" fill="black"/>
<path d="M25.0138 88.0961L23.2569 91.8344C23.0489 92.2728 22.7021 92.2728 22.4941 91.8344L20.7372 88.0961C20.5292 87.6577 20.7372 87.1269 21.1996 87.0115C22.3323 86.7115 23.4881 86.7346 24.5746 87.0115C25.0369 87.1269 25.2449 87.6577 25.0369 88.0961H25.0138Z" fill="black"/>
<path d="M28.5274 92.5958L24.4127 92.942C23.9273 92.9881 23.7424 92.6881 24.0429 92.2959L26.4007 88.9037C26.6781 88.5114 27.2329 88.4191 27.5797 88.7653C28.4119 89.596 28.9667 90.6113 29.2672 91.6728C29.4059 92.1343 29.036 92.5728 28.5506 92.6189L28.5274 92.5958Z" fill="black"/>
<path d="M26.3776 97.8802L24.0198 94.4881C23.7424 94.0958 23.9042 93.7958 24.3896 93.842L28.5043 94.1881C28.9898 94.2342 29.3365 94.6496 29.2209 95.1342C28.9204 96.2649 28.3194 97.2341 27.5334 98.0187C27.1867 98.3648 26.6319 98.2956 26.3545 97.8802H26.3776Z" fill="black"/>
<path d="M20.7141 98.6648L22.471 94.9496C22.679 94.488 23.0258 94.488 23.2338 94.9496L24.9906 98.6648C25.1987 99.1032 24.9906 99.6339 24.5283 99.7493C23.3956 100.049 22.2398 100.026 21.1533 99.7493C20.691 99.6339 20.483 99.1032 20.691 98.6648H20.7141Z" fill="black"/>
<path d="M17.2004 94.165L21.3151 93.8189C21.8006 93.7727 21.9855 94.0727 21.685 94.465L19.3271 97.8572C19.0497 98.2725 18.495 98.3418 18.1482 97.9956C17.316 97.1649 16.7612 96.1726 16.4607 95.1111C16.3451 94.6496 16.6919 94.1881 17.1773 94.165H17.2004Z" fill="black"/>
<path d="M19.3503 88.8807L21.7081 92.2728C21.9855 92.6651 21.8237 92.9651 21.3383 92.9189L17.2236 92.5728C16.7381 92.5267 16.3914 92.1113 16.507 91.6267C16.8075 90.496 17.4085 89.5037 18.1944 88.7192C18.5412 88.373 19.0729 88.4653 19.3734 88.8576L19.3503 88.8807Z" fill="black"/>
<path d="M109.897 78.4504C111.423 77.8505 112.786 76.0967 112.786 76.0967L113.064 76.6736C113.711 78.1735 114.035 79.9504 114.035 79.9504C114.405 80.1811 114.705 81.2888 114.936 82.7887C114.405 82.9733 113.642 83.0425 112.763 82.5348C111.03 81.5426 108.325 79.0273 109.874 78.4504H109.897Z" fill="#C22214"/>
<path d="M113.087 76.7198C113.734 78.1966 114.035 79.9504 114.035 79.9504C114.358 80.1581 114.659 81.1273 114.89 82.4426C113.804 82.0964 112.209 80.9426 111.469 80.2273C110.567 79.3504 112.185 77.6197 112.185 77.6197L113.087 76.7429V76.7198Z" fill="#FE4800"/>
<path d="M33.7055 96.1496C33.8211 95.7111 33.9135 95.2496 33.9598 94.7881L35.6473 94.2804H83.1513L85.2087 96.1496H33.7055Z" fill="#D3D3D3"/>
<path d="M84.885 92.0421C84.885 92.0421 84.885 91.9036 84.9544 91.6498C85.0006 91.396 85.0237 91.0267 85.1624 90.5652C85.2087 90.3345 85.278 90.0806 85.3474 89.8037C85.4398 89.5268 85.5323 89.2499 85.6479 88.9269C85.879 88.3038 86.2027 87.6577 86.6188 86.9885C87.058 86.3193 87.5665 85.627 88.1907 85.004C88.7917 84.3578 89.5777 83.781 90.3636 83.2502C91.1958 82.7195 92.1205 82.3733 93.0682 82.0733C94.0391 81.7964 95.0562 81.658 96.0965 81.658C97.1598 81.658 98.1307 81.7964 99.1016 82.0733C100.072 82.3733 100.997 82.7425 101.806 83.2733C102.615 83.804 103.378 84.3578 104.002 85.004C104.626 85.6501 105.135 86.3193 105.574 86.9885C105.99 87.6808 106.291 88.3269 106.545 88.9269C106.661 89.2268 106.753 89.5268 106.846 89.8037C106.915 90.0806 106.984 90.3345 107.03 90.5652C107.169 91.0267 107.192 91.396 107.239 91.6498C107.285 91.9036 107.308 92.0421 107.308 92.0421C107.308 92.0421 107.308 91.9036 107.331 91.6498C107.331 91.396 107.4 91.0037 107.331 90.5191C107.331 90.2652 107.285 90.0114 107.285 89.7114C107.239 89.4114 107.169 89.0884 107.123 88.7653C106.961 88.0961 106.73 87.3346 106.383 86.5731C106.013 85.7885 105.551 84.9809 104.904 84.2194C104.28 83.4348 103.494 82.7195 102.592 82.0964C101.691 81.4734 100.673 80.9657 99.5639 80.6196C98.4774 80.2734 97.2292 80.1119 96.1196 80.0888C94.9407 80.1119 93.7617 80.2965 92.6521 80.6196C91.5426 80.9888 90.5254 81.4734 89.6239 82.0964C88.7224 82.7195 87.9364 83.4348 87.3354 84.2194C86.6881 84.9809 86.2258 85.8116 85.8328 86.5731C85.4861 87.3577 85.2318 88.0961 85.0931 88.7653C85.0237 89.1115 84.9775 89.4114 84.9082 89.7114C84.9082 90.0114 84.885 90.2883 84.8619 90.5191C84.8157 91.0037 84.8619 91.3729 84.8619 91.6498C84.8619 91.9036 84.8619 92.0421 84.8619 92.0421H84.885Z" fill="#D3D3D3"/>
<path d="M4.04725 89.3191C4.04725 89.3191 4.87944 82.9041 8.60117 79.5119C8.97103 79.1658 9.57206 78.7966 10.3118 78.4504C8.53182 81.4965 5.59605 86.6654 5.27242 88.0731C4.81009 90.1037 2.9839 91.8575 2.9839 91.8575C3.14572 89.0422 4.04725 89.2961 4.04725 89.2961V89.3191Z" fill="#D3D3D3"/>
<path d="M11.6525 92.0421C11.6525 92.0421 11.6525 91.9036 11.7219 91.6498C11.7219 91.5344 11.7681 91.3729 11.7912 91.1883C11.7912 91.096 11.8143 90.9806 11.8375 90.8883C11.8375 90.796 11.8837 90.6806 11.9299 90.5652C11.9993 90.3345 12.0455 90.0807 12.1149 89.8037C12.2073 89.5268 12.2998 89.2499 12.4154 88.9269C12.5309 88.6269 12.6928 88.3038 12.8315 87.9808C12.9702 87.6346 13.1782 87.3346 13.3863 86.9885C13.4787 86.827 13.6174 86.6654 13.7099 86.4808C13.8255 86.3193 13.941 86.1347 14.0797 85.9732C14.3571 85.6501 14.6114 85.304 14.935 85.004C15.5361 84.3348 16.2989 83.781 17.1311 83.2733C17.9633 82.7656 18.8648 82.3733 19.8357 82.0734C20.8066 81.8195 21.8237 81.6811 22.8408 81.658L23.6268 81.7041C23.7655 81.7041 23.9042 81.7041 24.0429 81.7041L24.4127 81.7734L24.7595 81.8195H24.9444L25.1293 81.8888C25.3836 81.9349 25.6148 82.0041 25.8691 82.0503C26.84 82.3503 27.7415 82.7426 28.5737 83.2502C29.3828 83.7579 30.1456 84.3348 30.7466 84.9809C31.0702 85.2809 31.3245 85.627 31.6019 85.9501C31.7406 86.1116 31.8331 86.2962 31.9718 86.4578C32.0874 86.6424 32.2029 86.8039 32.3185 86.9654C32.5035 87.3116 32.7115 87.6346 32.8733 87.9577C33.012 88.2807 33.1738 88.6038 33.2894 88.9038C33.405 89.2038 33.4975 89.5038 33.5899 89.7807C33.6593 90.0576 33.7055 90.3114 33.7749 90.5422C33.7749 90.6576 33.8211 90.7729 33.8442 90.8652C33.8442 90.9575 33.8673 91.0729 33.8904 91.1652C33.9136 91.3267 33.9367 91.5113 33.9598 91.6267C34.006 91.8806 34.0291 92.019 34.0291 92.019C34.0291 92.019 34.0291 91.8806 34.0523 91.6267C34.0523 91.4883 34.0523 91.3267 34.0754 91.1421C34.0754 91.0498 34.0754 90.9575 34.0754 90.8422C34.0754 90.7268 34.0754 90.6114 34.0754 90.496C34.0754 90.2422 34.0754 89.9883 34.0291 89.6884C33.9829 89.3884 33.9367 89.0653 33.8673 88.7423C33.798 88.3961 33.6824 88.05 33.5899 87.6808C33.5437 87.4962 33.4512 87.3116 33.3819 87.1269C33.3125 86.9423 33.2201 86.7347 33.1507 86.5501C33.0582 86.3654 32.9427 86.1578 32.8502 85.9732C32.7346 85.7886 32.6422 85.5578 32.5266 85.3732C32.2723 85.004 32.018 84.5886 31.6713 84.1963C31.0471 83.4118 30.2612 82.6964 29.3596 82.0734C29.1285 81.9349 28.8973 81.7734 28.6661 81.6349C28.435 81.4965 28.1807 81.3811 27.9264 81.2426L27.5334 81.058L27.1405 80.9196C26.8631 80.8273 26.6088 80.7119 26.3314 80.6196C26.054 80.5504 25.7766 80.4811 25.4992 80.3888L25.2912 80.3427L25.06 80.2965L24.6208 80.2273L24.1585 80.1581C23.9966 80.135 23.8811 80.1581 23.7424 80.1119L22.8871 80.0658C21.7081 80.0888 20.5292 80.2504 19.4196 80.5965C19.1422 80.6657 18.8648 80.7811 18.6105 80.8965L18.2176 81.0349L17.8246 81.2196C17.5703 81.358 17.316 81.4734 17.0849 81.6118C16.8537 81.7503 16.6225 81.9118 16.3914 82.0503C15.513 82.6964 14.7039 83.3887 14.0797 84.1733C13.7561 84.5425 13.5018 84.9578 13.2244 85.3501C13.0857 85.5347 12.9933 85.7655 12.8777 85.9501C12.7852 86.1347 12.6696 86.3424 12.5772 86.527C12.4847 86.7347 12.4154 86.9193 12.346 87.1039C12.2767 87.2885 12.1842 87.4731 12.138 87.6577C12.0455 88.0269 11.9299 88.373 11.8375 88.7192C11.7912 89.0653 11.7219 89.3653 11.6756 89.6653C11.6525 89.9653 11.6294 90.2422 11.6294 90.4729C11.6294 90.5883 11.6294 90.7037 11.6294 90.8191C11.6294 90.9114 11.6294 91.0268 11.6294 91.1191C11.6294 91.3037 11.6294 91.4652 11.6525 91.6037C11.6525 91.8575 11.6756 91.9959 11.6756 91.9959L11.6525 92.0421Z" fill="#D3D3D3"/>
<g style="mix-blend-mode:multiply">
<path d="M109.435 86.2039C112.001 86.2039 115.144 84.8194 115.26 84.7732L115.144 84.4963C115.144 84.4963 111.931 85.9039 109.435 85.9039C106.938 85.9039 104.418 85.7424 104.395 85.7424V86.0424C104.395 86.0424 106.892 86.227 109.435 86.227V86.2039Z" fill="#7B7B80"/>
</g>
<path d="M17.0386 79.4888C17.0386 79.4888 16.4376 79.3734 15.6285 80.1811C14.0335 81.7733 11.5832 84.8655 11.1208 84.8424C10.4274 84.7963 7.46846 83.5963 5.80409 84.3347C5.20306 84.6116 7.12172 81.8656 7.12172 81.8656L15.8366 79.1427L17.0155 79.4657L17.0386 79.4888Z" fill="#D3D3D3"/>
<path d="M115.283 85.327C115.376 86.2962 115.537 88.0269 115.584 88.973L110.983 89.1807L107.909 88.9268C107.909 88.9268 108.903 88.2115 110.313 88.1653C112.024 88.0961 114.081 87.8653 114.89 87.15C115.445 86.6423 115.283 85.327 115.283 85.327V85.327Z" fill="#D3D3D3"/>
<path d="M87.3123 70.8123C87.3123 70.8123 87.7977 75.0121 87.7515 75.3352C87.4741 75.3352 86.3183 75.3352 86.3183 75.3352V70.097L87.3123 70.8123Z" fill="#303032"/>
<g style="mix-blend-mode:multiply">
<path d="M12.4616 89.3422L12.5078 89.0422C12.5078 89.0422 9.13285 88.5345 7.02927 87.9346C5.01815 87.3808 4.92568 86.2731 4.92568 86.227H4.62517C4.62517 86.227 4.71763 87.6115 6.95992 88.2346C9.10974 88.8576 12.4616 89.3422 12.4847 89.3422H12.4616Z" fill="#7B7B80"/>
</g>
<path d="M35.6473 72.243C35.8322 72.1276 36.0171 71.9892 36.2021 71.8738C39.1147 69.9585 42.744 68.2278 45.934 66.8664L49.3321 65.4587L51.089 64.7665L51.9905 64.4665L36.78 72.7507L35.6704 72.243H35.6473Z" fill="#747B81"/>
<path d="M35.6473 72.2431L35.8553 72.0815L37.0574 72.5892L36.7569 72.7507L35.6473 72.2431Z" fill="#383836"/>
<g style="mix-blend-mode:color-burn">
<path d="M8.57805 79.5119C12.2767 76.1198 35.5548 72.3123 35.5548 72.3123C35.601 72.2892 35.6473 72.2661 35.6704 72.2431C36.5026 72.6354 36.8493 72.7969 36.8493 72.7969C36.8493 72.7969 13.0164 78.1274 10.751 79.5812C9.59517 80.3427 8.46247 80.5042 7.6534 80.4811C7.93079 80.135 8.25442 79.8119 8.57805 79.5119V79.5119Z" fill="#FCF5D6"/>
</g>
<g style="mix-blend-mode:color-burn">
<path d="M103.586 73.3276C105.366 74.343 111.284 74.6891 111.284 74.6891C111.769 74.7814 111.076 75.4275 110.036 76.1659C108.533 75.6121 97.4835 72.8892 96.5126 72.2431C96.9056 72.4046 103.424 73.2584 103.563 73.3507L103.586 73.3276Z" fill="#FCF5D6"/>
</g>
<path d="M103.84 73.4661C103.84 73.4661 97.784 72.9353 96.5357 72.2431C87.4047 66.7972 85.9253 66.4741 84.2609 65.5511C92.4441 68.0433 102.245 72.5661 103.609 73.3507C103.679 73.3969 103.771 73.443 103.84 73.4661V73.4661Z" fill="#747B81"/>
<path d="M2.93767 92.8959C2.93767 91.8805 3.00702 91.1421 3.1226 90.6114L3.37688 89.8268L4.27841 90.9575L3.81609 93.3574L2.96078 93.1035C2.96078 93.1035 2.96078 92.9651 2.96078 92.8728L2.93767 92.8959Z" fill="#383836"/>
<path d="M8.32377 80.4811C6.9599 81.8426 5.38799 86.227 5.38799 86.227H4.74074C5.36488 84.1501 6.52069 81.4503 8.48558 79.6042C8.85544 79.5581 9.17907 79.6504 8.34689 80.4811H8.32377Z" fill="#383836"/>
<path d="M7.21419 82.8807C7.72275 81.9346 9.01727 79.9963 10.751 79.5809C13.0395 79.0501 15.6517 79.5809 15.6517 79.5809C15.6517 79.5809 12.2767 83.4807 11.3058 83.8961C10.5892 84.196 8.48559 83.8268 7.49159 83.5961C7.19108 83.5268 7.07549 83.1346 7.21419 82.8807V82.8807Z" fill="#C9C8D6"/>
<path d="M7.21419 82.9964C7.21419 83.7579 9.43336 83.6656 9.61829 83.6656C9.80322 83.6656 9.96503 83.0656 9.96503 82.3041C9.96503 81.5426 9.82633 80.9426 9.61829 80.9426C9.43336 80.9426 7.21419 82.258 7.21419 82.9964V82.9964Z" fill="white"/>
<path d="M11.6525 80.158C11.6525 80.158 13.8023 78.7966 12.4847 80.8503C11.9762 81.0349 9.61829 82.6964 9.61829 82.6964V80.9426L11.6525 80.158V80.158Z" fill="white"/>
<path d="M11.6525 81.2195C10.0575 81.681 8.30066 82.2579 7.32977 82.6271C7.9308 81.5887 9.15596 79.9503 10.751 79.5811C12.2998 79.2119 13.9873 79.3504 14.935 79.4657C14.2416 80.0196 13.0626 80.8041 11.6525 81.2195Z" fill="#E8E2E4"/>
<path d="M33.7055 88.073C33.7055 88.073 30.4923 82.2579 34.0523 79.8119C34.0523 79.8119 26.1696 79.9503 22.4016 80.0657L30.7697 83.4809L33.6824 88.073H33.7055Z" fill="#D3D3D3"/>
<path d="M43.7843 71.5738C43.5994 72.2199 43.2295 73.8353 43.114 75.6121C43.114 75.7736 42.9753 75.889 42.8134 75.8428C42.0044 75.6582 39.8083 74.989 40.34 73.2584C40.8486 71.5508 42.8134 71.32 43.5763 71.2969C43.7381 71.2969 43.8306 71.4354 43.7843 71.5738Z" fill="#D3D3D3"/>
<path d="M43.5762 71.2969C43.738 71.2969 43.8305 71.4354 43.7842 71.5738C43.6455 72.1046 43.345 73.2814 43.2063 74.6891C42.0736 74.5506 41.0565 74.2275 40.2474 73.7891C40.2474 73.6276 40.2474 73.466 40.3168 73.2814C40.8253 71.5738 42.7902 71.3431 43.5531 71.32L43.5762 71.2969Z" fill="#F9F9F9"/>
<path d="M40.8253 72.3584C41.6113 71.4584 42.9752 71.32 43.5531 71.2969C43.7149 71.2969 43.8074 71.4354 43.7611 71.5738C43.7149 71.7123 43.6687 71.8969 43.6224 72.1276C42.952 72.0123 41.6575 71.8738 40.8022 72.3584H40.8253Z" fill="#E0E0E0"/>
<g style="mix-blend-mode:multiply">
<path d="M81.0708 81.2657C81.0708 81.6349 82.1804 81.9118 83.5443 81.9118C84.9082 81.9118 86.0177 81.6349 86.0177 81.2657C86.0177 80.8965 84.9082 80.6196 83.5443 80.6196C82.1804 80.6196 81.0708 80.9195 81.0708 81.2657Z" fill="#B7B7B7"/>
</g>
<path d="M81.3714 80.9426H85.671C85.879 81.0349 85.9946 81.1503 85.9946 81.2657C85.9946 81.3811 85.879 81.4964 85.671 81.5887H81.3714C81.1864 81.4964 81.0477 81.3811 81.0477 81.2657C81.0477 81.1503 81.1633 81.0349 81.3714 80.9426Z" fill="#D6D6D6"/>
<path d="M57.3304 81.2657C57.3304 81.6349 58.4169 81.9118 59.8038 81.9118C61.1908 81.9118 62.2542 81.6349 62.2542 81.2657C62.2542 80.8964 61.1677 80.6195 59.8038 80.6195C58.44 80.6195 57.3304 80.9195 57.3304 81.2657Z" fill="#B7B7B7"/>
<path d="M57.654 80.9426H61.9305C62.1386 81.0349 62.2542 81.1503 62.2542 81.2657C62.2542 81.3811 62.1386 81.4964 61.9305 81.5887H57.654C57.446 81.4964 57.3304 81.3811 57.3304 81.2657C57.3304 81.1503 57.446 81.0349 57.654 80.9426Z" fill="#D6D6D6"/>
<g style="mix-blend-mode:color-burn">
<path d="M46.9512 80.5042V81.1503H45.9803V83.9886H45.1712V81.1503H44.1772V80.5042H46.9743H46.9512Z" fill="#FCF5D6"/>
<path d="M50.1412 83.9886H49.5171C49.5171 83.9886 49.4015 83.9886 49.3553 83.9424C49.309 83.9194 49.2628 83.8732 49.2628 83.8271L49.0547 83.204H47.7371L47.5291 83.8271C47.5291 83.8271 47.4828 83.9194 47.4366 83.9424C47.3904 83.9886 47.3441 84.0117 47.2748 84.0117H46.6275L47.9914 80.5272H48.8236L50.1874 84.0117L50.1412 83.9886ZM47.8989 82.6502H48.8467L48.5231 81.681C48.5231 81.681 48.4768 81.5426 48.4537 81.4733C48.4306 81.4041 48.3844 81.3118 48.3613 81.2195C48.3381 81.3118 48.315 81.4041 48.2919 81.4964C48.2457 81.5887 48.2226 81.6349 48.1994 81.7041L47.8758 82.6502H47.8989Z" fill="#FCF5D6"/>
<path d="M51.297 82.1887L50.2106 80.4811H51.0196C51.0196 80.4811 51.1121 80.4811 51.1352 80.4811C51.1352 80.4811 51.1814 80.5041 51.2046 80.5503L51.898 81.7272C51.898 81.7272 51.898 81.681 51.9212 81.6579C51.9212 81.6579 51.9212 81.6118 51.9443 81.5887L52.5453 80.5503C52.5453 80.5503 52.6378 80.458 52.7071 80.458H53.4931L52.4066 82.1194L53.5162 83.9655H52.7071C52.7071 83.9655 52.6147 83.9655 52.5915 83.9193C52.5684 83.8963 52.5453 83.8501 52.5222 83.827L51.8287 82.604C51.8287 82.604 51.8287 82.6733 51.7825 82.6963L51.1352 83.827C51.1352 83.827 51.089 83.8963 51.0427 83.9193C51.0196 83.9424 50.9734 83.9655 50.9272 83.9655H50.1643L51.297 82.1656V82.1887Z" fill="#FCF5D6"/>
<path d="M54.7414 83.9886H53.9092V80.5042H54.7414V83.9886Z" fill="#FCF5D6"/>
</g>
<path d="M11.0637 66.0283L9.1801 65.4543L15.4059 44.4543L58.7288 43.8803L65.5495 21.8709H90.2743V23.8501H67.0167L60.1961 45.8398L16.893 46.4138L11.0637 66.0283Z" fill="#FF2F00"/>
<path style="mix-blend-mode:multiply" d="M15.4654 72.9359C15.4654 74.0443 12.1939 74.935 8.1689 74.935C4.14393 74.935 0.872406 74.0443 0.872406 72.9359C0.872406 71.8275 4.14393 70.9369 8.1689 70.9369C12.1939 70.9369 15.4654 71.8275 15.4654 72.9359V72.9359Z" fill="url(#paint0_radial_201_364)"/>
<path style="mix-blend-mode:multiply" d="M12.8283 72.9359C12.8283 73.6484 10.7465 74.2026 8.1689 74.2026C5.59133 74.2026 3.48962 73.6287 3.48962 72.9359C3.48962 72.2432 5.59133 71.6494 8.1689 71.6494C10.7465 71.6494 12.8283 72.2234 12.8283 72.9359V72.9359Z" fill="url(#paint1_radial_201_364)"/>
<path d="M9.10079 72.3223C8.58528 73.0745 7.71287 73.0745 7.19736 72.3223C5.03617 69.2545 0 61.6739 0 58.131C0 53.6381 3.64825 50.016 8.14907 50.016C12.6499 50.016 16.2981 53.6381 16.2981 58.131C16.2981 61.6541 11.262 69.2347 9.10079 72.3223V72.3223Z" fill="url(#paint2_radial_201_364)"/>
<path style="mix-blend-mode:color-burn" d="M9.10079 72.3223C8.58528 73.0745 7.71287 73.0745 7.19736 72.3223C5.03617 69.2545 0 61.6739 0 58.131C0 53.6381 3.64825 50.016 8.14907 50.016C12.6499 50.016 16.2981 53.6381 16.2981 58.131C16.2981 61.6541 11.262 69.2347 9.10079 72.3223V72.3223Z" fill="url(#paint3_radial_201_364)"/>
<path style="mix-blend-mode:screen" d="M8.10943 51.9359C10.806 51.9359 13.3042 52.8464 15.3464 54.3308C13.9783 51.7578 11.262 49.9962 8.14908 49.9962C5.03617 49.9962 2.3793 51.7182 0.991379 54.2319C3.01378 52.787 5.47238 51.9161 8.10943 51.9161V51.9359Z" fill="url(#paint4_linear_201_364)"/>
<g style="mix-blend-mode:screen">
<path d="M0.832752 58.131C0.832752 58.131 0.832752 58.032 0.832752 57.8737C0.832752 57.7945 0.832752 57.6956 0.832752 57.5768C0.832752 57.5174 0.832752 57.4383 0.832752 57.3789C0.832752 57.3195 0.832752 57.2403 0.872407 57.1612C0.872407 57.0028 0.912062 56.8247 0.931889 56.6466C0.971544 56.4486 1.03103 56.2507 1.07068 56.0528C1.13016 55.8351 1.20947 55.6173 1.28878 55.3798C1.32844 55.2611 1.38792 55.1423 1.4474 55.0236C1.50688 54.9048 1.56637 54.7861 1.60602 54.6673C1.6655 54.5485 1.74481 54.4298 1.82412 54.311C1.90343 54.1923 1.96292 54.0537 2.06205 53.935C2.2405 53.6975 2.39912 53.4402 2.61722 53.2224C3.01377 52.7276 3.52928 52.312 4.08445 51.9161C4.22324 51.8369 4.38186 51.738 4.52065 51.639C4.65945 51.5599 4.83789 51.4807 4.99651 51.4015L5.23444 51.2828L5.47237 51.1838C5.65082 51.1244 5.80944 51.0452 5.98788 51.0057C6.16633 50.9661 6.34478 50.9265 6.5034 50.8671L6.64219 50.8275H6.76115L7.03874 50.7681C7.21718 50.7484 7.39563 50.7088 7.57408 50.7088H8.12925C8.82321 50.7088 9.57665 50.7879 10.2706 51.0057C10.4491 51.065 10.6077 51.1244 10.7861 51.1838L11.0439 51.2828L11.2818 51.4015C11.4404 51.4807 11.599 51.5599 11.7577 51.639C11.9163 51.738 12.0551 51.8172 12.1939 51.9161C12.749 52.312 13.2645 52.7276 13.6611 53.2224C13.8792 53.4402 14.0378 53.7173 14.2163 53.935C14.2956 54.0537 14.3551 54.1923 14.4344 54.311C14.5137 54.4298 14.593 54.5485 14.6326 54.6673C14.6921 54.7861 14.7516 54.9048 14.8111 55.0236C14.8706 55.1423 14.9102 55.2611 14.9499 55.3798C15.0292 55.6173 15.1283 55.8351 15.168 56.0528C15.2076 56.2705 15.2671 56.4684 15.3068 56.6466C15.3464 56.8247 15.3464 57.0028 15.3861 57.1612C15.3861 57.2403 15.3861 57.3195 15.4059 57.3789C15.4059 57.4383 15.4059 57.5174 15.4059 57.5768C15.4059 57.6956 15.4059 57.7945 15.4059 57.8737V58.131C15.4059 58.131 15.4059 58.032 15.3861 57.8737C15.3861 57.7945 15.3861 57.6956 15.3663 57.5768C15.3663 57.5174 15.3663 57.4581 15.3464 57.3789C15.3464 57.3195 15.3266 57.2403 15.3068 57.1612C15.2671 57.0028 15.2473 56.8445 15.2076 56.6664C15.168 56.4882 15.1085 56.2903 15.049 56.0726C14.9895 55.8747 14.8904 55.6569 14.8111 55.4392C14.7318 55.2215 14.593 54.984 14.474 54.7465C14.3947 54.6277 14.3352 54.5288 14.2559 54.41C14.1766 54.2912 14.1171 54.1725 14.018 54.0537C13.8395 53.836 13.6809 53.5787 13.443 53.3808C13.0464 52.9255 12.5309 52.5297 11.9956 52.1536C11.4404 51.7974 10.8059 51.5203 10.1516 51.3025C9.47751 51.1046 8.80338 51.0057 8.06976 51.0057C7.3758 51.0057 6.66202 51.1046 6.00771 51.3025C5.35341 51.5203 4.71893 51.7776 4.16376 52.1536C3.60859 52.5099 3.11291 52.9058 2.69653 53.3808C2.47843 53.5985 2.31981 53.836 2.14136 54.0537C2.04223 54.1725 1.98274 54.2912 1.90343 54.41C1.82412 54.5288 1.74481 54.6277 1.68533 54.7465C1.58619 54.984 1.4474 55.2215 1.34827 55.4392C1.26896 55.6767 1.16982 55.8747 1.11034 56.0924C1.05085 56.3101 0.991371 56.508 0.951717 56.6861C0.912062 56.8643 0.892234 57.0424 0.852579 57.181C0.852579 57.2601 0.812925 57.3393 0.812925 57.3987C0.812925 57.4779 0.812925 57.5372 0.812925 57.5966C0.812925 57.7154 0.812925 57.8143 0.793097 57.8935C0.793097 58.0716 0.77327 58.1508 0.77327 58.1508L0.832752 58.131Z" fill="#59564B"/>
</g>
<path style="mix-blend-mode:multiply" d="M14.4939 58.3289C14.4939 61.8322 11.6387 64.6626 8.14907 64.6626C4.65945 64.6626 1.78447 61.8322 1.78447 58.3289C1.78447 54.8256 4.63962 51.9953 8.14907 51.9953C11.6585 51.9953 14.4939 54.8256 14.4939 58.3289V58.3289Z" fill="url(#paint5_linear_201_364)"/>
<path d="M13.8792 58.3289C13.8792 61.4958 11.3215 64.049 8.14907 64.049C4.97668 64.049 2.41895 61.4958 2.41895 58.3289C2.41895 55.1621 4.97668 52.6089 8.14907 52.6089C11.3215 52.6089 13.8792 55.1621 13.8792 58.3289Z" fill="#B8B8B8"/>
<path d="M13.8594 58.3289C13.8594 61.4958 11.3016 64.0292 8.12925 64.0292C4.95686 64.0292 2.39912 61.476 2.39912 58.3289C2.39912 55.1819 4.95686 52.6089 8.12925 52.6089C11.3016 52.6089 13.8594 55.1621 13.8594 58.3289V58.3289Z" fill="#B9B9B9"/>
<path d="M13.8594 58.3289C13.8594 61.476 11.3016 64.0292 8.14908 64.0292C4.99652 64.0292 2.43878 61.476 2.43878 58.3289C2.43878 55.1819 4.99652 52.6287 8.14908 52.6287C11.3016 52.6287 13.8594 55.1819 13.8594 58.3289V58.3289Z" fill="#BABABA"/>
<path d="M13.8594 58.3289C13.8594 61.476 11.3016 64.0292 8.14908 64.0292C4.99652 64.0292 2.43878 61.476 2.43878 58.3289C2.43878 55.1819 4.99652 52.6287 8.14908 52.6287C11.3016 52.6287 13.8594 55.1819 13.8594 58.3289V58.3289Z" fill="#BBBBBB"/>
<path d="M13.8396 58.3289C13.8396 61.476 11.2818 64.0292 8.14908 64.0292C5.01635 64.0292 2.43878 61.476 2.43878 58.3289C2.43878 55.1819 4.99652 52.6287 8.14908 52.6287C11.3016 52.6287 13.8396 55.1819 13.8396 58.3289V58.3289Z" fill="#BCBCBC"/>
<path d="M13.8395 58.3487C13.8395 61.476 11.2818 64.0292 8.14907 64.0292C5.01634 64.0292 2.4586 61.476 2.4586 58.3487C2.4586 55.2215 5.01634 52.6682 8.14907 52.6682C11.2818 52.6682 13.8395 55.2215 13.8395 58.3487Z" fill="#BDBDBD"/>
<path d="M13.8197 58.3487C13.8197 61.476 11.2818 64.0292 8.12925 64.0292C4.97669 64.0292 2.43878 61.476 2.43878 58.3487C2.43878 55.2215 4.99652 52.6682 8.12925 52.6682C11.262 52.6682 13.8197 55.2017 13.8197 58.3487Z" fill="#BEBEBE"/>
<path d="M13.8197 58.3487C13.8197 61.476 11.2818 64.0292 8.12925 64.0292C4.97669 64.0292 2.43878 61.476 2.43878 58.3487C2.43878 55.2215 4.97669 52.6682 8.12925 52.6682C11.2818 52.6682 13.8197 55.2017 13.8197 58.3487Z" fill="#BFBFBF"/>
<path d="M13.8197 58.3487C13.8197 61.476 11.2818 64.0094 8.14908 64.0094C5.01635 64.0094 2.47844 61.476 2.47844 58.3487C2.47844 55.2215 5.01635 52.688 8.14908 52.688C11.2818 52.688 13.8197 55.2215 13.8197 58.3487V58.3487Z" fill="#C0C0C0"/>
<path d="M13.8197 58.3685C13.8197 61.4958 11.2818 64.0292 8.14908 64.0292C5.01635 64.0292 2.47844 61.4958 2.47844 58.3685C2.47844 55.2413 5.01635 52.7078 8.14908 52.7078C11.2818 52.7078 13.8197 55.2413 13.8197 58.3685V58.3685Z" fill="#C1C1C1"/>
<path d="M13.7999 58.3685C13.7999 61.4958 11.262 64.0292 8.14908 64.0292C5.03618 64.0292 2.47844 61.4958 2.47844 58.3685C2.47844 55.2413 5.01635 52.7276 8.14908 52.7276C11.2818 52.7276 13.7999 55.2611 13.7999 58.3685V58.3685Z" fill="#C2C2C2"/>
<path d="M13.7999 58.3685C13.7999 61.4958 11.2818 64.0292 8.14908 64.0292C5.01634 64.0292 2.49826 61.4958 2.49826 58.3685C2.49826 55.2413 5.03617 52.7276 8.14908 52.7276C11.262 52.7276 13.7999 55.2611 13.7999 58.3685V58.3685Z" fill="#C3C3C3"/>
<path d="M13.7999 58.3685C13.7999 61.476 11.262 64.0094 8.14908 64.0094C5.03617 64.0094 2.49826 61.476 2.49826 58.3685C2.49826 55.2611 5.03617 52.7276 8.14908 52.7276C11.262 52.7276 13.7999 55.2413 13.7999 58.3685V58.3685Z" fill="#C4C4C4"/>
<path d="M13.7801 58.3685C13.7801 61.476 11.262 64.0094 8.14908 64.0094C5.03617 64.0094 2.49826 61.4958 2.49826 58.3685C2.49826 55.2413 5.03617 52.7474 8.14908 52.7474C11.262 52.7474 13.7801 55.2611 13.7801 58.3685V58.3685Z" fill="#C5C5C5"/>
<path d="M13.7801 58.3685C13.7801 61.476 11.2421 63.9896 8.14907 63.9896C5.05599 63.9896 2.51808 61.476 2.51808 58.3685C2.51808 55.2611 5.03617 52.7474 8.14907 52.7474C11.262 52.7474 13.7801 55.2611 13.7801 58.3685Z" fill="#C6C6C6"/>
<path d="M13.7602 58.3685C13.7602 61.476 11.2422 63.9896 8.12925 63.9896C5.01634 63.9896 2.49826 61.476 2.49826 58.3685C2.49826 55.2611 5.01634 52.7474 8.12925 52.7474C11.2422 52.7474 13.7602 55.2611 13.7602 58.3685Z" fill="#C7C7C7"/>
<path d="M13.7602 58.3883C13.7602 61.476 11.2422 63.9896 8.14908 63.9896C5.056 63.9896 2.53792 61.476 2.53792 58.3883C2.53792 55.3007 5.056 52.787 8.14908 52.787C11.2422 52.787 13.7602 55.3007 13.7602 58.3883Z" fill="#C8C8C8"/>
<path d="M13.7602 58.3883C13.7602 61.476 11.2422 63.9896 8.14908 63.9896C5.056 63.9896 2.53792 61.476 2.53792 58.3883C2.53792 55.3007 5.056 52.787 8.14908 52.787C11.2422 52.787 13.7602 55.3007 13.7602 58.3883Z" fill="#C9C9C9"/>
<path d="M13.7404 58.3883C13.7404 61.476 11.2223 63.9896 8.12924 63.9896C5.03616 63.9896 2.51808 61.476 2.51808 58.3883C2.51808 55.3007 5.01634 52.787 8.12924 52.787C11.2421 52.787 13.7404 55.3007 13.7404 58.3883Z" fill="#CACACA"/>
<path d="M13.7404 58.3883C13.7404 61.476 11.2422 63.9698 8.14907 63.9698C5.056 63.9698 2.55774 61.476 2.55774 58.3883C2.55774 55.3007 5.056 52.8068 8.14907 52.8068C11.2422 52.8068 13.7404 55.3007 13.7404 58.3883Z" fill="#CBCBCB"/>
<path d="M13.7404 58.3883C13.7404 61.476 11.2422 63.9698 8.14907 63.9698C5.056 63.9698 2.55774 61.476 2.55774 58.3883C2.55774 55.3007 5.056 52.8068 8.14907 52.8068C11.2422 52.8068 13.7404 55.3007 13.7404 58.3883Z" fill="#CCCCCC"/>
<path d="M13.7206 58.3883C13.7206 61.476 11.2223 63.9501 8.12925 63.9501C5.03617 63.9501 2.53792 61.4562 2.53792 58.3883C2.53792 55.3205 5.03617 52.8266 8.12925 52.8266C11.2223 52.8266 13.7206 55.3205 13.7206 58.3883V58.3883Z" fill="#CDCDCD"/>
<path d="M13.7206 58.4081C13.7206 61.476 11.2223 63.9698 8.14908 63.9698C5.07583 63.9698 2.57758 61.476 2.57758 58.4081C2.57758 55.3402 5.07583 52.8266 8.14908 52.8266C11.2223 52.8266 13.7206 55.3205 13.7206 58.4081Z" fill="#CECECE"/>
<path d="M13.7206 58.4081C13.7206 61.476 11.2223 63.9698 8.14908 63.9698C5.07583 63.9698 2.57758 61.476 2.57758 58.4081C2.57758 55.3402 5.07583 52.8464 8.14908 52.8464C11.2223 52.8464 13.7206 55.3402 13.7206 58.4081Z" fill="#CFCFCF"/>
<path d="M13.7008 58.4081C13.7008 61.476 11.2025 63.9698 8.14908 63.9698C5.09565 63.9698 2.5974 61.476 2.5974 58.4081C2.5974 55.3402 5.07583 52.8662 8.14908 52.8662C11.2223 52.8662 13.7008 55.36 13.7008 58.4081Z" fill="#D0D0D0"/>
<path d="M13.7008 58.4081C13.7008 61.476 11.2223 63.9501 8.14908 63.9501C5.07583 63.9501 2.5974 61.4562 2.5974 58.4081C2.5974 55.36 5.07583 52.8662 8.14908 52.8662C11.2223 52.8662 13.7008 55.36 13.7008 58.4081Z" fill="#D1D1D1"/>
<path d="M13.6809 58.4081C13.6809 61.4562 11.2025 63.9501 8.12926 63.9501C5.056 63.9501 2.57758 61.476 2.57758 58.4081C2.57758 55.3402 5.056 52.8662 8.12926 52.8662C11.2025 52.8662 13.6809 55.36 13.6809 58.4081Z" fill="#D2D2D2"/>
<path d="M13.6809 58.4081C13.6809 61.4562 11.2025 63.9501 8.14909 63.9501C5.09566 63.9501 2.61723 61.476 2.61723 58.4081C2.61723 55.3402 5.09566 52.886 8.14909 52.886C11.2025 52.886 13.6809 55.36 13.6809 58.4081Z" fill="#D3D3D3"/>
<path d="M13.6809 58.4279C13.6809 61.476 11.2025 63.9501 8.14909 63.9501C5.09566 63.9501 2.61723 61.476 2.61723 58.4279C2.61723 55.3798 5.09566 52.9058 8.14909 52.9058C11.2025 52.9058 13.6809 55.3798 13.6809 58.4279V58.4279Z" fill="#D4D4D4"/>
<path d="M13.6611 58.4279C13.6611 61.476 11.1827 63.9501 8.12925 63.9501C5.07583 63.9501 2.5974 61.476 2.5974 58.4279C2.5974 55.3798 5.07583 52.9058 8.12925 52.9058C11.1827 52.9058 13.6611 55.3798 13.6611 58.4279V58.4279Z" fill="#D5D5D5"/>
<path d="M13.6611 58.4279C13.6611 61.476 11.1827 63.9501 8.12926 63.9501C5.07583 63.9501 2.61723 61.476 2.61723 58.4279C2.61723 55.3798 5.09566 52.9255 8.12926 52.9255C11.1629 52.9255 13.6611 55.3798 13.6611 58.4279V58.4279Z" fill="#D6D6D6"/>
<path d="M13.6611 58.4279C13.6611 61.476 11.2025 63.9303 8.14908 63.9303C5.09566 63.9303 2.63705 61.4562 2.63705 58.4279C2.63705 55.3996 5.11548 52.9255 8.14908 52.9255C11.1827 52.9255 13.6611 55.3996 13.6611 58.4279V58.4279Z" fill="#D7D7D7"/>
<path d="M13.6611 58.4279C13.6611 61.4562 11.2025 63.9303 8.14908 63.9303C5.09566 63.9303 2.63705 61.476 2.63705 58.4279C2.63705 55.3798 5.09566 52.9255 8.14908 52.9255C11.2025 52.9255 13.6611 55.3996 13.6611 58.4279V58.4279Z" fill="#D8D8D8"/>
<path d="M13.6413 58.4477C13.6413 61.476 11.1827 63.9303 8.14908 63.9303C5.11548 63.9303 2.63705 61.476 2.63705 58.4477C2.63705 55.4194 5.09566 52.9651 8.14908 52.9651C11.2025 52.9651 13.6413 55.4194 13.6413 58.4477V58.4477Z" fill="#D9D9D9"/>
<path d="M13.6413 58.4477C13.6413 61.476 11.1827 63.9303 8.14907 63.9303C5.11548 63.9303 2.65688 61.476 2.65688 58.4477C2.65688 55.4194 5.11548 52.9651 8.14907 52.9651C11.1827 52.9651 13.6413 55.4194 13.6413 58.4477V58.4477Z" fill="#DADADA"/>
<path d="M13.6214 58.4477C13.6214 61.476 11.1628 63.9303 8.12925 63.9303C5.09566 63.9303 2.63705 61.476 2.63705 58.4477C2.63705 55.4194 5.09566 52.9651 8.12925 52.9651C11.1628 52.9651 13.6214 55.4194 13.6214 58.4477V58.4477Z" fill="#DBDBDB"/>
<path d="M13.6215 58.4477C13.6215 61.476 11.1827 63.9105 8.14908 63.9105C5.11549 63.9105 2.67671 61.4562 2.67671 58.4477C2.67671 55.4392 5.11549 52.9849 8.14908 52.9849C11.1827 52.9849 13.6215 55.4392 13.6215 58.4477Z" fill="#DCDCDC"/>
<path d="M13.6215 58.4675C13.6215 61.476 11.1629 63.9303 8.14908 63.9303C5.13531 63.9303 2.67671 61.476 2.67671 58.4675C2.67671 55.459 5.13531 53.0047 8.14908 53.0047C11.1629 53.0047 13.6215 55.459 13.6215 58.4675Z" fill="#DCDCDC"/>
<path d="M13.6016 58.4675C13.6016 61.476 11.1629 63.9303 8.14908 63.9303C5.13531 63.9303 2.67671 61.4958 2.67671 58.4675C2.67671 55.4392 5.11549 53.0245 8.14908 53.0245C11.1827 53.0245 13.6016 55.459 13.6016 58.4675Z" fill="#DDDDDD"/>
<path d="M13.6016 58.4675C13.6016 61.476 11.1628 63.9105 8.14908 63.9105C5.13531 63.9105 2.69653 61.476 2.69653 58.4675C2.69653 55.459 5.13531 53.0245 8.14908 53.0245C11.1628 53.0245 13.6016 55.459 13.6016 58.4675Z" fill="#DEDEDE"/>
<path d="M13.6016 58.4675C13.6016 61.476 11.1628 63.9105 8.14908 63.9105C5.13531 63.9105 2.69653 61.476 2.69653 58.4675C2.69653 55.459 5.13531 53.0245 8.14908 53.0245C11.1628 53.0245 13.6016 55.459 13.6016 58.4675Z" fill="#DFDFDF"/>
<path d="M13.5818 58.4675C13.5818 61.476 11.143 63.8907 8.14908 63.8907C5.15513 63.8907 2.69653 61.4562 2.69653 58.4675C2.69653 55.4788 5.13531 53.0443 8.14908 53.0443C11.1628 53.0443 13.5818 55.4788 13.5818 58.4675Z" fill="#E0E0E0"/>
<path d="M13.5818 58.4675C13.5818 61.476 11.143 63.8907 8.14909 63.8907C5.15514 63.8907 2.71637 61.476 2.71637 58.4675C2.71637 55.459 5.15514 53.0443 8.14909 53.0443C11.143 53.0443 13.5818 55.4788 13.5818 58.4675Z" fill="#E1E1E1"/>
<path d="M13.5818 58.4675C13.5818 61.4562 11.143 63.8907 8.14909 63.8907C5.15514 63.8907 2.71637 61.476 2.71637 58.4675C2.71637 55.459 5.13532 53.0443 8.14909 53.0443C11.1629 53.0443 13.5818 55.4788 13.5818 58.4675Z" fill="#E2E2E2"/>
<path d="M13.562 58.4873C13.562 61.476 11.143 63.8907 8.14908 63.8907C5.15514 63.8907 2.73619 61.476 2.73619 58.4873C2.73619 55.4986 5.15514 53.0839 8.14908 53.0839C11.143 53.0839 13.562 55.4986 13.562 58.4873Z" fill="#E3E3E3"/>
<path d="M13.562 58.4873C13.562 61.476 11.143 63.8907 8.14908 63.8907C5.15514 63.8907 2.73619 61.476 2.73619 58.4873C2.73619 55.4986 5.15514 53.0839 8.14908 53.0839C11.143 53.0839 13.562 55.4986 13.562 58.4873Z" fill="#E4E4E4"/>
<path d="M13.562 58.4873C13.562 61.4562 11.143 63.8709 8.14908 63.8709C5.15514 63.8709 2.73619 61.4562 2.73619 58.4873C2.73619 55.5184 5.15514 53.0839 8.14908 53.0839C11.143 53.0839 13.562 55.4986 13.562 58.4873V58.4873Z" fill="#E5E5E5"/>
<path d="M13.5421 58.4873C13.5421 61.4562 11.1232 63.8709 8.14907 63.8709C5.17496 63.8709 2.75601 61.4562 2.75601 58.4873C2.75601 55.5184 5.17496 53.0839 8.14907 53.0839C11.1232 53.0839 13.5421 55.4986 13.5421 58.4873V58.4873Z" fill="#E6E6E6"/>
<path d="M13.5421 58.4873C13.5421 61.4562 11.1232 63.8709 8.14907 63.8709C5.17496 63.8709 2.75601 61.4562 2.75601 58.4873C2.75601 55.5184 5.17496 53.1037 8.14907 53.1037C11.1232 53.1037 13.5421 55.4986 13.5421 58.4873V58.4873Z" fill="#E7E7E7"/>
<path d="M13.5223 58.5071C13.5223 61.476 11.1034 63.8709 8.12925 63.8709C5.15514 63.8709 2.73619 61.4562 2.73619 58.5071C2.73619 55.558 5.15514 53.1235 8.12925 53.1235C11.1034 53.1235 13.5223 55.5184 13.5223 58.5071V58.5071Z" fill="#E8E8E8"/>
<path d="M13.5223 58.5071C13.5223 61.476 11.1232 63.8709 8.14908 63.8709C5.17497 63.8709 2.77585 61.4562 2.77585 58.5071C2.77585 55.558 5.17497 53.1433 8.14908 53.1433C11.1232 53.1433 13.5223 55.558 13.5223 58.5071V58.5071Z" fill="#E9E9E9"/>
<path d="M13.5025 58.5071C13.5025 61.476 11.1034 63.8709 8.12924 63.8709C5.15513 63.8709 2.75601 61.476 2.75601 58.5071C2.75601 55.5382 5.15513 53.1433 8.12924 53.1433C11.1034 53.1433 13.5025 55.5382 13.5025 58.5071V58.5071Z" fill="#EAEAEA"/>
<path d="M13.5025 58.5071C13.5025 61.4562 11.1034 63.8511 8.12924 63.8511C5.15513 63.8511 2.75601 61.4562 2.75601 58.5071C2.75601 55.558 5.15513 53.1433 8.12924 53.1433C11.1034 53.1433 13.5025 55.5382 13.5025 58.5071Z" fill="#EBEBEB"/>
<path d="M13.5025 58.5071C13.5025 61.4562 11.1034 63.8511 8.14908 63.8511C5.19479 63.8511 2.77585 61.4562 2.77585 58.5071C2.77585 55.558 5.17497 53.1631 8.14908 53.1631C11.1232 53.1631 13.5025 55.558 13.5025 58.5071Z" fill="#ECECEC"/>
<path d="M13.4827 58.5071C13.4827 61.4562 11.0835 63.8511 8.12925 63.8511C5.17497 63.8511 2.77585 61.4562 2.77585 58.5071C2.77585 55.558 5.17497 53.1631 8.12925 53.1631C11.0835 53.1631 13.4827 55.558 13.4827 58.5071Z" fill="#EDEDED"/>
<path d="M13.4827 58.5071C13.4827 61.4562 11.1034 63.8511 8.14908 63.8511C5.19479 63.8511 2.79567 61.4562 2.79567 58.5071C2.79567 55.558 5.19479 53.1631 8.14908 53.1631C11.1034 53.1631 13.4827 55.558 13.4827 58.5071V58.5071Z" fill="#EEEEEE"/>
<path d="M13.4827 58.5269C13.4827 61.4562 11.1034 63.8511 8.14908 63.8511C5.1948 63.8511 2.81551 61.4562 2.81551 58.5269C2.81551 55.5976 5.21462 53.1829 8.14908 53.1829C11.0835 53.1829 13.4827 55.558 13.4827 58.5269V58.5269Z" fill="#EFEFEF"/>
<path d="M13.4827 58.5269C13.4827 61.4562 11.0835 63.8511 8.14908 63.8511C5.21462 63.8511 2.81551 61.476 2.81551 58.5269C2.81551 55.5778 5.21462 53.2026 8.14908 53.2026C11.0835 53.2026 13.4827 55.5778 13.4827 58.5269V58.5269Z" fill="#F0F0F0"/>
<path d="M13.4628 58.5269C13.4628 61.4562 11.0835 63.8313 8.14908 63.8313C5.21462 63.8313 2.83533 61.4562 2.83533 58.5269C2.83533 55.5976 5.21462 53.2026 8.14908 53.2026C11.0835 53.2026 13.4628 55.5778 13.4628 58.5269V58.5269Z" fill="#F1F1F1"/>
<path d="M13.4628 58.5269C13.4628 61.4562 11.0835 63.8313 8.14908 63.8313C5.21462 63.8313 2.83533 61.4562 2.83533 58.5269C2.83533 55.5976 5.21462 53.2224 8.14908 53.2224C11.0835 53.2224 13.4628 55.5976 13.4628 58.5269V58.5269Z" fill="#F2F2F2"/>
<path d="M13.443 58.5269C13.443 61.4562 11.0637 63.8313 8.14908 63.8313C5.23445 63.8313 2.83533 61.4562 2.83533 58.5269C2.83533 55.5976 5.21462 53.2422 8.14908 53.2422C11.0835 53.2422 13.443 55.6173 13.443 58.5269Z" fill="#F3F3F3"/>
<path d="M13.443 58.5467C13.443 61.476 11.0637 63.8313 8.14908 63.8313C5.23445 63.8313 2.83533 61.4562 2.83533 58.5467C2.83533 55.6371 5.21462 53.262 8.14908 53.262C11.0835 53.262 13.443 55.6371 13.443 58.5467Z" fill="#F4F4F4"/>
<path d="M13.443 58.5467C13.443 61.476 11.0835 63.8313 8.14907 63.8313C5.21461 63.8313 2.85515 61.4562 2.85515 58.5467C2.85515 55.6371 5.23444 53.262 8.14907 53.262C11.0637 53.262 13.443 55.6371 13.443 58.5467Z" fill="#F5F5F5"/>
<path d="M13.4232 58.5467C13.4232 61.4562 11.0439 63.8115 8.12925 63.8115C5.21462 63.8115 2.83533 61.4562 2.83533 58.5467C2.83533 55.6371 5.19479 53.262 8.12925 53.262C11.0637 53.262 13.4232 55.6173 13.4232 58.5467Z" fill="#F6F6F6"/>
<path d="M13.4232 58.5467C13.4232 61.4562 11.0637 63.8115 8.14908 63.8115C5.23445 63.8115 2.87498 61.4562 2.87498 58.5467C2.87498 55.6371 5.23445 53.2818 8.14908 53.2818C11.0637 53.2818 13.4232 55.6371 13.4232 58.5467V58.5467Z" fill="#F7F7F7"/>
<path d="M13.4033 58.5467C13.4033 61.4562 11.0439 63.8115 8.12924 63.8115C5.21461 63.8115 2.85515 61.4562 2.85515 58.5467C2.85515 55.6371 5.21461 53.2818 8.12924 53.2818C11.0439 53.2818 13.4033 55.6371 13.4033 58.5467V58.5467Z" fill="#F8F8F8"/>
<path d="M13.4033 58.5467C13.4033 61.4562 11.0439 63.8115 8.12924 63.8115C5.21461 63.8115 2.85515 61.4562 2.85515 58.5467C2.85515 55.6371 5.21461 53.3016 8.12924 53.3016C11.0439 53.3016 13.4033 55.6569 13.4033 58.5467V58.5467Z" fill="#F9F9F9"/>
<path d="M13.4033 58.5665C13.4033 61.4562 11.0637 63.8115 8.14907 63.8115C5.23444 63.8115 2.89481 61.4562 2.89481 58.5665C2.89481 55.6767 5.25427 53.3214 8.14907 53.3214C11.0439 53.3214 13.4033 55.6767 13.4033 58.5665V58.5665Z" fill="#FAFAFA"/>
<path d="M13.4033 58.5665C13.4033 61.4562 11.0439 63.8115 8.14907 63.8115C5.25427 63.8115 2.89481 61.476 2.89481 58.5665C2.89481 55.6569 5.25427 53.3214 8.14907 53.3214C11.0439 53.3214 13.4033 55.6767 13.4033 58.5665V58.5665Z" fill="#FBFBFB"/>
<path d="M13.3835 58.5665C13.3835 61.4562 11.0241 63.8115 8.14908 63.8115C5.27411 63.8115 2.91464 61.476 2.91464 58.5665C2.91464 55.6569 5.25428 53.3412 8.14908 53.3412C11.0439 53.3412 13.3835 55.6767 13.3835 58.5665V58.5665Z" fill="#FCFCFC"/>
<path d="M13.3835 58.5665C13.3835 61.4562 11.0439 63.7917 8.14908 63.7917C5.25428 63.7917 2.91464 61.4562 2.91464 58.5665C2.91464 55.6767 5.25428 53.3412 8.14908 53.3412C11.0439 53.3412 13.3835 55.6767 13.3835 58.5665V58.5665Z" fill="#FDFDFD"/>
<path d="M13.3637 58.5665C13.3637 61.4562 11.0241 63.7917 8.12925 63.7917C5.23444 63.7917 2.89481 61.4562 2.89481 58.5665C2.89481 55.6767 5.23444 53.3412 8.12925 53.3412C11.0241 53.3412 13.3637 55.6767 13.3637 58.5665V58.5665Z" fill="#FEFEFE"/>
<path d="M13.3637 58.5665C13.3637 61.4562 11.0241 63.7917 8.14908 63.7917C5.27411 63.7917 2.91464 61.4562 2.91464 58.5665C2.91464 55.6767 5.25428 53.361 8.14908 53.361C11.0439 53.361 13.3637 55.6965 13.3637 58.5665V58.5665Z" fill="white"/>
<path style="mix-blend-mode:screen" d="M3.60859 64.9991C4.73875 67.0179 6.20598 69.3139 7.93097 71.7879C8.01028 71.9067 8.08959 71.9661 8.12924 71.9661C8.1689 71.9661 8.24821 71.9067 8.32752 71.7879C8.84303 71.0754 9.31889 70.3629 9.77492 69.6701C7.23701 68.8586 5.05599 67.1763 3.58876 64.9991H3.60859Z" fill="url(#paint6_linear_201_364)"/>
<path d="M7.5146 54.885H8.90252L11.1628 60.7239H10.0922C9.9732 60.7239 9.89389 60.7041 9.81458 60.6249C9.73527 60.5655 9.69562 60.5061 9.65596 60.427L9.31889 59.4175H7.09822L6.76116 60.427C6.76116 60.427 6.68185 60.5853 6.60254 60.6447C6.52323 60.7041 6.42409 60.7239 6.30513 60.7239H5.25427L7.5146 54.885V54.885ZM8.46632 56.9039C8.42666 56.8049 8.38701 56.6861 8.32752 56.5476C8.28787 56.4091 8.24821 56.2507 8.18873 56.0924C8.14908 56.2507 8.08959 56.4091 8.04994 56.5476C8.01028 56.6861 7.97063 56.8049 7.93098 56.9039L7.39563 58.5071H9.00166L8.46632 56.9237V56.9039Z" fill="#FF7700"/>
<path style="mix-blend-mode:multiply" d="M97.551 22.9199C97.551 24.0283 94.2794 24.9189 90.2545 24.9189C86.2295 24.9189 82.958 24.0283 82.958 22.9199C82.958 21.8115 86.2097 20.9208 90.2545 20.9208C94.2993 20.9208 97.551 21.8115 97.551 22.9199Z" fill="url(#paint7_radial_201_364)"/>
<path style="mix-blend-mode:multiply" d="M94.9337 22.9199C94.9337 23.6324 92.8518 24.2064 90.2545 24.2064C87.6571 24.2064 85.595 23.6324 85.595 22.9199C85.595 22.2074 87.6769 21.6532 90.2545 21.6532C92.832 21.6532 94.9337 22.2271 94.9337 22.9199Z" fill="url(#paint8_radial_201_364)"/>
<path d="M91.1863 22.3063C90.6708 23.0584 89.7984 23.0584 89.2829 22.3063C87.1217 19.2385 82.0856 11.6579 82.0856 8.13478C82.0856 3.64185 85.7338 0 90.2346 0C94.7354 0 98.3639 3.64185 98.3639 8.13478C98.3639 11.6579 93.3277 19.2385 91.1863 22.3063Z" fill="url(#paint9_radial_201_364)"/>
<path style="mix-blend-mode:color-burn" d="M91.1863 22.3063C90.6708 23.0584 89.7984 23.0584 89.2829 22.3063C87.1217 19.2385 82.0856 11.6579 82.0856 8.13478C82.0856 3.64185 85.7338 0 90.2346 0C94.7354 0 98.3639 3.64185 98.3639 8.13478C98.3639 11.6579 93.3277 19.2385 91.1863 22.3063Z" fill="url(#paint10_radial_201_364)"/>
<path style="mix-blend-mode:screen" d="M90.195 1.91989C92.8717 1.91989 95.3897 2.83035 97.432 4.33459C96.0639 1.76155 93.3475 0 90.2346 0C87.1217 0 84.4648 1.72196 83.0769 4.23563C85.0993 2.79076 87.5579 1.91989 90.195 1.91989V1.91989Z" fill="url(#paint11_linear_201_364)"/>
<g style="mix-blend-mode:screen">
<path d="M82.9183 8.13478C82.9183 8.13478 82.9183 8.05561 82.9183 7.87747C82.9183 7.7983 82.9183 7.69934 82.9183 7.56079C82.9183 7.50141 82.9183 7.44204 82.9183 7.36287C82.9183 7.28369 82.9381 7.22432 82.958 7.14515C82.958 6.9868 82.9976 6.80867 83.0174 6.63054C83.0571 6.4524 83.0967 6.25448 83.1562 6.03676C83.2157 5.81904 83.295 5.60132 83.3743 5.36381C83.414 5.24505 83.4735 5.1263 83.533 5.00754C83.5924 4.88878 83.6519 4.77003 83.6916 4.65127C83.7511 4.53252 83.8304 4.41376 83.9097 4.295C83.989 4.17625 84.0485 4.0377 84.1476 3.91894C84.326 3.68143 84.4847 3.42413 84.7028 3.20641C85.0993 2.71159 85.6148 2.29595 86.17 1.90009C86.3286 1.80113 86.4674 1.72196 86.6062 1.623C86.7648 1.54383 86.9234 1.46466 87.0821 1.38549L87.32 1.26673L87.5777 1.16777C87.7562 1.10839 87.9148 1.04901 88.0933 0.989632C88.2717 0.950047 88.4502 0.910462 88.6088 0.851084L88.7476 0.811498H88.8864L89.1639 0.75212C89.3424 0.712535 89.5208 0.692742 89.7191 0.692742H90.2743C90.9682 0.692742 91.7415 0.771913 92.4156 0.989632C92.5941 1.04901 92.7527 1.10839 92.9113 1.16777L93.1691 1.26673L93.407 1.38549C93.5656 1.46466 93.7243 1.54383 93.8829 1.623C94.0217 1.72196 94.1803 1.80113 94.3191 1.90009C94.8941 2.29595 95.3898 2.71159 95.7863 3.20641C96.0044 3.42413 96.163 3.68143 96.3415 3.91894C96.4208 4.0377 96.5001 4.17625 96.5794 4.295C96.6587 4.41376 96.7182 4.53252 96.7975 4.65127C96.857 4.77003 96.9165 4.88878 96.976 5.00754C97.0354 5.1263 97.0949 5.22526 97.1147 5.36381C97.1941 5.60132 97.2734 5.81904 97.3328 6.03676C97.3923 6.25448 97.432 6.4524 97.4716 6.63054C97.5113 6.82846 97.5113 6.9868 97.5311 7.14515C97.5311 7.22432 97.5311 7.30349 97.5509 7.36287C97.5509 7.44204 97.5509 7.50141 97.5509 7.56079C97.5509 7.67955 97.5509 7.77851 97.5509 7.87747C97.5509 8.05561 97.5509 8.13478 97.5509 8.13478C97.5509 8.13478 97.5509 8.05561 97.5311 7.87747C97.5311 7.7983 97.5311 7.69934 97.5113 7.58058C97.5113 7.52121 97.5113 7.46183 97.5113 7.38266C97.5113 7.30349 97.4915 7.24411 97.4716 7.16494C97.4518 7.0066 97.4122 6.84826 97.3725 6.67012C97.313 6.49199 97.2535 6.29406 97.2139 6.07634C97.1544 5.87842 97.0553 5.6607 96.976 5.42319C96.8768 5.20547 96.7579 4.96795 96.6389 4.75024C96.5794 4.63148 96.5001 4.51272 96.4208 4.39397C96.3415 4.27521 96.282 4.15646 96.1829 4.0377C96.0044 3.81998 95.8458 3.56268 95.6277 3.36475C95.2311 2.90952 94.7156 2.51367 94.1803 2.13761C93.6251 1.78134 92.9906 1.50424 92.3363 1.28652C91.6622 1.0886 90.9881 1.00942 90.2743 0.969839C89.5803 0.989632 88.8665 1.0886 88.2122 1.26673C87.5579 1.48445 86.9234 1.76155 86.3683 2.11781C85.8131 2.47408 85.3174 2.86993 84.9209 3.32516C84.7028 3.54288 84.5442 3.7804 84.3459 4.01791C84.2666 4.13666 84.1873 4.25542 84.1079 4.37418C84.0286 4.49293 83.9493 4.61169 83.8899 4.73044C83.7709 4.96795 83.6519 5.18567 83.5528 5.40339C83.4735 5.6409 83.3743 5.83883 83.3149 6.05655C83.2554 6.27427 83.1959 6.4524 83.1562 6.65033C83.1166 6.82846 83.0968 7.0066 83.0571 7.14515C83.0571 7.22432 83.0373 7.30349 83.0174 7.36287C83.0174 7.44204 83.0174 7.50141 83.0174 7.56079C83.0174 7.67955 83.0174 7.77851 82.9976 7.85768C82.9976 8.03582 82.9778 8.11499 82.9778 8.11499L82.9183 8.13478Z" fill="#56594B"/>
</g>
<path style="mix-blend-mode:multiply" d="M96.5992 8.31291C96.5992 11.8162 93.7441 14.6664 90.2544 14.6664C86.7648 14.6664 83.8898 11.836 83.8898 8.31291C83.8898 4.78982 86.7252 1.97927 90.2544 1.97927C93.7837 1.97927 96.5992 4.80961 96.5992 8.31291Z" fill="url(#paint12_linear_201_364)"/>
<path d="M95.9648 8.31291C95.9648 11.4797 93.407 14.033 90.2346 14.033C87.0622 14.033 84.5045 11.4797 84.5045 8.31291C84.5045 5.14609 87.0622 2.59284 90.2346 2.59284C93.407 2.59284 95.9648 5.14609 95.9648 8.31291V8.31291Z" fill="#B8B8B8"/>
<path d="M95.9648 8.31291C95.9648 11.4599 93.407 14.033 90.2545 14.033C87.1019 14.033 84.5243 11.4797 84.5243 8.31291C84.5243 5.14609 87.0821 2.59284 90.2545 2.59284C93.4269 2.59284 95.9648 5.14609 95.9648 8.31291V8.31291Z" fill="#B9B9B9"/>
<path d="M95.9648 8.31291C95.9648 11.4599 93.407 14.0132 90.2545 14.0132C87.1019 14.0132 84.5243 11.4599 84.5243 8.31291C84.5243 5.16588 87.0821 2.59284 90.2545 2.59284C93.4269 2.59284 95.9648 5.14609 95.9648 8.31291Z" fill="#BABABA"/>
<path d="M95.9449 8.31291C95.9449 11.4599 93.3872 14.0132 90.2346 14.0132C87.0821 14.0132 84.5243 11.4599 84.5243 8.31291C84.5243 5.16588 87.0821 2.61263 90.2346 2.61263C93.3872 2.61263 95.9449 5.16588 95.9449 8.31291Z" fill="#BBBBBB"/>
<path d="M95.9449 8.3327C95.9449 11.4797 93.3872 14.033 90.2545 14.033C87.1217 14.033 84.5442 11.4797 84.5442 8.3327C84.5442 5.18567 87.1019 2.63242 90.2545 2.63242C93.407 2.63242 95.9449 5.18567 95.9449 8.3327Z" fill="#BCBCBC"/>
<path d="M95.9251 8.3327C95.9251 11.4599 93.3674 14.0132 90.2346 14.0132C87.1019 14.0132 84.5442 11.4599 84.5442 8.3327C84.5442 5.20547 87.1019 2.65221 90.2346 2.65221C93.3674 2.65221 95.9251 5.20547 95.9251 8.3327Z" fill="#BDBDBD"/>
<path d="M95.9251 8.3327C95.9251 11.4599 93.3674 14.0132 90.2346 14.0132C87.1019 14.0132 84.5442 11.4797 84.5442 8.3327C84.5442 5.18567 87.1019 2.65221 90.2346 2.65221C93.3674 2.65221 95.9251 5.18567 95.9251 8.3327Z" fill="#BEBEBE"/>
<path d="M95.9251 8.3327C95.9251 11.4599 93.3872 14.0132 90.2346 14.0132C87.0821 14.0132 84.5442 11.4797 84.5442 8.3327C84.5442 5.18567 87.0821 2.65221 90.2346 2.65221C93.3872 2.65221 95.9251 5.20547 95.9251 8.3327Z" fill="#BFBFBF"/>
<path d="M95.9053 8.3327C95.9053 11.4599 93.3674 13.9934 90.2346 13.9934C87.1019 13.9934 84.564 11.4599 84.564 8.3327C84.564 5.20547 87.1019 2.67201 90.2346 2.67201C93.3674 2.67201 95.9053 5.20547 95.9053 8.3327V8.3327Z" fill="#C0C0C0"/>
<path d="M95.9053 8.3525C95.9053 11.4797 93.3674 14.0132 90.2346 14.0132C87.1019 14.0132 84.564 11.4797 84.564 8.3525C84.564 5.22526 87.1019 2.6918 90.2346 2.6918C93.3674 2.6918 95.9053 5.22526 95.9053 8.3525V8.3525Z" fill="#C1C1C1"/>
<path d="M95.9053 8.3525C95.9053 11.4797 93.3674 14.0132 90.2545 14.0132C87.1416 14.0132 84.5838 11.4797 84.5838 8.3525C84.5838 5.22526 87.1217 2.71159 90.2545 2.71159C93.3872 2.71159 95.9053 5.24505 95.9053 8.3525V8.3525Z" fill="#C2C2C2"/>
<path d="M95.8855 8.3525C95.8855 11.4599 93.3475 13.9934 90.2346 13.9934C87.1217 13.9934 84.5838 11.4599 84.5838 8.3525C84.5838 5.24505 87.1217 2.71159 90.2346 2.71159C93.3475 2.71159 95.8855 5.24505 95.8855 8.3525V8.3525Z" fill="#C3C3C3"/>
<path d="M95.8855 8.3525C95.8855 11.4599 93.3475 13.9934 90.2346 13.9934C87.1217 13.9934 84.5838 11.4599 84.5838 8.3525C84.5838 5.24505 87.1217 2.71159 90.2346 2.71159C93.3475 2.71159 95.8855 5.22526 95.8855 8.3525V8.3525Z" fill="#C4C4C4"/>
<path d="M95.8854 8.3525C95.8854 11.4599 93.3674 13.9736 90.2545 13.9736C87.1416 13.9736 84.6036 11.4599 84.6036 8.3525C84.6036 5.24505 87.1416 2.71159 90.2545 2.71159C93.3674 2.71159 95.8854 5.22526 95.8854 8.3525Z" fill="#C5C5C5"/>
<path d="M95.8656 8.3525C95.8656 11.4599 93.3475 13.9736 90.2346 13.9736C87.1217 13.9736 84.6036 11.4599 84.6036 8.3525C84.6036 5.24505 87.1217 2.73138 90.2346 2.73138C93.3475 2.73138 95.8656 5.24505 95.8656 8.3525V8.3525Z" fill="#C6C6C6"/>
<path d="M95.8656 8.3525C95.8656 11.4599 93.3475 13.9736 90.2346 13.9736C87.1217 13.9736 84.6036 11.4599 84.6036 8.3525C84.6036 5.24505 87.1217 2.73138 90.2346 2.73138C93.3475 2.73138 95.8656 5.24505 95.8656 8.3525V8.3525Z" fill="#C7C7C7"/>
<path d="M95.8656 8.37229C95.8656 11.4599 93.3475 13.9736 90.2545 13.9736C87.1614 13.9736 84.6235 11.4599 84.6235 8.37229C84.6235 5.28464 87.1416 2.75118 90.2545 2.75118C93.3674 2.75118 95.8656 5.26484 95.8656 8.37229V8.37229Z" fill="#C8C8C8"/>
<path d="M95.8458 8.37229C95.8458 11.4599 93.3277 13.9736 90.2346 13.9736C87.1416 13.9736 84.6235 11.4599 84.6235 8.37229C84.6235 5.28464 87.1416 2.77097 90.2346 2.77097C93.3277 2.77097 95.8458 5.28464 95.8458 8.37229Z" fill="#C9C9C9"/>
<path d="M95.8458 8.37229C95.8458 11.4599 93.3277 13.9736 90.2346 13.9736C87.1416 13.9736 84.6235 11.4599 84.6235 8.37229C84.6235 5.28464 87.1416 2.79076 90.2346 2.79076C93.3277 2.79076 95.8458 5.30443 95.8458 8.37229Z" fill="#CACACA"/>
<path d="M95.8458 8.37229C95.8458 11.4599 93.3475 13.9538 90.2545 13.9538C87.1614 13.9538 84.6631 11.4402 84.6631 8.37229C84.6631 5.30443 87.1614 2.79076 90.2545 2.79076C93.3475 2.79076 95.8458 5.30443 95.8458 8.37229Z" fill="#CBCBCB"/>
<path d="M95.826 8.39208C95.826 11.4797 93.3277 13.9736 90.2346 13.9736C87.1416 13.9736 84.6433 11.4797 84.6433 8.39208C84.6433 5.30443 87.1416 2.81056 90.2346 2.81056C93.3277 2.81056 95.826 5.30443 95.826 8.39208Z" fill="#CCCCCC"/>
<path d="M95.826 8.39208C95.826 11.4797 93.3277 13.9736 90.2545 13.9736C87.1812 13.9736 84.6631 11.4797 84.6631 8.39208C84.6631 5.30443 87.1614 2.81056 90.2545 2.81056C93.3475 2.81056 95.826 5.30443 95.826 8.39208Z" fill="#CDCDCD"/>
<path d="M95.8061 8.39208C95.8061 11.4599 93.3079 13.9538 90.2346 13.9538C87.1614 13.9538 84.6631 11.4599 84.6631 8.39208C84.6631 5.32422 87.1614 2.81056 90.2346 2.81056C93.3079 2.81056 95.8061 5.30443 95.8061 8.39208Z" fill="#CECECE"/>
<path d="M95.8061 8.39208C95.8061 11.4599 93.3079 13.9538 90.2346 13.9538C87.1614 13.9538 84.6631 11.4599 84.6631 8.39208C84.6631 5.32422 87.1614 2.83035 90.2346 2.83035C93.3079 2.83035 95.8061 5.32422 95.8061 8.39208Z" fill="#CFCFCF"/>
<path d="M95.8061 8.39208C95.8061 11.4599 93.3079 13.9538 90.2545 13.9538C87.201 13.9538 84.683 11.4599 84.683 8.39208C84.683 5.32422 87.1812 2.83035 90.2545 2.83035C93.3277 2.83035 95.8061 5.32422 95.8061 8.39208Z" fill="#D0D0D0"/>
<path d="M95.7863 8.39208C95.7863 11.4599 93.2881 13.934 90.2346 13.934C87.1812 13.934 84.683 11.4599 84.683 8.39208C84.683 5.32422 87.1812 2.85014 90.2346 2.85014C93.2881 2.85014 95.7863 5.32422 95.7863 8.39208Z" fill="#D1D1D1"/>
<path d="M95.7863 8.41188C95.7863 11.4797 93.3079 13.9538 90.2346 13.9538C87.1614 13.9538 84.683 11.4797 84.683 8.41188C84.683 5.34402 87.1614 2.86993 90.2346 2.86993C93.3079 2.86993 95.7863 5.34402 95.7863 8.41188Z" fill="#D2D2D2"/>
<path d="M95.7863 8.41188C95.7863 11.4599 93.3079 13.934 90.2545 13.934C87.201 13.934 84.7028 11.4599 84.7028 8.41188C84.7028 5.36381 87.1812 2.88973 90.2545 2.88973C93.3277 2.88973 95.7863 5.36381 95.7863 8.41188Z" fill="#D3D3D3"/>
<path d="M95.7665 8.41188C95.7665 11.4599 93.288 13.934 90.2346 13.934C87.1812 13.934 84.7028 11.4599 84.7028 8.41188C84.7028 5.36381 87.1812 2.88973 90.2346 2.88973C93.288 2.88973 95.7665 5.36381 95.7665 8.41188Z" fill="#D4D4D4"/>
<path d="M95.7665 8.41188C95.7665 11.4599 93.288 13.934 90.2346 13.934C87.1812 13.934 84.7028 11.4599 84.7028 8.41188C84.7028 5.36381 87.1812 2.88973 90.2346 2.88973C93.288 2.88973 95.7665 5.36381 95.7665 8.41188Z" fill="#D5D5D5"/>
<path d="M95.7665 8.41188C95.7665 11.4599 93.2881 13.9142 90.2545 13.9142C87.2209 13.9142 84.7226 11.4402 84.7226 8.41188C84.7226 5.3836 87.201 2.88973 90.2545 2.88973C93.3079 2.88973 95.7665 5.36381 95.7665 8.41188Z" fill="#D6D6D6"/>
<path d="M95.7467 8.43167C95.7467 11.4797 93.2881 13.934 90.2346 13.934C87.1812 13.934 84.7226 11.4797 84.7226 8.43167C84.7226 5.3836 87.201 2.92931 90.2346 2.92931C93.2682 2.92931 95.7467 5.40339 95.7467 8.43167Z" fill="#D7D7D7"/>
<path d="M95.7467 8.43167C95.7467 11.4797 93.2881 13.934 90.2346 13.934C87.1812 13.934 84.7226 11.4797 84.7226 8.43167C84.7226 5.3836 87.1812 2.92931 90.2346 2.92931C93.2881 2.92931 95.7467 5.3836 95.7467 8.43167Z" fill="#D8D8D8"/>
<path d="M95.7467 8.43167C95.7467 11.4797 93.2881 13.9142 90.2545 13.9142C87.2209 13.9142 84.7424 11.4599 84.7424 8.43167C84.7424 5.40339 87.201 2.9491 90.2545 2.9491C93.3079 2.9491 95.7467 5.42319 95.7467 8.43167Z" fill="#D9D9D9"/>
<path d="M95.7268 8.43167C95.7268 11.4599 93.2682 13.9142 90.2346 13.9142C87.201 13.9142 84.7424 11.4599 84.7424 8.43167C84.7424 5.40339 87.201 2.9491 90.2346 2.9491C93.2682 2.9491 95.7268 5.40339 95.7268 8.43167Z" fill="#DADADA"/>
<path d="M95.7268 8.43167C95.7268 11.4599 93.2682 13.9142 90.2346 13.9142C87.201 13.9142 84.7424 11.4599 84.7424 8.43167C84.7424 5.40339 87.201 2.9491 90.2346 2.9491C93.2682 2.9491 95.7268 5.40339 95.7268 8.43167Z" fill="#DBDBDB"/>
<path d="M95.7268 8.43167C95.7268 11.4599 93.2682 13.9142 90.2545 13.9142C87.2407 13.9142 84.7623 11.4599 84.7623 8.43167C84.7623 5.40339 87.2209 2.9689 90.2545 2.9689C93.288 2.9689 95.7268 5.42319 95.7268 8.43167Z" fill="#DCDCDC"/>
<path d="M95.707 8.45146C95.707 11.4599 93.2484 13.9142 90.2346 13.9142C87.2209 13.9142 84.7623 11.4599 84.7623 8.45146C84.7623 5.44298 87.2209 2.98869 90.2346 2.98869C93.2484 2.98869 95.707 5.44298 95.707 8.45146Z" fill="#DCDCDC"/>
<path d="M95.707 8.45146C95.707 11.4599 93.2682 13.8944 90.2545 13.8944C87.2407 13.8944 84.7821 11.4599 84.7821 8.45146C84.7821 5.44298 87.2209 2.98869 90.2545 2.98869C93.2881 2.98869 95.707 5.42319 95.707 8.45146Z" fill="#DDDDDD"/>
<path d="M95.6872 8.45146C95.6872 11.4599 93.2484 13.8944 90.2346 13.8944C87.2209 13.8944 84.7821 11.4599 84.7821 8.45146C84.7821 5.44298 87.2209 3.00848 90.2346 3.00848C93.2484 3.00848 95.6872 5.46277 95.6872 8.45146Z" fill="#DEDEDE"/>
<path d="M95.6872 8.45146C95.6872 11.4599 93.2484 13.8944 90.2346 13.8944C87.2209 13.8944 84.7821 11.4599 84.7821 8.45146C84.7821 5.44298 87.2209 3.00848 90.2346 3.00848C93.2484 3.00848 95.6872 5.44298 95.6872 8.45146Z" fill="#DFDFDF"/>
<path d="M95.6872 8.45146C95.6872 11.4599 93.2484 13.8944 90.2545 13.8944C87.2605 13.8944 84.8019 11.4599 84.8019 8.45146C84.8019 5.44298 87.2407 3.00848 90.2545 3.00848C93.2682 3.00848 95.6872 5.44298 95.6872 8.45146Z" fill="#E0E0E0"/>
<path d="M95.6673 8.45146C95.6673 11.4402 93.2286 13.8746 90.2346 13.8746C87.2407 13.8746 84.8019 11.4599 84.8019 8.45146C84.8019 5.44298 87.2407 3.02827 90.2346 3.02827C93.2286 3.02827 95.6673 5.46277 95.6673 8.45146Z" fill="#E1E1E1"/>
<path d="M95.6673 8.45146C95.6673 11.4402 93.2286 13.8746 90.2346 13.8746C87.2407 13.8746 84.8019 11.4599 84.8019 8.45146C84.8019 5.44298 87.2407 3.02827 90.2346 3.02827C93.2286 3.02827 95.6673 5.46277 95.6673 8.45146Z" fill="#E2E2E2"/>
<path d="M95.6674 8.47125C95.6674 11.4599 93.2484 13.8944 90.2545 13.8944C87.2605 13.8944 84.8217 11.4797 84.8217 8.47125C84.8217 5.46277 87.2407 3.06786 90.2545 3.06786C93.2682 3.06786 95.6674 5.48256 95.6674 8.47125Z" fill="#E3E3E3"/>
<path d="M95.6475 8.47125C95.6475 11.4599 93.2286 13.8746 90.2346 13.8746C87.2407 13.8746 84.8217 11.4599 84.8217 8.47125C84.8217 5.48256 87.2407 3.06786 90.2346 3.06786C93.2286 3.06786 95.6475 5.48256 95.6475 8.47125V8.47125Z" fill="#E4E4E4"/>
<path d="M95.6475 8.47125C95.6475 11.4599 93.2286 13.8746 90.2346 13.8746C87.2407 13.8746 84.8217 11.4599 84.8217 8.47125C84.8217 5.48256 87.2407 3.06786 90.2346 3.06786C93.2286 3.06786 95.6475 5.48256 95.6475 8.47125V8.47125Z" fill="#E5E5E5"/>
<path d="M95.6475 8.47125C95.6475 11.4599 93.2286 13.8549 90.2545 13.8549C87.2803 13.8549 84.8416 11.4402 84.8416 8.47125C84.8416 5.50236 87.2605 3.08765 90.2545 3.08765C93.2484 3.08765 95.6475 5.50236 95.6475 8.47125V8.47125Z" fill="#E6E6E6"/>
<path d="M95.6277 8.49105C95.6277 11.4599 93.2087 13.8746 90.2346 13.8746C87.2605 13.8746 84.8416 11.4599 84.8416 8.49105C84.8416 5.52215 87.2605 3.10744 90.2346 3.10744C93.2087 3.10744 95.6277 5.52215 95.6277 8.49105V8.49105Z" fill="#E7E7E7"/>
<path d="M95.6277 8.49105C95.6277 11.4599 93.2087 13.8746 90.2545 13.8746C87.3002 13.8746 84.8614 11.4599 84.8614 8.49105C84.8614 5.52215 87.2803 3.10744 90.2545 3.10744C93.2286 3.10744 95.6277 5.52215 95.6277 8.49105V8.49105Z" fill="#E8E8E8"/>
<path d="M95.6277 8.49105C95.6277 11.4599 93.2286 13.8746 90.2545 13.8746C87.2803 13.8746 84.8812 11.4599 84.8812 8.49105C84.8812 5.52215 87.2803 3.12724 90.2545 3.12724C93.2286 3.12724 95.6277 5.54194 95.6277 8.49105V8.49105Z" fill="#E9E9E9"/>
<path d="M95.6079 8.49105C95.6079 11.4599 93.2087 13.8549 90.2346 13.8549C87.2605 13.8549 84.8614 11.4599 84.8614 8.49105C84.8614 5.52215 87.2605 3.12724 90.2346 3.12724C93.2087 3.12724 95.6079 5.54194 95.6079 8.49105Z" fill="#EAEAEA"/>
<path d="M95.6079 8.49104C95.6079 11.4401 93.2087 13.8549 90.2545 13.8549C87.3002 13.8549 84.8812 11.4599 84.8812 8.49104C84.8812 5.52215 87.2803 3.14703 90.2545 3.14703C93.2286 3.14703 95.6079 5.54194 95.6079 8.49104Z" fill="#EBEBEB"/>
<path d="M95.588 8.49104C95.588 11.4401 93.1889 13.8351 90.2346 13.8351C87.2803 13.8351 84.8614 11.4401 84.8614 8.49104C84.8614 5.54194 87.2605 3.14703 90.2346 3.14703C93.2087 3.14703 95.588 5.54194 95.588 8.49104Z" fill="#ECECEC"/>
<path d="M95.588 8.49104C95.588 11.4401 93.1889 13.8351 90.2346 13.8351C87.2803 13.8351 84.8812 11.4401 84.8812 8.49104C84.8812 5.54194 87.2803 3.14703 90.2346 3.14703C93.1889 3.14703 95.588 5.54194 95.588 8.49104Z" fill="#EDEDED"/>
<path d="M95.588 8.51084C95.588 11.4599 93.1889 13.8549 90.2346 13.8549C87.2803 13.8549 84.8812 11.4599 84.8812 8.51084C84.8812 5.56174 87.2803 3.16682 90.2346 3.16682C93.1889 3.16682 95.588 5.56174 95.588 8.51084Z" fill="#EEEEEE"/>
<path d="M95.588 8.51084C95.588 11.4599 93.1889 13.8351 90.2545 13.8351C87.32 13.8351 84.9209 11.4599 84.9209 8.51084C84.9209 5.56174 87.32 3.16682 90.2545 3.16682C93.1889 3.16682 95.588 5.56174 95.588 8.51084V8.51084Z" fill="#EFEFEF"/>
<path d="M95.5682 8.51084C95.5682 11.4599 93.1691 13.8351 90.2346 13.8351C87.3002 13.8351 84.901 11.4599 84.901 8.51084C84.901 5.56173 87.3002 3.18662 90.2346 3.18662C93.1691 3.18662 95.5682 5.56173 95.5682 8.51084V8.51084Z" fill="#F0F0F0"/>
<path d="M95.5682 8.51084C95.5682 11.4599 93.1889 13.8351 90.2545 13.8351C87.32 13.8351 84.9209 11.4599 84.9209 8.51084C84.9209 5.56174 87.3002 3.20641 90.2545 3.20641C93.2087 3.20641 95.5682 5.58153 95.5682 8.51084V8.51084Z" fill="#F1F1F1"/>
<path d="M95.5484 8.51084C95.5484 11.4402 93.1691 13.8153 90.2346 13.8153C87.3002 13.8153 84.9209 11.4402 84.9209 8.51084C84.9209 5.58153 87.3002 3.20641 90.2346 3.20641C93.1691 3.20641 95.5484 5.58153 95.5484 8.51084V8.51084Z" fill="#F2F2F2"/>
<path d="M95.5484 8.53063C95.5484 11.4599 93.1691 13.8351 90.2346 13.8351C87.3002 13.8351 84.9209 11.4599 84.9209 8.53063C84.9209 5.60132 87.3002 3.2262 90.2346 3.2262C93.1691 3.2262 95.5484 5.60132 95.5484 8.53063V8.53063Z" fill="#F3F3F3"/>
<path d="M95.5484 8.53063C95.5484 11.4599 93.1691 13.8351 90.2545 13.8351C87.3398 13.8351 84.9407 11.4599 84.9407 8.53063C84.9407 5.60132 87.32 3.24599 90.2545 3.24599C93.1889 3.24599 95.5484 5.62111 95.5484 8.53063V8.53063Z" fill="#F4F4F4"/>
<path d="M95.5286 8.53063C95.5286 11.4599 93.1493 13.8153 90.2346 13.8153C87.32 13.8153 84.9407 11.4402 84.9407 8.53063C84.9407 5.62111 87.32 3.24599 90.2346 3.24599C93.1493 3.24599 95.5286 5.62111 95.5286 8.53063Z" fill="#F5F5F5"/>
<path d="M95.5286 8.53063C95.5286 11.4402 93.1691 13.8153 90.2346 13.8153C87.3002 13.8153 84.9407 11.4402 84.9407 8.53063C84.9407 5.62111 87.3002 3.24599 90.2346 3.24599C93.1691 3.24599 95.5286 5.60132 95.5286 8.53063Z" fill="#F6F6F6"/>
<path d="M95.5285 8.55042C95.5285 11.4599 93.1691 13.8153 90.2545 13.8153C87.3398 13.8153 84.9605 11.4402 84.9605 8.55042C84.9605 5.6607 87.32 3.26579 90.2545 3.26579C93.1889 3.26579 95.5285 5.62111 95.5285 8.55042V8.55042Z" fill="#F7F7F7"/>
<path d="M95.5087 8.55043C95.5087 11.4599 93.1493 13.8153 90.2346 13.8153C87.32 13.8153 84.9605 11.4599 84.9605 8.55043C84.9605 5.64091 87.32 3.28558 90.2346 3.28558C93.1493 3.28558 95.5087 5.64091 95.5087 8.55043Z" fill="#F8F8F8"/>
<path d="M95.5087 8.55042C95.5087 11.4599 93.1493 13.8153 90.2545 13.8153C87.3597 13.8153 84.9804 11.4599 84.9804 8.55042C84.9804 5.6409 87.3398 3.30537 90.2545 3.30537C93.1691 3.30537 95.5087 5.6607 95.5087 8.55042V8.55042Z" fill="#F9F9F9"/>
<path d="M95.5087 8.55042C95.5087 11.4402 93.1493 13.7955 90.2545 13.7955C87.3596 13.7955 85.0002 11.4402 85.0002 8.55042C85.0002 5.6607 87.3596 3.30537 90.2545 3.30537C93.1493 3.30537 95.5087 5.6607 95.5087 8.55042Z" fill="#FAFAFA"/>
<path d="M95.4889 8.55042C95.4889 11.4402 93.1294 13.7955 90.2346 13.7955C87.3398 13.7955 84.9804 11.4402 84.9804 8.55042C84.9804 5.6607 87.3398 3.30537 90.2346 3.30537C93.1294 3.30537 95.4889 5.6607 95.4889 8.55042Z" fill="#FBFBFB"/>
<path d="M95.4889 8.55042C95.4889 11.4402 93.1493 13.7955 90.2545 13.7955C87.3596 13.7955 85.0002 11.4402 85.0002 8.55042C85.0002 5.6607 87.3398 3.30537 90.2545 3.30537C93.1691 3.30537 95.4889 5.64091 95.4889 8.55042Z" fill="#FCFCFC"/>
<path d="M95.4889 8.55042C95.4889 11.4402 93.1294 13.7757 90.2545 13.7757C87.3795 13.7757 85.02 11.4402 85.02 8.55042C85.02 5.6607 87.3597 3.32516 90.2545 3.32516C93.1493 3.32516 95.4889 5.6607 95.4889 8.55042Z" fill="#FDFDFD"/>
<path d="M95.4691 8.57022C95.4691 11.4599 93.1294 13.7955 90.2346 13.7955C87.3398 13.7955 85.0002 11.4599 85.0002 8.57022C85.0002 5.68049 87.3398 3.34496 90.2346 3.34496C93.1294 3.34496 95.4691 5.68049 95.4691 8.57022Z" fill="#FEFEFE"/>
<path d="M95.4691 8.57022C95.4691 11.4402 93.1294 13.7757 90.2545 13.7757C87.3795 13.7757 85.02 11.4402 85.02 8.57022C85.02 5.70028 87.3597 3.34496 90.2545 3.34496C93.1493 3.34496 95.4691 5.68049 95.4691 8.57022Z" fill="white"/>
<path style="mix-blend-mode:screen" d="M85.714 15.0028C86.8441 17.0217 88.2915 19.3176 90.0364 21.7917C90.1157 21.9105 90.195 21.95 90.2545 21.95C90.2941 21.95 90.3734 21.8907 90.4527 21.7917C90.9682 21.0594 91.4441 20.3468 91.9001 19.6739C89.3622 18.8624 87.1812 17.18 85.714 15.0028Z" fill="url(#paint13_linear_201_364)"/>
<path d="M90.7303 11.4402C91.0872 11.4402 91.3846 11.4006 91.6622 11.3016C91.9398 11.2026 92.1579 11.0839 92.3562 10.9255C92.5346 10.7672 92.6734 10.5891 92.7725 10.3713C92.8717 10.1536 92.9113 9.93591 92.9113 9.6786C92.9113 9.34213 92.832 9.08482 92.6337 8.86711C92.4553 8.64939 92.1579 8.51084 91.7812 8.41187C91.9596 8.3525 92.1182 8.27333 92.2372 8.19416C92.3562 8.11498 92.4751 8.01602 92.5544 7.89727C92.6337 7.7983 92.6932 7.67955 92.7329 7.56079C92.7725 7.44203 92.7924 7.32328 92.7924 7.18473C92.7924 6.94722 92.7527 6.7295 92.6734 6.53157C92.5941 6.33365 92.4553 6.17531 92.2768 6.03676C92.0984 5.89821 91.8605 5.79925 91.5829 5.72007C91.3053 5.6409 90.9484 5.60132 90.5519 5.60132H88.4105V11.4402H90.7501H90.7303ZM89.7588 6.61074H90.5519C90.7105 6.61074 90.8294 6.61074 90.9484 6.65033C91.0674 6.67012 91.1467 6.70971 91.226 6.76908C91.3053 6.82846 91.345 6.90763 91.3846 6.9868C91.4243 7.08577 91.4441 7.18473 91.4441 7.32328C91.4441 7.46183 91.4243 7.58058 91.3846 7.67955C91.345 7.77851 91.2855 7.83789 91.1863 7.89727C91.107 7.95664 91.0079 7.99623 90.8889 8.01602C90.77 8.03581 90.6312 8.05561 90.4725 8.05561H89.7588V6.61074V6.61074ZM90.7105 8.96607C90.8889 8.96607 91.0277 8.96607 91.1268 9.00565C91.2458 9.04524 91.3251 9.08482 91.4044 9.1442C91.4837 9.20358 91.5234 9.28275 91.5432 9.36192C91.5829 9.44109 91.5829 9.54006 91.5829 9.65881C91.5829 9.75777 91.5829 9.83695 91.5432 9.93591C91.5234 10.0349 91.4639 10.114 91.4044 10.1734C91.3449 10.2526 91.2458 10.312 91.1467 10.3516C91.0277 10.3911 90.8889 10.4109 90.7105 10.4109H89.7588V8.96607H90.7105V8.96607Z" fill="#17AD00"/>
<defs>
<radialGradient id="paint0_radial_201_364" cx="0" cy="0" r="1" gradientUnits="userSpaceOnUse" gradientTransform="translate(9.62384 72.9359) scale(7.28936 1.99906)">
<stop stop-color="#ABABAB"/>
<stop offset="0.13" stop-color="#B9B9B9"/>
<stop offset="0.51" stop-color="#DFDFDF"/>
<stop offset="0.81" stop-color="#F6F6F6"/>
<stop offset="1" stop-color="white"/>
</radialGradient>
<radialGradient id="paint1_radial_201_364" cx="0" cy="0" r="1" gradientUnits="userSpaceOnUse" gradientTransform="translate(9.62383 72.9359) scale(4.65508 1.27663)">
<stop stop-color="#8A8A8A"/>
<stop offset="0.31" stop-color="#B9B9B9"/>
<stop offset="0.61" stop-color="#DFDFDF"/>
<stop offset="0.85" stop-color="#F6F6F6"/>
<stop offset="1" stop-color="white"/>
</radialGradient>
<radialGradient id="paint2_radial_201_364" cx="0" cy="0" r="1" gradientUnits="userSpaceOnUse" gradientTransform="translate(5.61116 53.1037) scale(9.93354 9.91612)">
<stop stop-color="#FFD900"/>
<stop offset="1" stop-color="#FFAB00"/>
</radialGradient>
<radialGradient id="paint3_radial_201_364" cx="0" cy="0" r="1" gradientUnits="userSpaceOnUse" gradientTransform="translate(7.9508 78.6433) scale(7.05856 17.7564)">
<stop offset="0.28" stop-color="#FFEB00"/>
<stop offset="0.37" stop-color="#FFE000"/>
<stop offset="0.58" stop-color="#FFCC00"/>
<stop offset="0.79" stop-color="#FFC000"/>
<stop offset="1" stop-color="#FFBC00"/>
</radialGradient>
<linearGradient id="paint4_linear_201_364" x1="0.991379" y1="52.1734" x2="15.3464" y2="52.1734" gradientUnits="userSpaceOnUse">
<stop offset="0.28" stop-color="#6B6B6B"/>
<stop offset="0.43" stop-color="#515151"/>
<stop offset="0.82" stop-color="#161616"/>
<stop offset="1"/>
</linearGradient>
<linearGradient id="paint5_linear_201_364" x1="8.14907" y1="51.8963" x2="8.14907" y2="64.7418" gradientUnits="userSpaceOnUse">
<stop stop-color="#A87B00"/>
<stop offset="0.26" stop-color="#B08819"/>
<stop offset="0.8" stop-color="#C6A95B"/>
<stop offset="1" stop-color="#CFB775"/>
</linearGradient>
<linearGradient id="paint6_linear_201_364" x1="6.1465" y1="72.0255" x2="7.4901" y2="60.8025" gradientUnits="userSpaceOnUse">
<stop/>
<stop offset="0.15" stop-color="#080808"/>
<stop offset="0.39" stop-color="#212121"/>
<stop offset="0.7" stop-color="#484848"/>
<stop offset="1" stop-color="#757575"/>
</linearGradient>
<radialGradient id="paint7_radial_201_364" cx="0" cy="0" r="1" gradientUnits="userSpaceOnUse" gradientTransform="translate(91.611 22.9298) scale(7.28936 1.99906)">
<stop stop-color="#ABABAB"/>
<stop offset="0.13" stop-color="#B9B9B9"/>
<stop offset="0.51" stop-color="#DFDFDF"/>
<stop offset="0.81" stop-color="#F6F6F6"/>
<stop offset="1" stop-color="white"/>
</radialGradient>
<radialGradient id="paint8_radial_201_364" cx="0" cy="0" r="1" gradientUnits="userSpaceOnUse" gradientTransform="translate(91.611 22.9298) scale(4.65509 1.27663)">
<stop stop-color="#8A8A8A"/>
<stop offset="0.31" stop-color="#B9B9B9"/>
<stop offset="0.61" stop-color="#DFDFDF"/>
<stop offset="0.85" stop-color="#F6F6F6"/>
<stop offset="1" stop-color="white"/>
</radialGradient>
<radialGradient id="paint9_radial_201_364" cx="0" cy="0" r="1" gradientUnits="userSpaceOnUse" gradientTransform="translate(87.6967 3.08765) scale(9.93354 9.91612)">
<stop stop-color="#D0FF00"/>
<stop offset="1" stop-color="#8DAD00"/>
</radialGradient>
<radialGradient id="paint10_radial_201_364" cx="0" cy="0" r="1" gradientUnits="userSpaceOnUse" gradientTransform="translate(90.0562 28.6162) scale(7.05856 17.7564)">
<stop offset="0.28" stop-color="#EAFF91"/>
<stop offset="0.4" stop-color="#D4EE65"/>
<stop offset="0.52" stop-color="#C3E141"/>
<stop offset="0.64" stop-color="#B5D624"/>
<stop offset="0.76" stop-color="#ABCF10"/>
<stop offset="0.88" stop-color="#A5CA04"/>
<stop offset="1" stop-color="#A4C900"/>
</radialGradient>
<linearGradient id="paint11_linear_201_364" x1="83.0967" y1="2.17719" x2="97.432" y2="2.17719" gradientUnits="userSpaceOnUse">
<stop offset="0.28" stop-color="#6B6B6B"/>
<stop offset="0.43" stop-color="#515151"/>
<stop offset="0.82" stop-color="#161616"/>
<stop offset="1"/>
</linearGradient>
<linearGradient id="paint12_linear_201_364" x1="90.2346" y1="1.8803" x2="90.2346" y2="14.7257" gradientUnits="userSpaceOnUse">
<stop stop-color="#89A800"/>
<stop offset="0.26" stop-color="#94B019"/>
<stop offset="0.8" stop-color="#B2C65B"/>
<stop offset="1" stop-color="#BECF75"/>
</linearGradient>
<linearGradient id="paint13_linear_201_364" x1="88.2321" y1="22.0094" x2="89.5757" y2="10.7864" gradientUnits="userSpaceOnUse">
<stop/>
<stop offset="0.15" stop-color="#080808"/>
<stop offset="0.39" stop-color="#212121"/>
<stop offset="0.7" stop-color="#484848"/>
<stop offset="1" stop-color="#757575"/>
</linearGradient>
</defs>
</svg>
