<svg width="122" height="125" viewBox="0 0 122 125" fill="none" xmlns="http://www.w3.org/2000/svg">
<path d="M40.6485 105.959C40.1303 105.674 39.7526 105.447 39.5403 105.316C39.3146 105.207 38.9202 105.009 38.402 104.724C35.3264 103.035 29.8556 99.3796 27.7629 93.8883C25.839 88.8369 31.2413 83.4156 33.2621 81.6179L54.0154 45.0049C58.1841 37.651 62.2526 37.1511 64.9437 36.5697L82.2487 7.79208C82.364 5.65288 83.4638 3.66362 85.3259 2.25415C87.1244 0.218238 91.0106 0.581436 95.9616 3.30042C100.993 6.06439 103.373 9.20156 102.489 11.8322C102.253 14.0914 101.16 16.0274 99.45 17.2386L84.2812 47.1907C85.2256 49.7681 86.974 53.4651 82.9624 60.904L62.9914 97.9468C62.5451 100.611 60.8318 108.058 55.5198 109.134C49.7448 110.304 43.7224 107.645 40.6468 105.957L40.6485 105.959Z" fill="#B7D2ED"/>
<path d="M98.6526 15.0716C98.2815 15.5798 97.7684 16.0479 97.0663 16.3911L92.2257 25.8526L91.9198 26.4491C91.8296 26.5157 91.7242 26.5707 91.6006 26.614C90.3436 27.0472 87.3566 26.2375 84.2293 24.5215C80.7225 22.5955 78.2821 20.2131 78.4944 18.9968L78.5662 18.8769L78.7618 18.5453L81.7103 13.5972L84.241 9.3471C83.9702 6.82638 85.8807 5.31027 86.5694 4.85211C86.5727 4.84045 86.5794 4.82879 86.5861 4.81712C87.1861 3.73086 90.6043 4.46392 94.2214 6.45152C97.8402 8.43911 100.286 10.9282 99.6856 12.0128C99.6705 12.0394 99.6538 12.0644 99.6337 12.0894C99.6103 12.6892 99.4616 13.9737 98.6526 15.0716V15.0716Z" fill="#7D94D1"/>
<path d="M92.2258 25.8516L91.9199 26.4481C91.8297 26.5147 91.7244 26.5697 91.6007 26.613C91.3884 26.6014 91.1761 26.5547 90.9722 26.5064C86.3271 25.3701 81.55 22.8044 78.6566 19.0025C78.6232 18.9609 78.5948 18.9192 78.5663 18.8742L78.7619 18.5427L81.7104 13.5945C82.4509 13.4413 83.2131 13.4463 83.9084 13.6595C85.2958 14.0877 85.9694 15.2822 87.198 15.9636C88.4482 16.6567 89.9526 16.735 91.3466 16.8067C91.6926 16.8233 92.0553 16.8383 92.3729 16.6967C93.1535 16.3468 93.2839 15.2589 93.9558 14.7308C94.3971 14.3859 94.9921 14.3376 95.5504 14.3043C96.1455 14.2676 96.7388 14.2326 97.3322 14.196C97.5562 14.1826 97.7852 14.1677 97.9975 14.2376C98.3635 14.3542 98.5808 14.6891 98.6544 15.069C98.2833 15.5771 97.7701 16.0453 97.0681 16.3885L92.2275 25.85L92.2258 25.8516Z" fill="white"/>
<path d="M59.717 97.6076C59.717 97.6076 74.6853 70.536 79.6446 61.5677C81.1439 58.857 81.8677 56.5129 82.1451 54.5636C82.7853 50.0686 81.0637 47.6662 81.0637 47.6662L91.9201 26.4508C90.9305 27.2005 87.6661 26.4091 84.2312 24.5232C80.7244 22.5972 78.284 20.2148 78.4963 18.9986L66.2626 39.5359C66.2626 39.5359 60.1884 39.1894 55.2307 48.156C50.2714 57.126 35.3032 84.1959 35.3032 84.1959C35.3032 84.1959 29.2858 89.0941 30.7684 92.5711C33.2338 98.3457 40.9812 102.026 41.2821 102.168C41.4375 102.264 43.7726 103.734 46.8849 104.837C49.3437 105.705 52.2922 106.346 55.0335 105.901C58.7743 105.295 59.717 97.6093 59.717 97.6093V97.6076Z" fill="#FF9D48"/>
<path d="M60.9588 42.917C63.5497 41.8224 66.5617 42.4572 69.1391 43.5867C71.4609 44.6047 73.6121 46.0108 75.4758 47.7269C76.1477 48.3466 76.8096 49.053 77.0186 49.9427C77.0604 50.121 77.0821 50.3142 77.0119 50.4825C76.7578 51.0923 75.8368 50.7541 75.3153 50.3475C72.3885 48.0601 68.9135 46.1574 65.1944 46.2091C64.7732 46.2158 64.3035 46.2707 64.0344 46.5939C63.8388 46.8305 63.8004 47.1554 63.7703 47.4603C63.6851 48.3133 63.5998 49.168 63.5162 50.021C63.4527 50.6658 63.3708 51.3538 62.9513 51.8503C62.3713 52.5367 61.2781 52.6167 60.4741 52.2135C59.6701 51.8103 59.1185 51.0306 58.7474 50.2126C57.4487 47.3653 57.8432 44.2315 60.9605 42.9153L60.9588 42.917Z" fill="#FFC581"/>
<path d="M55.541 105.224C56.6598 103.2 52.0948 98.5538 45.3447 94.8459C38.5947 91.1379 32.2156 89.7724 31.0968 91.7959C29.978 93.8194 34.543 98.4656 41.2931 102.174C48.0431 105.882 54.4222 107.247 55.541 105.224Z" fill="#FFC581"/>
<path d="M98.3571 13.1491C97.9459 13.1491 97.4545 13.0958 96.8661 12.9691C95.3651 12.6476 93.5448 11.9245 91.7413 10.9349C88.3164 9.05393 85.0687 6.23998 86.0248 4.50895C86.334 3.94916 87.1731 3.38104 89.4045 3.8592C90.9055 4.18074 92.7258 4.90381 94.5293 5.89344C96.3329 6.88307 97.9158 8.03097 98.9906 9.12557C100.589 10.7516 100.553 11.7596 100.244 12.3194C100.017 12.7326 99.502 13.1474 98.3554 13.1474L98.3571 13.1491ZM87.9102 4.95212C87.3837 4.95212 87.1731 5.07374 87.1447 5.12372C86.919 5.53191 88.4668 7.68277 92.3581 9.82197C94.0546 10.7533 95.7512 11.4297 97.1335 11.7263C98.5894 12.0378 99.0825 11.7862 99.126 11.7063C99.1694 11.6263 99.1209 11.0782 98.0779 10.0169C97.0884 9.00894 95.6091 7.94101 93.9126 7.00969C92.216 6.07837 90.5194 5.40195 89.1371 5.1054C88.6089 4.99211 88.2078 4.95379 87.9086 4.95379L87.9102 4.95212Z" fill="white"/>
<path d="M92.1055 26.2318C91.487 27.3513 87.9551 26.595 84.2177 24.5424C80.4802 22.4898 77.9546 19.9174 78.573 18.7979C79.1915 17.6783 82.7234 18.4347 86.4608 20.4872C90.1966 22.5398 92.7239 25.1122 92.1055 26.2318Z" fill="white"/>
<path d="M98.8765 18.3109C96.4529 18.3109 92.7772 16.978 89.4209 15.1337C86.83 13.7109 84.5551 12.0632 83.0157 10.4971C81.284 8.73443 80.6722 7.25665 81.2456 6.22037C81.4111 5.92048 81.7905 5.81219 82.0897 5.97713C82.3906 6.14207 82.4992 6.51859 82.3337 6.81848C82.1198 7.205 82.5226 8.22462 83.9033 9.63077C85.3591 11.1135 87.5321 12.683 90.0193 14.0491C95.4901 17.0547 99.7357 17.6061 100.257 16.6648C100.423 16.3649 100.802 16.2566 101.101 16.4216C101.402 16.5865 101.511 16.963 101.345 17.2629C100.941 17.9927 100.057 18.3109 98.8748 18.3109H98.8765Z" fill="white"/>
<path d="M84.8227 11.959C84.8227 11.959 72.4686 33.8042 72.1176 34.4373C71.7666 35.0704 74.0549 37.4278 74.8722 35.95C75.6896 34.4723 87.9066 13.3768 87.9066 13.3768L84.8243 11.959H84.8227Z" fill="white"/>
<path d="M62.3376 44.2989C60.1764 44.2123 46.1642 69.5528 48.2686 71.0756C50.373 72.5984 65.7391 49.4703 66.3609 48.3457C66.9844 47.2195 63.7784 44.3572 62.3376 44.3006V44.2989Z" fill="white"/>
<path d="M36.0653 87.3742C33.7552 88.0406 32.4615 93.2253 33.0917 94.3066C33.7218 95.3862 38.9486 91.0395 38.6444 90.2598C38.3385 89.48 37.0882 87.0793 36.0653 87.3742V87.3742Z" fill="white"/>
<path d="M83.1279 47.9354C78.6098 47.9354 72.7345 44.0352 72.4637 43.8536C72.1712 43.657 72.0943 43.2622 72.2899 42.9706C72.4871 42.6791 72.8833 42.6008 73.1758 42.7974C73.2443 42.844 80.0807 47.3823 84.1558 46.5693C84.5018 46.501 84.8378 46.7242 84.908 47.0674C84.9765 47.4123 84.7526 47.7472 84.4066 47.8155C83.997 47.8971 83.5691 47.9338 83.1262 47.9338L83.1279 47.9354Z" fill="white"/>
<path d="M55.0333 105.898C52.2921 106.343 49.3435 105.702 46.8848 104.834C45.7933 103.159 45.4339 101.215 46.3766 99.2942C48.0197 95.9388 51.7137 94.2028 54.4266 91.8853C57.8815 88.9364 60.7131 85.2978 63.1284 81.4725C66.8909 75.5214 69.7391 69.0455 73.2526 62.9461C74.9041 60.0755 76.7845 57.2066 79.5525 55.3806C80.3147 54.8774 81.2808 54.4742 82.1466 54.5592C81.8708 56.5085 81.1454 58.8543 79.6461 61.5633C74.6868 70.5333 59.7185 97.6032 59.7185 97.6032C59.7185 97.6032 58.7758 105.289 55.035 105.895L55.0333 105.898Z" fill="#FFC581"/>
<path d="M51.4563 89.9035C52.3264 89.0771 52.3596 87.704 51.5304 86.8367C50.7013 85.9694 49.3237 85.9364 48.4536 86.7628C47.5835 87.5893 47.5503 88.9624 48.3795 89.8297C49.2087 90.6969 50.5862 90.73 51.4563 89.9035Z" fill="#FF9D48"/>
<path d="M55.65 85.84C55.1903 85.84 54.7257 85.7284 54.2961 85.4918C52.9372 84.7454 52.4407 83.0344 53.1896 81.6799C53.5523 81.0234 54.1507 80.547 54.8728 80.3387C55.5948 80.1304 56.3554 80.2154 57.0139 80.5769C57.6725 80.9385 58.1506 81.5349 58.3595 82.2546C58.5684 82.9744 58.4832 83.7324 58.1205 84.3889C57.6073 85.3152 56.6429 85.84 55.65 85.84ZM55.6567 81.4999C55.5129 81.4999 55.3692 81.5199 55.2271 81.5616C54.8326 81.6749 54.505 81.9364 54.3078 82.2946C53.8983 83.036 54.1691 83.9707 54.9129 84.3789C55.655 84.787 56.5927 84.5171 57.0039 83.7757C57.2028 83.4175 57.248 83.0027 57.1343 82.6095C57.0206 82.2163 56.7582 81.8898 56.3988 81.6932C56.1682 81.5666 55.9141 81.5016 55.6584 81.5016L55.6567 81.4999Z" fill="#FFE6C5"/>
<path d="M85.6819 33.6857C85.2122 33.6857 84.7492 33.5674 84.3263 33.3358C83.6678 32.9743 83.1897 32.3778 82.9808 31.6581C82.7718 30.9384 82.8571 30.1803 83.2198 29.5239C83.9686 28.1694 85.6853 27.6746 87.0442 28.421C87.7027 28.7825 88.1808 29.3789 88.3897 30.0987C88.5987 30.8184 88.5134 31.5765 88.1507 32.2329C87.788 32.8893 87.1896 33.3658 86.4675 33.5741C86.2084 33.649 85.9443 33.6857 85.6802 33.6857H85.6819ZM85.6886 29.344C85.1454 29.344 84.6188 29.6305 84.338 30.137C84.1391 30.4952 84.094 30.91 84.2077 31.3032C84.3213 31.6964 84.5837 32.023 84.9431 32.2196C85.3041 32.4178 85.7187 32.4628 86.1131 32.3495C86.5076 32.2362 86.8352 31.9746 87.0325 31.6164C87.2314 31.2582 87.2765 30.8434 87.1628 30.4502C87.0492 30.057 86.7868 29.7305 86.4274 29.5339C86.1934 29.4056 85.9377 29.344 85.6869 29.344H85.6886Z" fill="#FFE6C5"/>
<path d="M47.5634 76.2839C47.1204 77.0852 46.1092 77.3768 45.3069 76.9353C44.5029 76.4938 44.2104 75.4858 44.6533 74.6861C45.0963 73.8847 46.1075 73.5932 46.9098 74.0347C47.7138 74.4762 48.0063 75.4842 47.5634 76.2839Z" fill="#FF9D48"/>
<path d="M63.7853 79.4141C63.3424 80.2155 62.3311 80.5071 61.5288 80.0656C60.7248 79.6241 60.4323 78.6161 60.8752 77.8164C61.3182 77.015 62.3294 76.7235 63.1318 77.165C63.9357 77.6065 64.2283 78.6144 63.7853 79.4141Z" fill="#FF9D48"/>
<path d="M70.7205 55.3811C70.2775 56.1825 69.2663 56.474 68.464 56.0325C67.66 55.591 67.3675 54.5831 67.8104 53.7834C68.2534 52.982 69.2646 52.6905 70.0669 53.132C70.8709 53.5735 71.1634 54.5814 70.7205 55.3811Z" fill="#FF9D48"/>
<path d="M81.219 36.9575C80.776 37.7589 79.7648 38.0504 78.9625 37.6089C78.1585 37.1674 77.8659 36.1594 78.3089 35.3597C78.7518 34.5584 79.7631 34.2668 80.5654 34.7083C81.3694 35.1498 81.6619 36.1578 81.219 36.9575Z" fill="#FF9D48"/>
<path d="M52.5494 111.043C47.5383 111.043 42.7762 108.894 40.1235 107.438C39.612 107.156 39.2326 106.929 38.9952 106.784C38.7445 106.663 38.35 106.463 37.8386 106.183C34.6326 104.422 28.9245 100.603 26.7214 94.8206C26.5894 94.4757 26.7632 94.0908 27.1092 93.9592C27.4552 93.8276 27.8413 94.0025 27.9734 94.3457C30.0243 99.7304 35.44 103.341 38.4854 105.013C38.9936 105.292 39.378 105.485 39.612 105.598L39.6739 105.632C39.8945 105.768 40.2639 105.99 40.7704 106.268C43.8158 107.941 49.7714 110.576 55.4327 109.428C60.4806 108.406 62.1187 100.882 62.4998 98.5992L62.5182 98.4909L62.57 98.3942L82.872 60.7383C86.5978 53.8275 85.2856 50.3188 84.3279 47.7564C84.2744 47.6148 84.2226 47.4765 84.1741 47.3416L84.0755 47.07L99.6254 16.3631C99.7926 16.0332 100.195 15.9016 100.525 16.0682C100.854 16.2348 100.988 16.6363 100.821 16.9646L85.5313 47.155C85.5481 47.2 85.5648 47.2449 85.5815 47.2916C86.5693 49.9339 88.0637 53.9275 84.0504 61.3713L63.8002 98.9307C63.242 102.188 61.3582 109.592 55.6968 110.738C54.6471 110.951 53.5924 111.045 52.5477 111.045L52.5494 111.043Z" fill="#8BAED6"/>
<path d="M59.0651 98.3015C53.0126 98.3015 43.7358 92.1487 43.3296 91.8772C43.022 91.6723 42.9401 91.2574 43.1457 90.9509C43.3513 90.6443 43.7675 90.5627 44.0751 90.7676C44.1754 90.8342 54.1208 97.4318 59.6584 96.9403C60.0278 96.907 60.3521 97.1785 60.3839 97.5451C60.4156 97.9116 60.1449 98.2365 59.7771 98.2681C59.5465 98.2881 59.3074 98.2981 59.0651 98.2981V98.3015Z" fill="#8BAED6"/>
<mask id="mask0_201_365" style="mask-type:alpha" maskUnits="userSpaceOnUse" x="0" y="3" width="122" height="122">
<circle cx="60.7056" cy="64.2944" r="60.7056" fill="#171718"/>
</mask>
<g mask="url(#mask0_201_365)">
<path d="M-5.01413 36.9385L30.1607 39.3777C30.1607 39.3777 34.1376 37.853 38.4197 37.5488C42.7019 37.2445 57.9956 38.8453 61.6655 40.3683C65.3355 41.893 76.9592 49.4389 78.7942 51.2679C80.6292 53.0969 87.0533 61.329 87.2059 62.3956C87.3585 63.4623 85.8288 65.1391 84.4534 64.6827C83.078 64.2263 76.8066 57.5189 75.2769 56.9086C73.7472 56.2984 65.1829 51.8781 65.1829 51.8781C65.1829 51.8781 72.8297 57.671 75.2769 60.4145C77.7241 63.158 82.3115 68.9509 82.4642 69.5611C82.6168 70.1713 81.1269 73.2307 78.9468 71.3901C76.9592 69.7133 74.512 67.1219 71.4526 64.5306C69.8898 63.2059 59.9832 58.1274 59.9832 58.1274C59.9832 58.1274 68.8528 65.5972 69.7703 66.6638C70.6878 67.7305 77.2645 73.9815 77.4171 75.2002C77.5698 76.419 76.9576 77.7916 75.5822 77.6394C74.2051 77.4873 68.5475 71.8465 66.8652 70.932C65.1829 70.0175 56.4659 65.4451 56.4659 65.4451C56.4659 65.4451 64.418 70.932 65.1829 72.0003C65.9477 73.067 71.7596 79.6222 72.0649 80.5367C72.3701 81.4512 71.1474 82.6717 69.6177 82.3657C68.088 82.0615 61.8182 76.2685 60.4411 75.5062C59.0641 74.7438 51.5715 70.7799 49.8892 70.0192C48.2068 69.2568 32.7605 66.6655 30.6186 65.5988C28.4767 64.5322 26.0312 61.0264 26.0312 61.0264L-10.5207 63.1613C-10.5207 63.1613 -14.2454 61.496 -12.9679 50.8131C-11.5908 39.3033 -5.01579 36.9418 -5.01579 36.9418L-5.01413 36.9385Z" fill="#F59A84"/>
<path d="M70.0953 83.0158C69.8979 83.0158 69.6988 82.9959 69.4997 82.9562C68.4843 82.7545 66.3756 81.0561 63.273 78.4879C61.9126 77.3618 60.6284 76.2984 60.1473 76.0322C58.7453 75.2566 51.2743 71.3076 49.6384 70.5667C48.9449 70.2525 45.2219 69.5034 41.62 68.7774C36.6941 67.7852 31.5989 66.7599 30.348 66.1364C28.435 65.1839 26.3761 62.5198 25.734 61.645L-10.4844 63.7601C-10.8212 63.7799 -11.1049 63.5252 -11.1248 63.1928C-11.1447 62.8604 -10.8892 62.5743 -10.5558 62.5545L25.9961 60.4196C26.2118 60.408 26.4076 60.5056 26.5287 60.6776C26.5519 60.7106 28.9128 64.0709 30.8905 65.0549C31.9971 65.6072 37.4656 66.7086 41.8605 67.5933C46.4861 68.5244 49.3614 69.1131 50.1395 69.467C51.8417 70.2376 59.2878 74.1751 60.7362 74.9771C61.3153 75.2979 62.5214 76.2951 64.0478 77.5585C65.9989 79.1742 68.9472 81.6151 69.7386 81.7722C70.4503 81.9144 71.0194 81.6085 71.2898 81.3025C71.4674 81.1024 71.5454 80.8808 71.4939 80.7254C71.2749 80.1747 68.5706 76.9847 66.9562 75.0796C65.8513 73.7765 64.9786 72.7463 64.6949 72.3494C64.1822 71.635 59.1667 68.0382 56.1256 65.9396C55.8618 65.7577 55.7871 65.4038 55.953 65.131C56.1189 64.8581 56.469 64.7605 56.7527 64.9094C56.8406 64.9557 65.4929 69.4951 67.1603 70.4013C67.9219 70.8164 69.2873 71.9955 70.8684 73.3631C72.4247 74.7076 75.0295 76.9599 75.655 77.0393C75.9735 77.074 76.224 76.993 76.4231 76.7929C76.7417 76.4721 76.8976 75.8751 76.823 75.2748C76.6239 74.4711 72.725 70.5353 71.0592 68.8535C70.1982 67.9836 69.576 67.3569 69.3172 67.0559C68.5905 66.2108 62.0552 60.6561 59.5981 58.5873C59.3625 58.3888 59.3144 58.0465 59.4853 57.7918C59.6562 57.5372 59.993 57.4495 60.2651 57.5901C60.6715 57.7985 70.2529 62.7149 71.8506 64.0693C73.5429 65.5031 75.0544 66.9418 76.3883 68.2102C77.5016 69.2685 78.4622 70.183 79.3448 70.9272C80.103 71.5672 80.5809 71.3406 80.7368 71.2679C81.4088 70.9503 81.8435 70.016 81.875 69.6985C81.4585 68.8716 77.3705 63.6608 74.8304 60.8148C72.4496 58.1457 64.899 52.4157 64.8226 52.3578C64.5721 52.1676 64.5091 51.8203 64.6766 51.5541C64.8442 51.2895 65.1876 51.1969 65.4664 51.3407C65.551 51.3854 74.0224 55.7545 75.5073 56.3465C76.317 56.669 77.8682 58.0928 80.327 60.3964C81.9131 61.8831 84.0866 63.9205 84.6507 64.109C85.1799 64.2843 85.7042 63.9155 85.905 63.7485C86.4027 63.3351 86.6549 62.7794 86.6134 62.4801C86.5653 62.151 86.7959 61.8451 87.1277 61.7971C87.4579 61.7508 87.7648 61.979 87.8129 62.3098C87.9224 63.0721 87.4678 64.0213 86.6831 64.6746C85.9298 65.3013 85.0505 65.513 84.2707 65.2533C83.4943 64.9954 81.9529 63.5732 79.5008 61.2762C77.8151 59.6953 75.718 57.729 75.061 57.4677C74.3858 57.1982 72.4214 56.2291 70.3973 55.2104C72.4446 56.884 74.6114 58.7493 75.7379 60.0128C77.6293 62.1345 82.8339 68.5095 83.0612 69.4141C83.2371 70.1185 82.5436 71.5821 81.51 72.222C80.9708 72.5561 79.8708 72.953 78.5651 71.85C77.6542 71.0826 76.6355 70.1119 75.5554 69.0833C74.2348 67.8265 72.7366 66.401 71.0708 64.9888C70.3276 64.3587 67.3694 62.7116 64.5323 61.1902C66.9944 63.2987 69.7319 65.68 70.2396 66.2704C70.4702 66.5383 71.1438 67.2179 71.9236 68.0051C75.8806 71.9988 77.9114 74.1966 78.0275 75.1243C78.1486 76.0917 77.8666 77.0558 77.2892 77.6396C76.8263 78.1076 76.2157 78.3143 75.5256 78.2382C74.6048 78.1357 72.8544 76.6722 70.0804 74.2743C68.6801 73.0638 67.2333 71.8136 66.5863 71.4613C66.1068 71.2001 65.0433 70.6361 63.7724 69.9647C64.7281 70.7089 65.4581 71.329 65.687 71.6482C65.9425 72.0054 66.8451 73.0687 67.8887 74.3007C71.0194 77.9951 72.4496 79.7431 72.6503 80.345C72.8411 80.9156 72.6752 81.5737 72.2057 82.1029C71.6864 82.69 70.9166 83.0158 70.1069 83.0158H70.0953Z" fill="#E47767"/>
<path d="M26.0327 61.6289C25.8253 61.6289 25.6245 61.5231 25.5117 61.3329C23.9605 58.7283 24.79 54.1707 24.8249 53.9789C24.8862 53.6514 25.2031 53.4348 25.53 53.496C25.8585 53.5572 26.0758 53.8714 26.0144 54.1988C26.0061 54.2418 25.233 58.5034 26.552 60.716C26.7229 61.0021 26.6283 61.3726 26.3413 61.5429C26.2451 61.6008 26.1372 61.6272 26.0327 61.6272V61.6289Z" fill="#E47767"/>
</g>
</svg>
