<svg width="30" height="31" viewBox="0 0 30 31" fill="none" xmlns="http://www.w3.org/2000/svg">
<path d="M15 3.02051C19.0078 3.02051 19.4824 3.03809 21.0586 3.1084C22.5234 3.17285 23.3145 3.41895 23.8418 3.62402C24.5391 3.89355 25.043 4.22168 25.5645 4.74316C26.0918 5.27051 26.4141 5.76855 26.6836 6.46582C26.8887 6.99316 27.1348 7.79004 27.1992 9.24902C27.2695 10.8311 27.2871 11.3057 27.2871 15.3076C27.2871 19.3154 27.2695 19.79 27.1992 21.3662C27.1348 22.8311 26.8887 23.6221 26.6836 24.1494C26.4141 24.8467 26.0859 25.3506 25.5645 25.8721C25.0371 26.3994 24.5391 26.7217 23.8418 26.9912C23.3145 27.1963 22.5176 27.4424 21.0586 27.5068C19.4766 27.5771 19.002 27.5947 15 27.5947C10.9922 27.5947 10.5176 27.5771 8.94141 27.5068C7.47656 27.4424 6.68555 27.1963 6.1582 26.9912C5.46094 26.7217 4.95703 26.3936 4.43555 25.8721C3.9082 25.3447 3.58594 24.8467 3.31641 24.1494C3.11133 23.6221 2.86523 22.8252 2.80078 21.3662C2.73047 19.7842 2.71289 19.3096 2.71289 15.3076C2.71289 11.2998 2.73047 10.8252 2.80078 9.24902C2.86523 7.78418 3.11133 6.99316 3.31641 6.46582C3.58594 5.76855 3.91406 5.26465 4.43555 4.74316C4.96289 4.21582 5.46094 3.89355 6.1582 3.62402C6.68555 3.41895 7.48242 3.17285 8.94141 3.1084C10.5176 3.03809 10.9922 3.02051 15 3.02051ZM15 0.319336C10.9277 0.319336 10.418 0.336914 8.81836 0.407227C7.22461 0.477539 6.12891 0.735351 5.17969 1.10449C4.18945 1.49121 3.35156 2.00098 2.51953 2.83887C1.68164 3.6709 1.17188 4.50879 0.785156 5.49316C0.416016 6.44824 0.158203 7.53809 0.0878906 9.13184C0.0175781 10.7373 0 11.2471 0 15.3193C0 19.3916 0.0175781 19.9014 0.0878906 21.501C0.158203 23.0947 0.416016 24.1904 0.785156 25.1396C1.17188 26.1299 1.68164 26.9678 2.51953 27.7998C3.35156 28.6318 4.18945 29.1475 5.17383 29.5283C6.12891 29.8975 7.21875 30.1553 8.8125 30.2256C10.4121 30.2959 10.9219 30.3135 14.9941 30.3135C19.0664 30.3135 19.5762 30.2959 21.1758 30.2256C22.7695 30.1553 23.8652 29.8975 24.8145 29.5283C25.7988 29.1475 26.6367 28.6318 27.4688 27.7998C28.3008 26.9678 28.8164 26.1299 29.1973 25.1455C29.5664 24.1904 29.8242 23.1006 29.8945 21.5068C29.9648 19.9072 29.9824 19.3975 29.9824 15.3252C29.9824 11.2529 29.9648 10.7432 29.8945 9.14356C29.8242 7.5498 29.5664 6.4541 29.1973 5.50488C28.8281 4.50879 28.3184 3.6709 27.4805 2.83887C26.6484 2.00684 25.8105 1.49121 24.8262 1.11035C23.8711 0.741211 22.7813 0.483398 21.1875 0.413086C19.582 0.336914 19.0723 0.319336 15 0.319336Z" fill="white"/>
<path d="M15 7.61328C10.7461 7.61328 7.29492 11.0645 7.29492 15.3184C7.29492 19.5723 10.7461 23.0234 15 23.0234C19.2539 23.0234 22.7051 19.5723 22.7051 15.3184C22.7051 11.0645 19.2539 7.61328 15 7.61328ZM15 20.3164C12.2402 20.3164 10.002 18.0781 10.002 15.3184C10.002 12.5586 12.2402 10.3203 15 10.3203C17.7598 10.3203 19.998 12.5586 19.998 15.3184C19.998 18.0781 17.7598 20.3164 15 20.3164Z" fill="white"/>
<path d="M24.8086 7.30274C24.8086 8.29883 24 9.10157 23.0098 9.10157C22.0137 9.10157 21.2109 8.29297 21.2109 7.30274C21.2109 6.30664 22.0195 5.50391 23.0098 5.50391C24 5.50391 24.8086 6.3125 24.8086 7.30274Z" fill="white"/>
</svg>
