<svg width="140" height="140" viewBox="0 0 140 140" fill="none" xmlns="http://www.w3.org/2000/svg">
<mask id="mask0_201_362" style="mask-type:alpha" maskUnits="userSpaceOnUse" x="0" y="0" width="140" height="140">
<circle cx="70" cy="70" r="70" fill="#171718"/>
</mask>
<g mask="url(#mask0_201_362)">
<path d="M94.7912 197.533C94.7912 196.01 88.251 194.71 79.016 194.188C78.3054 193.023 76.2062 191.201 73.454 190.272C73.3514 187.564 73.3064 184.858 73.2839 182.15C73.2514 178.204 73.2889 174.255 73.374 170.309C73.5441 162.414 73.9119 154.519 74.4198 146.627C74.5449 144.653 74.685 142.681 74.8301 140.707L75.0553 137.746C75.1379 136.76 75.2129 135.772 75.303 134.786C75.4732 132.812 75.6733 130.84 75.881 128.866C76.0962 126.891 76.3288 124.919 76.5841 122.945C77.097 118.999 77.6974 115.05 78.413 111.104C78.7708 109.13 79.1586 107.158 79.589 105.184C79.8041 104.198 80.0268 103.209 80.267 102.223C80.5047 101.237 80.7524 100.249 81.0376 99.2631C81.6006 97.2813 81.6481 95.0799 81.0376 92.9558C79.2912 86.8755 72.9336 83.3562 66.8387 85.0984C60.7438 86.8406 57.2159 93.1829 58.9624 99.2631C59.2451 100.249 59.4928 101.237 59.733 102.223C59.9732 103.209 60.1933 104.198 60.411 105.184C60.8414 107.158 61.2292 109.13 61.587 111.104C62.3025 115.05 62.903 118.999 63.4159 122.945C63.6711 124.919 63.9038 126.891 64.119 128.866C64.3267 130.84 64.5293 132.812 64.697 134.786C64.7895 135.772 64.8621 136.76 64.9447 137.746L65.1699 140.707C65.315 142.681 65.4526 144.653 65.5802 146.627C66.0881 154.522 66.4584 162.417 66.626 170.309C66.7111 174.255 66.7511 178.204 66.7161 182.15C66.6936 184.858 66.6485 187.564 66.546 190.272C63.7937 191.201 61.6946 193.023 60.984 194.188C51.7515 194.71 45.2088 196.01 45.2088 197.533V200.408C45.2088 202.39 56.3077 203.998 69.9987 203.998C72.4182 203.998 74.7576 203.948 76.9669 203.853C77.4673 203.83 77.9627 203.808 78.4506 203.783C87.9807 203.281 94.7887 201.958 94.7887 200.406V197.53L94.7912 197.533Z" fill="#494949"/>
<path d="M70.0013 108.354C103.415 108.354 130.503 103.878 130.503 98.3571C130.503 92.8362 103.415 88.3607 70.0013 88.3607C36.5873 88.3607 9.5 92.8362 9.5 98.3571C9.5 103.878 36.5873 108.354 70.0013 108.354Z" fill="#494949"/>
<path d="M130.5 94.0066V98.3571L124.948 102.545L130.5 94.0066Z" fill="#494949"/>
<path d="M9.5 94.0066V98.3571L15.102 100.703L9.5 94.0066Z" fill="#494949"/>
<path d="M70.0013 104.003C103.415 104.003 130.503 99.5275 130.503 94.0066C130.503 88.4857 103.415 84.0101 70.0013 84.0101C36.5873 84.0101 9.5 88.4857 9.5 94.0066C9.5 99.5275 36.5873 104.003 70.0013 104.003Z" fill="#7E7D7D"/>
</g>
<path d="M91.0079 63.2347C91.0159 66.1951 89.9784 68.3185 88.303 69.6744C87.7481 70.1343 87.1288 70.4954 86.4506 70.7842C86.4211 70.7976 86.3889 70.8083 86.3568 70.8216H78.2904C78.2663 70.8083 78.2368 70.8002 78.2127 70.7895C75.5105 69.653 73.6768 67.2087 73.6554 63.3095C73.642 60.4347 76.1994 54.3159 76.1914 51.0372L88.3646 51.0292C88.3727 52.2995 88.8096 54.0886 89.327 55.9633C89.4182 56.3002 89.5174 56.6372 89.6112 56.9768C89.6192 56.9902 89.6246 57.0062 89.6273 57.0142C89.6568 57.1078 89.6809 57.2122 89.7104 57.3058C90.2331 59.1537 90.7559 60.9722 90.9408 62.3495C90.9542 62.4591 90.965 62.5661 90.973 62.665C90.9811 62.7346 90.9864 62.7961 90.9891 62.8629C90.9971 62.9405 91.0025 63.018 91.0025 63.0929C91.0079 63.1411 91.0079 63.1919 91.0079 63.2373V63.2347Z" fill="#EAEAEA"/>
<path d="M82.274 51.6176C85.6363 51.6176 88.362 51.353 88.362 51.0265C88.362 50.7001 85.6363 50.4355 82.274 50.4355C78.9117 50.4355 76.186 50.7001 76.186 51.0265C76.186 51.353 78.9117 51.6176 82.274 51.6176Z" fill="#C5C5C5"/>
<path d="M86.6784 86.2203C84.7563 85.8325 83.3731 84.2466 83.365 82.3907L83.3248 74.0817C83.3248 73.9479 83.3329 73.8196 83.349 73.6912C83.3731 73.504 83.416 73.3195 83.475 73.143C83.5044 73.052 83.5393 72.9611 83.5768 72.8755C83.6063 72.806 83.6438 72.7392 83.6787 72.6696C83.6867 72.6536 83.6948 72.6375 83.7028 72.6242C83.794 72.461 83.8985 72.3059 84.0191 72.1615C84.0352 72.1401 84.0513 72.1187 84.0674 72.1C84.4668 71.6373 85.0057 71.2763 85.6383 71.0811C85.9171 70.9955 86.1905 70.8939 86.4533 70.7816C86.5846 70.1478 86.4372 69.5594 85.9949 69.2198C85.3032 68.6876 84.1344 68.9417 83.2712 69.776C83.0299 69.5781 82.7458 69.4605 82.4402 69.4498C82.0756 69.4364 81.7298 69.5728 81.4376 69.8188C80.5717 68.9524 79.3761 68.6796 78.6711 69.2198C78.2287 69.5621 78.0813 70.1504 78.2153 70.7869C78.4995 70.9099 78.7971 71.0142 79.1 71.1078C79.6844 71.2843 80.1884 71.5999 80.5797 72.0064C80.628 72.0545 80.6709 72.108 80.7138 72.1615C80.7701 72.2284 80.8237 72.2979 80.8773 72.3701C80.8854 72.3808 80.8934 72.3942 80.9014 72.4049C80.947 72.4691 80.9872 72.5332 81.0274 72.6001C81.0462 72.6322 81.065 72.667 81.081 72.699C81.1078 72.7499 81.1373 72.8007 81.1615 72.8515C81.2044 72.9424 81.2419 73.0333 81.2767 73.1296C81.3598 73.3676 81.4135 73.6163 81.4322 73.8731C81.4403 73.9453 81.4429 74.0175 81.4429 74.0923L81.4832 82.3987C81.4912 84.2573 80.1213 85.8539 78.2019 86.255C76.4836 86.6187 75.3711 87.1857 75.3737 87.8249C75.3791 88.8999 78.5477 89.3171 82.4563 89.3011C86.3648 89.285 89.5308 88.8411 89.5254 87.766C89.5227 87.1295 88.4049 86.5706 86.6838 86.2203H86.6784Z" fill="#EAEAEA"/>
<path d="M55.1823 8.90984V18.0238C55.1823 18.5112 55.5784 18.9064 56.0669 18.9064H60.828C61.3165 18.9064 61.7126 18.5112 61.7126 18.0238V8.90984C61.7126 8.42244 61.3165 8.02733 60.828 8.02733H56.0669C55.5784 8.02733 55.1823 8.42244 55.1823 8.90984Z" fill="#F6C2AD"/>
<path d="M62.3372 33.2085V19.6899H62.4069C62.8358 19.6899 63.1816 19.3423 63.1816 18.9171V18.6737C63.1816 18.326 62.9511 18.0346 62.6321 17.9383C62.9565 17.7671 63.1816 17.4302 63.1816 17.0397V15.4779C63.1816 14.9136 62.7232 14.4563 62.1576 14.4563H54.74C54.1743 14.4563 53.7159 14.9136 53.7159 15.4779V17.0397C53.7159 17.4328 53.9384 17.7671 54.2655 17.9383C53.9492 18.0346 53.7159 18.326 53.7159 18.6737V18.9171C53.7159 19.345 54.0644 19.6899 54.4907 19.6899H54.5604V33.2085C49.987 34.781 46.7085 39.0465 46.7085 44.0661V90.0426C46.7085 91.476 47.7218 92.7249 49.1533 93.0298C55.3512 94.3589 61.5491 94.3589 67.747 93.0298C69.1758 92.7222 70.1918 91.476 70.1918 90.0426V44.0661C70.1918 39.0465 66.9132 34.7837 62.3399 33.2085H62.3372Z" fill="#469985"/>
<path d="M67.8542 78.0296C61.5839 79.8936 55.311 79.8936 49.0407 78.0296V60.406C55.311 61.6763 61.5839 61.6763 67.8542 60.406V78.0296Z" fill="#F6C2AD"/>
<path d="M53.7266 37.4927C52.2603 38.0195 50.5044 39.0599 49.6707 40.4184C48.904 41.6673 48.9844 43.9565 51.0432 43.5393C52.6007 43.2237 57.1097 36.2813 53.7266 37.4954V37.4927Z" fill="#67C2AD"/>
<path d="M81.7164 96.2573L41.02 95.4389L43.8106 83.7228L80.7272 85.7152L81.7164 96.2573Z" fill="black"/>
<path d="M78.1591 97.6131L41.02 95.4389L43.5882 83.541L80.7273 85.7152L78.1591 97.6131Z" fill="#D57B2E"/>
<path d="M47.5396 89.2453C47.628 89.0501 47.679 88.8522 47.6924 88.6516C47.7058 88.419 47.6682 88.1997 47.5744 87.9911C47.4833 87.7852 47.3385 87.614 47.1428 87.4776C46.9471 87.3412 46.7005 87.2637 46.4029 87.2476C46.1617 87.2343 45.9526 87.253 45.7756 87.3038C45.6362 87.3439 45.5102 87.4001 45.3923 87.4669C45.3923 87.2744 45.3011 87.1727 45.1269 87.162C45.0197 87.1567 44.8963 87.1727 44.7596 87.2102C44.6229 87.2503 44.4835 87.3065 44.3414 87.384L44.5184 87.7825C44.3897 88.3575 44.2798 88.8442 44.1913 89.2453C44.1028 89.6465 44.0305 89.9808 43.9768 90.2482C43.9232 90.5156 43.883 90.7376 43.8562 90.9141C43.8294 91.0879 43.8133 91.2377 43.808 91.3607C43.7972 91.5425 43.8267 91.6763 43.8937 91.7592C43.9634 91.8447 44.076 91.8902 44.2369 91.8982C44.4004 91.9062 44.5693 91.8608 44.7462 91.7618C44.698 91.695 44.6631 91.6147 44.6444 91.5211C44.6229 91.4275 44.6175 91.3179 44.6256 91.1949C44.6336 91.0692 44.6551 90.8954 44.6953 90.6761C44.7301 90.4728 44.7757 90.2509 44.8293 90.0102C44.9017 90.053 44.9741 90.0904 45.0465 90.1198C45.2234 90.1867 45.4325 90.2268 45.6684 90.2402C45.7274 90.2428 45.7864 90.2428 45.8426 90.2428L46.1027 90.9061C46.218 91.2136 46.3198 91.4489 46.4056 91.6121C46.4914 91.7752 46.5799 91.8848 46.6683 91.9464C46.7568 92.0079 46.8667 92.04 46.9981 92.048C47.0597 92.0507 47.124 92.048 47.1964 92.0293C47.2688 92.0132 47.3358 91.9918 47.4028 91.9651C47.4672 91.9357 47.5181 91.9036 47.5556 91.8688C47.4538 91.7645 47.3412 91.6094 47.2152 91.4035C47.0919 91.1976 46.9632 90.9542 46.8372 90.6734C46.7568 90.4969 46.6764 90.3097 46.5986 90.1171C46.8184 90.0342 47.0061 89.9192 47.1589 89.7748C47.3251 89.617 47.4511 89.4379 47.5422 89.2426L47.5396 89.2453ZM46.864 88.6944C46.8506 88.9057 46.7863 89.0929 46.6656 89.2587C46.545 89.4245 46.3788 89.5502 46.1697 89.6358C45.9579 89.7213 45.7113 89.7561 45.4271 89.7401C45.2931 89.732 45.1617 89.708 45.0277 89.6679C44.9902 89.6545 44.9526 89.6411 44.9178 89.6251C44.9526 89.47 44.9875 89.3149 45.0223 89.1571C45.084 88.8896 45.143 88.6383 45.1993 88.4029C45.2502 88.1916 45.2931 88.0125 45.3253 87.8627C45.3601 87.8467 45.395 87.8333 45.4271 87.8199C45.6041 87.7504 45.7783 87.721 45.9526 87.7317C46.1938 87.745 46.3815 87.7985 46.5182 87.8921C46.6522 87.9857 46.7461 88.1007 46.7997 88.2425C46.8533 88.3842 46.8747 88.534 46.864 88.6944V88.6944Z" fill="#FCFFFF"/>
<path d="M51.8582 87.582C51.6063 87.6194 51.373 87.6488 51.1613 87.6756C50.9495 87.7023 50.735 87.721 50.5152 87.7317C50.3704 87.7398 50.2096 87.7397 50.0353 87.7344C50.0353 87.5392 49.9469 87.4349 49.7699 87.4242C49.6627 87.4188 49.5394 87.4349 49.4027 87.4723C49.266 87.5124 49.1266 87.5686 48.9845 87.6461L49.1614 88.0446C49.0327 88.6223 48.9228 89.1117 48.8344 89.5128C48.7459 89.914 48.6735 90.2482 48.6199 90.5157C48.5663 90.7831 48.5261 91.0051 48.4993 91.1762C48.4751 91.35 48.4564 91.4971 48.451 91.6201C48.4403 91.802 48.4698 91.9357 48.5368 92.0186C48.6065 92.1042 48.7191 92.1497 48.8799 92.1577C49.0408 92.1657 49.2097 92.1283 49.3866 92.0427C49.4322 92.0587 49.4751 92.0748 49.5233 92.0908C49.7807 92.1711 50.0407 92.2192 50.3034 92.2326C50.6439 92.2513 50.8959 92.2245 51.0594 92.147C51.2229 92.0721 51.3087 91.9437 51.3194 91.7672C51.3221 91.7218 51.3194 91.679 51.3141 91.6389C51.3087 91.6014 51.2953 91.5479 51.2765 91.4838C51.1666 91.5212 51.054 91.5479 50.9414 91.5667C50.8288 91.5854 50.7002 91.5988 50.5634 91.6095L49.2686 91.5372C49.2686 91.5105 49.2686 91.4838 49.2686 91.4543C49.274 91.3688 49.2901 91.2458 49.3196 91.0826C49.3491 90.9195 49.3866 90.7296 49.4322 90.5157C49.4563 90.4007 49.4831 90.2803 49.5099 90.1573C49.6091 90.1867 49.7029 90.2108 49.7834 90.2295C49.9067 90.2589 50.03 90.275 50.1506 90.283C50.3409 90.2937 50.4884 90.2616 50.5956 90.1841C50.7028 90.1065 50.7591 89.9915 50.7672 89.8417C50.7672 89.8203 50.7672 89.7963 50.7672 89.7695C50.7672 89.7428 50.7672 89.716 50.7672 89.6893L50.282 89.7776C50.1345 89.7695 49.9951 89.7562 49.8584 89.7401C49.7726 89.7294 49.6922 89.7161 49.6091 89.7027C49.652 89.5155 49.6949 89.3256 49.7378 89.1411C49.7914 88.9111 49.8423 88.6998 49.8852 88.5073C49.9093 88.403 49.9308 88.3121 49.9469 88.2265C49.9817 88.2372 50.0193 88.2505 50.0541 88.2612C50.2149 88.3067 50.3758 88.3415 50.5393 88.3655C50.7028 88.3896 50.8691 88.4057 51.0353 88.4163C51.172 88.4244 51.306 88.411 51.4293 88.3789C51.5553 88.3468 51.6572 88.288 51.7376 88.2024C51.818 88.1168 51.8636 88.0018 51.8717 87.8547C51.8717 87.8173 51.8743 87.7772 51.8743 87.7344C51.8743 87.6916 51.869 87.6435 51.8529 87.5873L51.8582 87.582Z" fill="#FCFFFF"/>
<path d="M53.5042 92.4197C53.1852 92.401 52.9064 92.3555 52.6652 92.2806C52.4239 92.2057 52.2416 92.1041 52.1129 91.9758C51.9842 91.8474 51.9253 91.6976 51.936 91.5238C51.9414 91.4275 51.9735 91.3393 52.0298 91.2617C52.0861 91.1842 52.1558 91.1227 52.2416 91.0772C52.3649 91.3419 52.5365 91.5505 52.759 91.703C52.9815 91.8527 53.2254 91.9356 53.4935 91.9517C53.8527 91.9731 54.1503 91.9276 54.3889 91.818C54.6275 91.7083 54.7535 91.5318 54.7669 91.2858C54.7749 91.1601 54.7347 91.0505 54.6489 90.9569C54.5631 90.8659 54.4478 90.7804 54.3004 90.7055C54.153 90.6306 53.9921 90.5557 53.8206 90.4835C53.6463 90.4113 53.4721 90.3337 53.2978 90.2482C53.1236 90.1626 52.9627 90.0636 52.818 89.954C52.6732 89.8443 52.5606 89.7133 52.4775 89.5582C52.3944 89.4058 52.3595 89.2239 52.3729 89.018C52.3864 88.8121 52.4507 88.6222 52.5713 88.4564C52.692 88.2879 52.8555 88.1462 53.0673 88.0285C53.2764 87.9108 53.5257 87.8253 53.8098 87.7691C54.094 87.7129 54.4103 87.6942 54.7535 87.7156C55.0215 87.7317 55.2574 87.7718 55.4612 87.8359C55.6649 87.9001 55.8231 87.983 55.9357 88.082C56.0483 88.1809 56.1019 88.2933 56.0938 88.4163C56.0831 88.5981 56.0134 88.7318 55.8874 88.8174C55.7614 88.903 55.6033 88.9404 55.4129 88.9297C55.2092 88.919 55.0457 88.8495 54.9223 88.7238C54.7963 88.5981 54.7079 88.4243 54.6516 88.1997C54.2093 88.2264 53.8608 88.3093 53.6088 88.4484C53.3568 88.5901 53.2227 88.7639 53.212 88.9779C53.204 89.0955 53.2442 89.1998 53.33 89.2881C53.4158 89.3763 53.531 89.4566 53.6785 89.5288C53.8259 89.601 53.9868 89.6732 54.1583 89.7481C54.3326 89.8203 54.5041 89.9005 54.6811 89.9834C54.8553 90.0663 55.0162 90.1653 55.1609 90.2749C55.3057 90.3846 55.4183 90.5156 55.5014 90.6627C55.5845 90.8124 55.6193 90.9889 55.6059 91.1895C55.5952 91.3714 55.5416 91.5425 55.4451 91.7003C55.3486 91.8581 55.2119 91.9945 55.0349 92.1095C54.858 92.2245 54.6409 92.31 54.3835 92.3689C54.1262 92.4277 53.8313 92.4464 53.5015 92.4277L53.5042 92.4197Z" fill="#FCFFFF"/>
<path d="M60.1418 88.0527C59.8871 88.0901 59.6565 88.1195 59.4448 88.1463C59.233 88.173 59.0185 88.1917 58.7987 88.2024C58.6539 88.2105 58.4931 88.2105 58.3188 88.2051C58.3188 88.0099 58.2304 87.9056 58.0535 87.8949C57.9462 87.8896 57.8229 87.9056 57.6862 87.943C57.5495 87.9832 57.4101 88.0393 57.268 88.1169L57.4449 88.5153C57.3163 89.093 57.2063 89.5824 57.1179 89.9835C57.0294 90.3847 56.957 90.719 56.9034 90.9864C56.8498 91.2538 56.8096 91.4758 56.7828 91.6469C56.7587 91.8208 56.7399 91.9679 56.7345 92.0909C56.7238 92.2727 56.7533 92.4064 56.8203 92.4893C56.89 92.5749 57.0026 92.6204 57.1634 92.6284C57.3243 92.6364 57.4932 92.599 57.6701 92.5134C57.7157 92.5295 57.7586 92.5455 57.8068 92.5615C58.0642 92.6418 58.3242 92.6899 58.5869 92.7033C58.9274 92.722 59.1794 92.6953 59.3429 92.6177C59.5064 92.5428 59.5922 92.4145 59.6029 92.238C59.6056 92.1925 59.6029 92.1497 59.5976 92.1096C59.5922 92.0722 59.5788 92.0187 59.56 91.9545C59.4501 91.9919 59.3375 92.0187 59.2249 92.0374C59.1124 92.0561 58.9837 92.0695 58.847 92.0802L57.5522 92.008C57.5522 91.9812 57.5522 91.9545 57.5522 91.9251C57.5575 91.8395 57.5736 91.7165 57.6031 91.5533C57.6326 91.3902 57.6701 91.2003 57.7157 90.9864C57.7398 90.8714 57.7666 90.751 57.7934 90.628C57.8926 90.6574 57.9864 90.6815 58.0669 90.7002C58.1902 90.7297 58.3135 90.7457 58.4341 90.7537C58.6245 90.7644 58.7719 90.7323 58.8791 90.6548C58.9864 90.5772 59.0427 90.4622 59.0507 90.3125C59.0507 90.2911 59.0507 90.267 59.0507 90.2403C59.0507 90.2135 59.0507 90.1868 59.0507 90.16L58.5655 90.2483C58.418 90.2403 58.2786 90.2269 58.1419 90.2108C58.0561 90.2001 57.9757 90.1868 57.8926 90.1734C57.9355 89.9862 57.9784 89.7963 58.0213 89.6118C58.0749 89.3818 58.1258 89.1705 58.1687 88.978C58.1929 88.8737 58.2143 88.7828 58.2331 88.6972C58.2679 88.7079 58.3054 88.7213 58.3403 88.732C58.5011 88.7774 58.662 88.8122 58.8255 88.8363C58.989 88.8603 59.1552 88.8764 59.3215 88.8871C59.4582 88.8951 59.5922 88.8817 59.7155 88.8496C59.8415 88.8175 59.9434 88.7587 60.0238 88.6731C60.1042 88.5875 60.1498 88.4726 60.1578 88.3255C60.1578 88.288 60.1605 88.2479 60.1605 88.2051C60.1605 88.1623 60.1552 88.1142 60.1391 88.058L60.1418 88.0527Z" fill="#FCFFFF"/>
<path d="M64.1656 90.1867C64.254 89.9915 64.305 89.7936 64.3184 89.593C64.3318 89.3604 64.2942 89.1411 64.2004 88.9352C64.1093 88.7292 63.9645 88.5581 63.7688 88.4217C63.5731 88.2853 63.3265 88.2078 63.0289 88.1917C62.7877 88.1783 62.5786 88.1971 62.4016 88.2479C62.2622 88.288 62.1362 88.3441 62.0183 88.411C62.0183 88.2184 61.9271 88.1168 61.7529 88.1061C61.6457 88.1008 61.5223 88.1168 61.3856 88.1543C61.2489 88.1944 61.1095 88.2505 60.9674 88.3281L61.1444 88.7266C61.0157 89.3015 60.9058 89.7883 60.8173 90.1894C60.7288 90.5905 60.6565 90.9248 60.6028 91.1923C60.5492 91.4597 60.509 91.6817 60.4822 91.8582C60.4554 92.032 60.4393 92.1818 60.434 92.3048C60.4232 92.4866 60.4527 92.6203 60.5197 92.7032C60.5894 92.7888 60.702 92.8343 60.8629 92.8423C61.0264 92.8503 61.1953 92.8049 61.3722 92.7059C61.324 92.6391 61.2891 92.5588 61.2704 92.4652C61.2489 92.3716 61.2435 92.262 61.2516 92.139C61.2596 92.0133 61.2811 91.8394 61.3213 91.6201C61.3561 91.4169 61.4017 91.1949 61.4553 90.9542C61.5277 90.997 61.6001 91.0345 61.6725 91.0639C61.8494 91.1308 62.0585 91.1709 62.2944 91.1842C62.3534 91.1869 62.4124 91.1869 62.4686 91.1869L62.7287 91.8501C62.844 92.1577 62.9458 92.393 63.0316 92.5561C63.1174 92.7193 63.2059 92.8289 63.2943 92.8904C63.3828 92.9519 63.4927 92.984 63.624 92.9921C63.6857 92.9947 63.75 92.9921 63.8224 92.976C63.8948 92.96 63.9618 92.9386 64.0262 92.9118C64.0905 92.8824 64.1414 92.8503 64.179 92.8156C64.0771 92.7113 63.9645 92.5562 63.8385 92.3502C63.7152 92.1443 63.5865 91.9009 63.4605 91.6201C63.3801 91.4436 63.2997 91.2564 63.2219 91.0639C63.4418 90.981 63.6294 90.866 63.7822 90.7216C63.9484 90.5638 64.0744 90.3846 64.1629 90.1894L64.1656 90.1867ZM63.49 89.6358C63.4766 89.8471 63.4123 90.037 63.2916 90.2001C63.171 90.3659 63.0048 90.4916 62.7957 90.5772C62.5839 90.6628 62.3373 90.6975 62.0531 90.6815C61.9191 90.6735 61.7877 90.6494 61.6537 90.6093C61.6162 90.5959 61.5786 90.5825 61.5438 90.5665C61.5786 90.4114 61.6135 90.2563 61.6483 90.0985C61.71 89.8311 61.769 89.5797 61.8253 89.3443C61.8762 89.1331 61.9191 88.9539 61.9513 88.8041C61.9861 88.7881 62.021 88.7747 62.0531 88.7613C62.2301 88.6918 62.4043 88.6624 62.5786 88.6731C62.8198 88.6864 63.0075 88.7399 63.1442 88.8335C63.2782 88.9271 63.3721 89.0421 63.4257 89.1839C63.4793 89.3256 63.5007 89.4754 63.49 89.6358V89.6358Z" fill="#FCFFFF"/>
<path d="M65.7955 93.1472C65.5756 93.1338 65.4067 93.0777 65.2861 92.9787C65.1655 92.8798 65.0877 92.714 65.0502 92.4813C65.0127 92.2486 65.0046 91.9357 65.0288 91.5373C65.0475 91.2324 65.0663 90.9302 65.0877 90.6307C65.1092 90.3312 65.1199 90.045 65.1199 89.7722C65.1199 89.4995 65.0904 89.2508 65.0368 89.0261C64.9832 88.8015 64.8867 88.6062 64.75 88.4458C64.9108 88.3415 65.0824 88.2934 65.2593 88.3014C65.4657 88.3121 65.6212 88.3977 65.7204 88.5554C65.8223 88.7132 65.8839 88.9726 65.9054 89.331C65.9268 89.6893 65.9214 90.1734 65.8839 90.7805C65.8625 91.1388 65.8464 91.4276 65.833 91.6443C65.8196 91.8609 65.8115 92.024 65.8035 92.1363C65.7981 92.2486 65.7901 92.3315 65.7847 92.3824C65.7794 92.4358 65.7767 92.4813 65.774 92.5187L65.8517 92.5241C66.3021 91.9438 66.664 91.441 66.9428 91.0238C67.2216 90.604 67.4253 90.2509 67.5567 89.9648C67.6881 89.676 67.7604 89.4433 67.7685 89.2668C67.7765 89.1358 67.7712 89.0181 67.7578 88.9138C67.7417 88.8095 67.7068 88.7079 67.6532 88.6116C67.7899 88.5474 67.8998 88.5073 67.9829 88.4913C68.0634 88.4752 68.1465 88.4699 68.2269 88.4725C68.3475 88.4806 68.4413 88.534 68.5057 88.6383C68.57 88.7426 68.5995 88.879 68.5888 89.0529C68.5807 89.2106 68.5298 89.4032 68.4413 89.6359C68.3529 89.8685 68.2215 90.1386 68.05 90.4488C67.8784 90.7564 67.6666 91.0987 67.4119 91.4758C67.1573 91.8528 66.8651 92.262 66.53 92.7059L66.6399 92.9279C66.5863 92.976 66.5112 93.0162 66.4147 93.0509C66.3182 93.0857 66.2163 93.1124 66.1091 93.1285C65.9992 93.1445 65.8946 93.1526 65.7955 93.1445V93.1472Z" fill="#FCFFFF"/>
<path d="M72.4249 88.7452C72.173 88.7827 71.9397 88.8121 71.728 88.8388C71.5162 88.8656 71.3017 88.8843 71.0819 88.895C70.9371 88.903 70.7763 88.903 70.602 88.8977C70.602 88.7024 70.5136 88.5981 70.3366 88.5874C70.2294 88.5821 70.1061 88.5981 69.9694 88.6356C69.8327 88.6757 69.6933 88.7319 69.5512 88.8094L69.7281 89.2079C69.5994 89.7855 69.4895 90.2749 69.4011 90.6761C69.3126 91.0772 69.2402 91.4115 69.1866 91.6789C69.133 91.9463 69.0928 92.1683 69.066 92.3395C69.0418 92.5133 69.0231 92.6604 69.0177 92.7834C69.007 92.9653 69.0365 93.099 69.1035 93.1819C69.1732 93.2675 69.2858 93.3129 69.4466 93.3209C69.6075 93.329 69.7764 93.2915 69.9533 93.2059C69.9989 93.222 70.0418 93.238 70.09 93.2541C70.3474 93.3343 70.6074 93.3824 70.8701 93.3958C71.2106 93.4145 71.4626 93.3878 71.6261 93.3102C71.7896 93.2354 71.8754 93.107 71.8861 92.9305C71.8861 92.885 71.8861 92.8422 71.8808 92.8021C71.8754 92.7647 71.862 92.7112 71.8432 92.647C71.7333 92.6845 71.6207 92.7112 71.5081 92.7299C71.3955 92.7486 71.2669 92.762 71.1301 92.7727L69.8353 92.7005C69.8353 92.6738 69.8353 92.647 69.8353 92.6176C69.8407 92.532 69.8568 92.409 69.8863 92.2459C69.9158 92.0827 69.9533 91.8929 69.9962 91.6789C70.0203 91.5639 70.0471 91.4436 70.0739 91.3206C70.1731 91.35 70.2669 91.3741 70.3474 91.3928C70.4707 91.4222 70.594 91.4382 70.7146 91.4463C70.905 91.457 71.0524 91.4249 71.1596 91.3473C71.2669 91.2698 71.3232 91.1548 71.3312 91.005C71.3312 90.9836 71.3312 90.9595 71.3312 90.9328C71.3312 90.9061 71.3312 90.8793 71.3312 90.8526L70.846 90.9408C70.6985 90.9328 70.5591 90.9194 70.4224 90.9034C70.3366 90.8927 70.2562 90.8793 70.1731 90.8659C70.216 90.6787 70.2589 90.4889 70.3018 90.3043C70.3554 90.0743 70.4063 89.8631 70.4492 89.6705C70.4734 89.5662 70.4948 89.4726 70.5109 89.3897C70.5457 89.4004 70.5833 89.4138 70.6181 89.4245C70.779 89.47 70.9398 89.5047 71.1033 89.5288C71.2669 89.5529 71.4331 89.5689 71.5993 89.5796C71.7387 89.5876 71.87 89.5743 71.9933 89.5422C72.1193 89.5101 72.2212 89.4512 72.3016 89.3657C72.3821 89.2801 72.4276 89.1651 72.4357 89.018C72.4357 88.9806 72.4383 88.9404 72.4383 88.8977C72.4383 88.8549 72.433 88.8067 72.4169 88.7506L72.4249 88.7452Z" fill="#FCFFFF"/>
<path d="M76.9286 89.914C76.7946 89.6037 76.5962 89.3577 76.3281 89.1758C76.0627 88.994 75.741 88.895 75.3657 88.8737C75.1164 88.8603 74.8993 88.8736 74.7197 88.9218C74.5588 88.9646 74.4167 89.0207 74.2854 89.0876C74.28 88.9031 74.1889 88.8041 74.0146 88.7934C73.9235 88.7881 73.8109 88.8041 73.6768 88.8442C73.5428 88.8844 73.398 88.9405 73.2426 89.0181L73.4195 89.4165C73.3042 89.9113 73.205 90.3418 73.1192 90.7109C73.0335 91.0799 72.9664 91.3955 72.9101 91.6576C72.8565 91.9197 72.8136 92.1363 72.7868 92.3101C72.76 92.4839 72.7413 92.623 72.7359 92.7273C72.7198 92.9894 72.8297 93.19 73.0603 93.3317C73.2935 93.4734 73.6474 93.5563 74.1272 93.5831C74.5427 93.6072 74.9234 93.5617 75.2746 93.4467C75.6257 93.3317 75.9314 93.1605 76.1941 92.9332C76.4568 92.7032 76.6659 92.4251 76.8214 92.0988C76.9768 91.7726 77.0653 91.4062 77.0894 90.9997C77.1136 90.5852 77.0599 90.2215 76.9259 89.9113L76.9286 89.914ZM76.2504 91.088C76.2262 91.5025 76.1244 91.8662 75.9448 92.1818C75.7651 92.4973 75.5319 92.738 75.2397 92.9065C74.9475 93.075 74.6205 93.1472 74.2532 93.1285C74.1138 93.1204 73.9905 93.1044 73.8752 93.0803C73.7626 93.0562 73.6447 93.0215 73.5214 92.9787C73.5267 92.8904 73.5428 92.7594 73.575 92.5829C73.6045 92.4091 73.642 92.2112 73.6876 91.9865C73.7331 91.7646 73.7814 91.5292 73.835 91.2859C73.8886 91.0398 73.9396 90.7991 73.9905 90.5585C74.0414 90.3204 74.0897 90.1012 74.1326 89.9006C74.1674 89.7481 74.1942 89.6144 74.2184 89.4994C74.3256 89.4513 74.4382 89.4112 74.5615 89.3871C74.6928 89.3604 74.859 89.3524 75.0574 89.3631C75.4756 89.3871 75.7866 89.5449 75.9903 89.8391C76.1941 90.1332 76.2798 90.5478 76.2477 91.0853L76.2504 91.088Z" fill="#FCFFFF"/>
<path d="M92.5627 74.5906C92.6565 74.6308 92.7557 74.6682 92.8549 74.7056H100.476C100.584 74.6655 100.696 74.6308 100.801 74.5853C103.527 73.4353 105.374 70.9723 105.355 67.0384C105.342 64.1662 102.728 57.9351 102.715 54.8303L90.5361 54.8356C90.5521 58.117 87.992 64.2384 88.0054 67.1106C88.0215 71.0124 89.8605 73.4514 92.56 74.5906H92.5627Z" fill="#EAEAEA"/>
<path d="M96.6267 55.4213C99.989 55.4213 102.715 55.1567 102.715 54.8303C102.715 54.5038 99.989 54.2392 96.6267 54.2392C93.2644 54.2392 90.5387 54.5038 90.5387 54.8303C90.5387 55.1567 93.2644 55.4213 96.6267 55.4213Z" fill="#C5C5C5"/>
<path d="M101.028 90.024C99.1064 89.6362 97.7231 88.0504 97.7151 86.1944L97.6749 77.8854C97.6749 77.7517 97.6829 77.6233 97.699 77.4949C97.7231 77.3077 97.766 77.1232 97.825 76.9467C97.8545 76.8558 97.8893 76.7648 97.9269 76.6793C97.9564 76.6097 97.9939 76.5429 98.0287 76.4733C98.0368 76.4573 98.0448 76.4413 98.0529 76.4279C98.144 76.2648 98.2486 76.1096 98.3692 75.9652C98.3853 75.9438 98.4014 75.9224 98.4175 75.9037C98.8169 75.4411 99.3557 75.08 99.9884 74.8848C100.267 74.7992 100.541 74.6976 100.803 74.5853C100.935 73.9515 100.787 73.3631 100.345 73.0235C99.6533 72.4913 98.4845 72.7454 97.6213 73.5798C97.38 73.3819 97.0958 73.2642 96.7902 73.2535C96.4257 73.2401 96.0798 73.3765 95.7876 73.6225C94.9218 72.7561 93.7261 72.4833 93.0211 73.0235C92.5788 73.3658 92.4313 73.9542 92.5654 74.5906C92.8495 74.7137 93.1471 74.818 93.45 74.9116C94.0344 75.0881 94.5384 75.4036 94.9298 75.8101C94.978 75.8583 95.0209 75.9117 95.0638 75.9652C95.1201 76.0321 95.1737 76.1016 95.2274 76.1738C95.2354 76.1845 95.2434 76.1979 95.2515 76.2086C95.2971 76.2728 95.3373 76.337 95.3775 76.4038C95.3962 76.4359 95.415 76.4707 95.4311 76.5028C95.4579 76.5536 95.4874 76.6044 95.5115 76.6552C95.5544 76.7461 95.5919 76.837 95.6268 76.9333C95.7099 77.1713 95.7635 77.42 95.7823 77.6768C95.7903 77.749 95.793 77.8212 95.793 77.8961L95.8332 86.2024C95.8412 88.0611 94.4714 89.6576 92.552 90.0588C90.8336 90.4225 89.7211 90.9894 89.7238 91.6286C89.7292 92.7036 92.8978 93.1208 96.8063 93.1048C100.715 93.0887 103.881 92.6448 103.875 91.5697C103.873 90.9333 102.755 90.3743 101.034 90.024H101.028Z" fill="#EAEAEA"/>
</svg>
