<svg width="24" height="25" viewBox="0 0 24 25" fill="none" xmlns="http://www.w3.org/2000/svg">
<g clip-path="url(#clip0_117_2350)">
<g clip-path="url(#clip1_117_2350)">
<g clip-path="url(#clip2_117_2350)">
<path d="M23.0846 12.3548C23.0846 6.11285 18.0245 1.05273 11.7826 1.05273C5.54058 1.05273 0.480469 6.11285 0.480469 12.3548C0.480469 18.5968 5.54058 23.6569 11.7826 23.6569C18.0245 23.6569 23.0846 18.5968 23.0846 12.3548Z" stroke="#333333" stroke-width="0.729167"/>
<path d="M11.7838 7.25C14.5829 7.25 16.888 9.55511 16.888 12.3542C16.888 15.1738 14.5829 17.4583 11.7838 17.4583C8.96421 17.4583 6.67969 15.1738 6.67969 12.3542C6.67969 9.55511 8.96421 7.25 11.7838 7.25ZM14.1301 10.7283C14.1507 10.6665 14.1507 10.6047 14.1301 10.5224C14.1301 10.4813 14.0889 10.4195 14.0684 10.3989C14.0066 10.3372 13.9037 10.3372 13.8625 10.3372C13.6773 10.3372 13.3686 10.4401 11.9485 11.0369C11.4545 11.2428 10.4667 11.6544 8.98477 12.313C8.7378 12.4159 8.61436 12.4982 8.59372 12.6011C8.57316 12.7658 8.84069 12.8275 9.14942 12.9304C9.41702 13.0128 9.76688 13.1157 9.95209 13.1157C10.1167 13.1157 10.302 13.0539 10.5078 12.9099C11.8868 11.9631 12.6071 11.4897 12.6483 11.4897C12.6895 11.4897 12.7306 11.4692 12.7512 11.4897C12.7923 11.5309 12.7923 11.5721 12.7718 11.5926C12.7512 11.6956 11.4545 12.8893 11.3722 12.9716C11.0841 13.2597 10.7548 13.445 11.2693 13.7743C11.7015 14.0624 11.9485 14.2477 12.4013 14.5358C12.6895 14.721 12.9159 14.9474 13.204 14.9268C13.348 14.9063 13.4921 14.7827 13.5539 14.3917C13.7391 13.5067 14.0684 11.5309 14.1301 10.7283Z" fill="#333333"/>
</g>
</g>
</g>
<defs>
<clipPath id="clip0_117_2350">
<rect width="23.3333" height="23.3333" fill="white" transform="translate(0.113281 0.6875)"/>
</clipPath>
<clipPath id="clip1_117_2350">
<rect width="23.3333" height="23.3333" fill="white" transform="translate(0.113281 0.6875)"/>
</clipPath>
<clipPath id="clip2_117_2350">
<rect width="23.3333" height="23.3333" fill="white" transform="translate(0.113281 0.6875)"/>
</clipPath>
</defs>
</svg>
