<svg width="30" height="25" viewBox="0 0 30 25" fill="none" xmlns="http://www.w3.org/2000/svg">
<path d="M9.4377 24.8193C20.7557 24.8193 26.9479 15.5849 26.9479 7.5792C26.9479 7.3196 26.942 7.05422 26.9303 6.79461C28.1348 5.93692 29.1744 4.87455 30 3.65742C28.8782 4.14885 27.6871 4.4698 26.4674 4.60931C27.7516 3.8514 28.7132 2.66075 29.1738 1.25809C27.9657 1.96304 26.6445 2.46031 25.2668 2.72861C24.3385 1.75751 23.1112 1.11452 21.7746 0.899066C20.438 0.683609 19.0665 0.907681 17.8722 1.53664C16.6779 2.16559 15.7272 3.1644 15.1673 4.37864C14.6074 5.59288 14.4693 6.95492 14.7744 8.25418C12.3281 8.13331 9.93492 7.50763 7.74998 6.41769C5.56503 5.32775 3.63712 3.7979 2.09121 1.92729C1.3055 3.26106 1.06507 4.83934 1.41879 6.34138C1.77251 7.84341 2.69383 9.15648 3.99551 10.0137C3.01829 9.98318 2.06247 9.72413 1.20703 9.25798V9.33298C1.20616 10.7327 1.69762 12.0895 2.59789 13.1727C3.49815 14.256 4.75165 14.9989 6.14531 15.2751C5.24007 15.5189 4.28998 15.5545 3.36855 15.3789C3.76182 16.5827 4.52697 17.6355 5.55721 18.3905C6.58746 19.1454 7.8314 19.5649 9.11543 19.5903C6.93553 21.2762 4.24272 22.1907 1.4707 22.1864C0.979109 22.1856 0.487999 22.1559 0 22.0975C2.81607 23.8763 6.09191 24.8211 9.4377 24.8193Z" fill="white"/>
</svg>
